<svg width="97" height="96" viewBox="0 0 97 96" fill="none" xmlns="http://www.w3.org/2000/svg">
<path d="M13.9654 55.5034L12.4687 61.5016H84.4701L82.9678 55.5034H13.9654Z" fill="#D0E6FF"/>
<path d="M13.2171 58.5025L12.4687 61.5016H84.4701L83.7161 58.4968L13.2171 58.5025Z" fill="#C4D2F0"/>
<path d="M79.9686 55.5034L81.4654 61.5016H84.4701L82.9677 55.5034H79.9686Z" fill="#C4D2F0"/>
<path d="M9.46966 25.501H87.4693C89.9638 25.501 91.9708 27.5079 91.9708 30.0025V51.002C91.9708 53.4965 89.9638 55.5035 87.4693 55.5035H9.46966C8.87809 55.505 8.29206 55.3895 7.74524 55.1638C7.19842 54.9382 6.70158 54.6066 6.28328 54.1883C5.86498 53.77 5.53346 53.2732 5.30776 52.7264C5.08207 52.1795 4.96666 51.5935 4.96815 51.002V30.0025C4.96815 27.5079 6.97512 25.501 9.46966 25.501Z" fill="#D0E6FF"/>
<path d="M19.9693 34.4983C19.987 34.9035 19.9224 35.3081 19.7794 35.6876C19.6365 36.0672 19.4182 36.4139 19.1377 36.7069C18.8573 36.9998 18.5204 37.2329 18.1474 37.3922C17.7744 37.5515 17.373 37.6336 16.9674 37.6336C16.5618 37.6336 16.1604 37.5515 15.7874 37.3922C15.4144 37.2329 15.0775 36.9998 14.797 36.7069C14.5166 36.4139 14.2983 36.0672 14.1554 35.6876C14.0124 35.3081 13.9478 34.9035 13.9654 34.4983C13.9991 33.7247 14.33 32.994 14.8893 32.4585C15.4486 31.9229 16.1931 31.624 16.9674 31.624C17.7417 31.624 18.4862 31.9229 19.0455 32.4585C19.6047 32.994 19.9357 33.7247 19.9693 34.4983ZM13.9598 46.5004H82.9621V55.5035H13.9711L13.9598 46.5004ZM34.9592 34.4983C34.9844 34.9077 34.9255 35.3179 34.7862 35.7036C34.6469 36.0893 34.4301 36.4425 34.1491 36.7413C33.8681 37.04 33.529 37.2781 33.1525 37.4409C32.7761 37.6036 32.3703 37.6876 31.9601 37.6876C31.55 37.6876 31.1442 37.6036 30.7677 37.4409C30.3913 37.2781 30.0521 37.04 29.7712 36.7413C29.4902 36.4425 29.2734 36.0893 29.1341 35.7036C28.9947 35.3179 28.9358 34.9077 28.961 34.4983C29.008 33.7348 29.3444 33.0179 29.9017 32.4939C30.459 31.9698 31.1952 31.678 31.9601 31.678C32.7251 31.678 33.4613 31.9698 34.0186 32.4939C34.5759 33.0179 34.9123 33.7348 34.9592 34.4983Z" fill="#A8C5F7"/>
<path d="M13.9655 46.5003V55.5033H16.9702V49.4937H82.9678V46.4946L13.9655 46.5003Z" fill="#91B8FB"/>
<path d="M82.9678 31.4993H43.9623V37.5032H82.9678V31.4993Z" fill="#A8C5F7"/>
<path d="M79.9687 31.4993V34.504H43.968V37.5032H82.9735V31.4993H79.9687Z" fill="#91B8FB"/>
<path d="M84.4702 25.501C86.9647 25.501 88.966 27.508 88.966 30.0025V51.002C88.966 53.4965 86.9591 55.5035 84.4702 55.5035H87.4693C89.9638 55.5035 91.9708 53.4965 91.9708 51.002V30.0025C91.9723 29.4109 91.8569 28.8249 91.6312 28.2781C91.4055 27.7313 91.074 27.2344 90.6557 26.8161C90.2374 26.3978 89.7405 26.0663 89.1937 25.8406C88.6469 25.6149 88.0609 25.4995 87.4693 25.501H84.4702Z" fill="#C4D2F0"/>
<path d="M9.46399 25.501C8.8729 25.5002 8.28748 25.6162 7.74131 25.8422C7.19515 26.0682 6.69898 26.3999 6.28128 26.8181C5.86358 27.2363 5.53256 27.7329 5.30723 28.2794C5.08189 28.8258 4.96666 29.4114 4.96815 30.0025V51.002C4.96815 53.4965 6.97512 55.5035 9.46399 55.5035H12.4688C11.8772 55.505 11.2912 55.3895 10.7444 55.1638C10.1975 54.9382 9.7007 54.6066 9.28239 54.1883C8.86409 53.77 8.53257 53.2732 8.30688 52.7264C8.08119 52.1795 7.96577 51.5935 7.96727 51.002V30.0025C7.96727 27.5079 9.97424 25.501 12.4688 25.501H9.46399Z" fill="#F8F8F8"/>
<path d="M48.4694 3.00477C42.5028 3.0009 36.7787 5.36638 32.5554 9.58127C31.1381 10.9986 33.2641 13.1303 34.6815 11.713C36.4912 9.90071 38.6405 8.46299 41.0064 7.48206C43.3722 6.50114 45.9083 5.99623 48.4694 5.99623C51.0306 5.99623 53.5666 6.50114 55.9325 7.48206C58.2984 8.46299 60.4477 9.90071 62.2574 11.713C63.7088 13.102 65.7725 11.0326 64.3778 9.58127C60.1559 5.36777 54.4342 3.0024 48.4694 3.00477ZM48.4694 9.00299C46.3018 9.00177 44.1551 9.42774 42.1521 10.2566C40.1492 11.0854 38.3292 12.3008 36.7961 13.8333C35.4071 15.2563 37.4765 17.354 38.9222 15.9537C40.1752 14.6997 41.6631 13.705 43.3008 13.0263C44.9385 12.3476 46.6939 11.9983 48.4666 11.9983C50.2393 11.9983 51.9947 12.3476 53.6324 13.0263C55.2701 13.705 56.758 14.6997 58.011 15.9537C59.4341 17.3767 61.5431 15.2563 60.1371 13.8333C57.0417 10.7406 52.8451 9.00328 48.4694 9.00299ZM48.4694 15.0012C45.6801 15.0012 43.0041 16.1011 41.0425 18.0684C39.6195 19.4857 41.7455 21.6174 43.1629 20.2001C44.5695 18.7934 46.4773 18.0032 48.4666 18.0032C50.4559 18.0032 52.3637 18.7934 53.7703 20.2001C55.1367 21.6117 57.3421 19.5027 55.8907 18.0684C54.9146 17.0951 53.7563 16.3237 52.4819 15.7984C51.2076 15.2731 49.8422 15.0041 48.4638 15.0069L48.4694 15.0012ZM9.46962 23.9929C7.87677 23.9944 6.34967 24.6282 5.22388 25.7551C4.09809 26.8819 3.46572 28.4096 3.46572 30.0025V51.0019C3.46572 54.3469 6.17003 57.0058 9.46962 57.0058H12.0435L11.006 61.1332C10.9498 61.3554 10.9452 61.5875 10.9925 61.8117C11.0398 62.036 11.1378 62.2465 11.2789 62.427C11.4201 62.6076 11.6007 62.7535 11.8069 62.8535C12.0132 62.9535 12.2395 63.005 12.4687 63.0041H84.4702C85.451 63.0154 86.171 62.0856 85.9272 61.1332L84.8897 57.0058H87.4693C90.7689 57.0058 93.4675 54.3412 93.4675 51.0019V29.9968C93.4675 26.6972 90.8029 23.9929 87.4693 23.9929H9.46962ZM9.46962 26.9977H87.4693C89.1587 26.9977 90.4684 28.3583 90.4684 30.0025V51.0019C90.4684 52.6461 89.1587 54.0067 87.4636 54.0067H84.4645V46.4891C84.463 46.0936 84.3056 45.7146 84.0265 45.4344C83.7473 45.1542 83.3689 44.9953 82.9734 44.9924H13.9598C13.5633 44.9939 13.1835 45.152 12.9031 45.4324C12.6227 45.7128 12.4646 46.0926 12.4631 46.4891V54.001H9.46395C9.06873 54.0033 8.67698 53.9271 8.31141 53.7769C7.94583 53.6267 7.61369 53.4055 7.33422 53.126C7.05475 52.8465 6.8335 52.5144 6.6833 52.1488C6.53309 51.7832 6.45691 51.3915 6.45917 50.9963V29.9968C6.45917 28.3073 7.83116 26.992 9.46395 26.992L9.46962 26.9977ZM16.9702 30.0025C16.3608 29.9718 15.7516 30.0654 15.1795 30.2776C14.6074 30.4897 14.0844 30.8159 13.6422 31.2364C13.2001 31.6569 12.848 32.1629 12.6075 32.7236C12.3669 33.2843 12.2429 33.8881 12.2429 34.4983C12.2429 35.1085 12.3669 35.7123 12.6075 36.273C12.848 36.8337 13.2001 37.3397 13.6422 37.7602C14.0844 38.1807 14.6074 38.5069 15.1795 38.719C15.7516 38.9312 16.3608 39.0247 16.9702 38.9941C18.1357 38.9528 19.2397 38.4607 20.0495 37.6215C20.8594 36.7824 21.312 35.6617 21.312 34.4955C21.312 33.3292 20.8594 32.2085 20.0495 31.3694C19.2397 30.5303 18.1357 30.0438 16.9702 30.0025ZM31.9715 30.0025C29.4769 30.0025 27.4586 32.0378 27.4586 34.504C27.5166 35.6588 28.0162 36.7471 28.854 37.544C29.6919 38.3408 30.8039 38.7851 31.9601 38.7851C33.1164 38.7851 34.2284 38.3408 35.0663 37.544C35.9041 36.7471 36.4037 35.6588 36.4616 34.504C36.4632 33.3111 35.9911 32.1664 35.1492 31.3213C34.3073 30.4762 33.1644 30.0055 31.9715 30.0025ZM43.9736 30.0025C43.7757 29.9979 43.579 30.0332 43.3951 30.1063C43.2112 30.1794 43.0438 30.2888 42.9031 30.4279C42.7624 30.5671 42.6511 30.7331 42.5759 30.9162C42.5007 31.0993 42.4632 31.2956 42.4655 31.4935V37.5031C42.4655 38.3365 43.1459 39.0055 43.9736 38.9998H82.9734C83.368 38.9968 83.7455 38.8388 84.0245 38.5598C84.3035 38.2808 84.4615 37.9033 84.4645 37.5088V31.4992C84.463 31.1037 84.3056 30.7247 84.0265 30.4445C83.7473 30.1643 83.3689 30.0054 82.9734 30.0025H43.9736ZM16.9646 32.9959C17.363 32.9967 17.7449 33.1557 18.0261 33.438C18.3073 33.7202 18.4649 34.1027 18.4641 34.5011C18.4634 34.8996 18.3044 35.2814 18.0221 35.5627C17.7398 35.8439 17.3574 36.0014 16.9589 36.0007C16.7616 36.0003 16.5663 35.9611 16.3842 35.8852C16.202 35.8094 16.0366 35.6984 15.8974 35.5586C15.7581 35.4189 15.6478 35.253 15.5726 35.0706C15.4975 34.8882 15.459 34.6928 15.4593 34.4955C15.4597 34.2982 15.4989 34.1029 15.5748 33.9207C15.6506 33.7386 15.7616 33.5732 15.9014 33.4339C16.0412 33.2947 16.207 33.1843 16.3894 33.1092C16.5718 33.034 16.7673 32.9955 16.9646 32.9959ZM31.9658 32.9959C32.3643 32.9974 32.7458 33.1571 33.0265 33.44C33.3072 33.7228 33.464 34.1055 33.4625 34.504C33.461 34.9024 33.3013 35.284 33.0185 35.5647C32.7357 35.8453 32.3529 36.0022 31.9545 36.0007C31.556 35.9992 31.1745 35.8395 30.8938 35.5566C30.6131 35.2738 30.4562 34.8911 30.4577 34.4926C30.4593 34.0942 30.619 33.7126 30.9018 33.4319C31.1846 33.1512 31.5674 32.9944 31.9658 32.9959ZM45.459 32.9959H81.4597V36.0007H45.459V32.9959ZM15.4678 48.0028H81.4597V54.0067H15.4735L15.4678 48.0028ZM15.1334 57.0058H81.7885L82.5482 60.0049H14.385L15.1334 57.0058ZM27.4813 67.4999C27.488 70.4573 26.9104 73.3868 25.7816 76.1203C24.6528 78.8537 22.9951 81.3372 20.9037 83.4281C18.8122 85.519 16.3283 87.1761 13.5946 88.3042C10.8608 89.4324 7.93114 90.0092 4.97378 90.0018C2.97249 90.0244 2.94981 92.9895 4.97378 93.0065C8.3263 93.017 11.6478 92.3644 14.7471 91.0863C17.8465 89.8082 20.6625 87.9298 23.0331 85.5592C25.4037 83.1886 27.2821 80.3726 28.5602 77.2733C29.8383 74.1739 30.4909 70.8524 30.4804 67.4999C30.4804 67.1014 30.3221 66.7193 30.0404 66.4375C29.7586 66.1558 29.3765 65.9975 28.978 65.9975C28.5796 65.9975 28.1974 66.1558 27.9157 66.4375C27.6339 66.7193 27.4813 67.1014 27.4813 67.4999ZM66.4471 67.4999C66.4389 70.8506 67.0927 74.1698 68.371 77.2671C69.6492 80.3644 71.5268 83.1786 73.8958 85.5481C76.2649 87.9177 79.0787 89.7959 82.1756 91.0749C85.2726 92.3538 88.5918 93.0083 91.9424 93.0009C93.8984 93.0009 93.9834 90.0641 91.9424 90.0018C88.9864 90.0062 86.0586 89.4272 83.3269 88.2979C80.5951 87.1686 78.1131 85.5112 76.0232 83.4208C73.9333 81.3303 72.2765 78.8479 71.1479 76.1159C70.0193 73.3838 69.441 70.4559 69.4462 67.4999C69.445 67.2952 69.4022 67.0929 69.3206 66.9052C69.2389 66.7175 69.12 66.5483 68.9711 66.4079C68.8222 66.2675 68.6463 66.1587 68.4542 66.0881C68.262 66.0176 68.0575 65.9868 67.8531 65.9975C67.4716 66.022 67.1138 66.1911 66.8526 66.4702C66.5913 66.7494 66.4463 67.1176 66.4471 67.4999ZM43.9679 70.5047C43.9733 76.4733 41.6077 82.1997 37.3914 86.4244C36.0138 87.8757 38.0774 89.9451 39.5061 88.5504C41.8785 86.1826 43.7582 83.3683 45.0368 80.27C46.3155 77.1717 46.9677 73.8508 46.9557 70.499C46.9596 70.2933 46.9203 70.0891 46.8402 69.8996C46.7602 69.7101 46.6412 69.5395 46.491 69.3989C46.3408 69.2584 46.1627 69.1509 45.9683 69.0836C45.774 69.0162 45.5676 68.9904 45.3626 69.008C44.9811 69.0242 44.6213 69.1895 44.3604 69.4684C44.0996 69.7472 43.9587 70.123 43.9679 70.5047ZM49.9548 70.5047C49.9502 73.856 50.6074 77.1753 51.8887 80.2721C53.17 83.3688 55.0502 86.1821 57.4214 88.5504C58.8331 89.9394 60.9308 87.8701 59.5361 86.4244C57.4465 84.3328 55.79 81.8495 54.6615 79.1168C53.533 76.3841 52.9547 73.4556 52.9596 70.499C52.9709 69.6543 52.2906 68.9853 51.3722 68.9966C50.5218 69.0873 49.9435 69.7393 49.9548 70.5047Z" fill="#1781F8"/>
</svg>
