<svg width="140" height="44" viewBox="0 0 140 44" fill="none" xmlns="http://www.w3.org/2000/svg">
<rect width="140" height="44" rx="4" fill="white"/>
<path d="M135.236 0H68L94.335 44H135.236C136.489 43.9988 137.691 43.451 138.578 42.4766C139.465 41.5023 139.964 40.1809 139.967 38.8022V5.20003C139.965 3.82104 139.465 2.49925 138.579 1.52446C137.692 0.549675 136.49 0.00145451 135.236 0Z" fill="#F9FAFB"/>
<circle cx="29.2174" cy="22" r="14" fill="url(#paint0_linear_6_84)"/>
<path d="M31.6642 14.654C31.9668 14.1259 31.7859 13.4513 31.2602 13.1473C30.7345 12.8433 30.063 13.025 29.7604 13.5532L29.2327 14.4744L28.7049 13.5532C28.4023 13.025 27.7308 12.8433 27.2051 13.1473C26.6794 13.4513 26.4985 14.1259 26.8011 14.654L27.9654 16.6864L24.2827 23.1149H21.3157C20.7091 23.1149 20.2174 23.6089 20.2174 24.2183C20.2174 24.8277 20.7091 25.3217 21.3157 25.3217H31.6498C31.7404 25.0825 31.8358 24.6721 31.7344 24.2949C31.5818 23.7279 31.0174 23.1149 30.0716 23.1149H26.8171L31.6642 14.654Z" fill="white"/>
<path d="M24.8538 26.5419C24.6664 26.3328 24.2466 25.9987 23.8784 25.8888C23.3171 25.7211 22.8915 25.8263 22.6768 25.9179L21.8587 27.346C21.5561 27.8741 21.737 28.5487 22.2628 28.8527C22.7885 29.1567 23.4599 28.975 23.7625 28.4468L24.8538 26.5419Z" fill="white"/>
<path d="M35.4469 25.3217H37.1191C37.7257 25.3217 38.2174 24.8277 38.2174 24.2183C38.2174 23.6089 37.7257 23.1149 37.1191 23.1149H34.1827L30.8749 17.3411C30.6292 17.5757 30.1581 18.175 30.0869 18.8545C29.9954 19.728 30.1327 20.4636 30.5445 21.1839C31.9292 23.6056 33.3161 26.0262 34.7028 28.4468C35.0054 28.975 35.6768 29.1567 36.2026 28.8527C36.7283 28.5487 36.9092 27.8741 36.6066 27.346L35.4469 25.3217Z" fill="white"/>
<path d="M50.7511 15.4452C50.1578 15.4452 49.6446 15.4162 49.2174 15.3672V8.93194C49.8149 8.83967 50.4186 8.79419 51.0232 8.79591C53.4693 8.79591 54.5958 9.99915 54.5958 11.9605C54.5958 14.223 53.2652 15.4452 50.7511 15.4452ZM51.1092 9.62107C50.7791 9.62107 50.498 9.64108 50.2649 9.68909V14.581C50.3909 14.601 50.633 14.61 50.9732 14.61C52.5759 14.61 53.4883 13.6979 53.4883 11.9895C53.4883 10.4662 52.6629 9.62107 51.1092 9.62107ZM58.1064 15.4942C56.7278 15.4942 55.8344 14.465 55.8344 13.0677C55.8344 11.6115 56.7468 10.5733 58.1845 10.5733C59.5431 10.5733 60.4565 11.5534 60.4565 12.9907C60.4565 14.465 59.5151 15.4942 58.1064 15.4942ZM58.1465 11.3394C57.3891 11.3394 56.9039 12.0475 56.9039 13.0377C56.9039 14.0089 57.3991 14.7171 58.1364 14.7171C58.8738 14.7171 59.369 13.9599 59.369 13.0177C59.369 12.0575 58.8838 11.3394 58.1465 11.3394ZM68.3181 10.6703L66.8424 15.3872H65.881L65.2697 13.3388C65.1177 12.8377 64.9912 12.3293 64.8905 11.8155H64.8705C64.7935 12.3296 64.6474 12.8447 64.4923 13.3388L63.8421 15.3872H62.8706L61.482 10.6703H62.5595L63.0937 12.9127C63.2198 13.4468 63.3258 13.9509 63.4139 14.427H63.4339C63.5109 14.0299 63.637 13.5338 63.822 12.9227L64.4923 10.6713H65.3467L65.988 12.8747C66.1431 13.4088 66.2692 13.9329 66.3672 14.428H66.3952C66.4632 13.9429 66.5703 13.4278 66.7154 12.8747L67.2886 10.6713L68.3181 10.6703ZM73.7506 15.3872H72.7021V12.6787C72.7021 11.8445 72.3819 11.4264 71.7507 11.4264C71.1294 11.4264 70.7022 11.9605 70.7022 12.5816V15.3872H69.6537V12.0185C69.6537 11.6015 69.6437 11.1544 69.6147 10.6693H70.5371L70.5861 11.3974H70.6151C70.8973 10.8933 71.4695 10.5733 72.1108 10.5733C73.1013 10.5733 73.7516 11.3304 73.7516 12.5626L73.7506 15.3872ZM76.6419 15.3872H75.5924V8.50586H76.6419V15.3872ZM80.4646 15.4942C79.087 15.4942 78.1926 14.465 78.1926 13.0677C78.1926 11.6115 79.105 10.5733 80.5417 10.5733C81.9013 10.5733 82.8137 11.5534 82.8137 12.9907C82.8147 14.465 81.8723 15.4942 80.4646 15.4942ZM80.5037 11.3394C79.7463 11.3394 79.2611 12.0475 79.2611 13.0377C79.2611 14.0089 79.7573 14.7171 80.4927 14.7171C81.231 14.7171 81.7252 13.9599 81.7252 13.0177C81.7262 12.0575 81.242 11.3394 80.5037 11.3394ZM86.9476 15.3872L86.8716 14.8441H86.8436C86.5234 15.2812 86.0562 15.4942 85.4639 15.4942C84.6185 15.4942 84.0183 14.9021 84.0183 14.1059C84.0183 12.9417 85.0277 12.3396 86.7755 12.3396V12.2526C86.7755 11.6315 86.4464 11.3204 85.7961 11.3204C85.3309 11.3204 84.9227 11.4374 84.5635 11.6705L84.3504 10.9813C84.7866 10.7093 85.3309 10.5733 85.9702 10.5733C87.2027 10.5733 87.825 11.2234 87.825 12.5246V14.262C87.825 14.7381 87.846 15.1071 87.893 15.3882L86.9476 15.3872ZM86.8035 13.0377C85.639 13.0377 85.0547 13.3198 85.0547 13.9889C85.0547 14.484 85.3559 14.7261 85.7741 14.7261C86.3073 14.7261 86.8035 14.319 86.8035 13.7659V13.0377ZM92.9163 15.3872L92.8673 14.63H92.8383C92.5371 15.2021 92.0309 15.4942 91.3236 15.4942C90.1861 15.4942 89.3437 14.494 89.3437 13.0867C89.3437 11.6115 90.2171 10.5723 91.4096 10.5723C92.0409 10.5723 92.4881 10.7853 92.7402 11.2134H92.7613V8.50586H93.8107V14.1159C93.8107 14.572 93.8217 14.9991 93.8498 15.3872H92.9163ZM92.7613 12.6116C92.7613 11.9515 92.3241 11.3884 91.6567 11.3884C90.8794 11.3884 90.4042 12.0775 90.4042 13.0477C90.4042 13.9989 90.8974 14.65 91.6357 14.65C92.295 14.65 92.7613 14.0769 92.7613 13.3978V12.6116ZM100.465 15.4942C99.0871 15.4942 98.1937 14.465 98.1937 13.0677C98.1937 11.6115 99.1062 10.5733 100.543 10.5733C101.902 10.5733 102.815 11.5534 102.815 12.9907C102.816 14.465 101.874 15.4942 100.465 15.4942ZM100.504 11.3394C99.7474 11.3394 99.2622 12.0475 99.2622 13.0377C99.2622 14.0089 99.7574 14.7171 100.494 14.7171C101.232 14.7171 101.726 13.9599 101.726 13.0177C101.728 12.0575 101.243 11.3394 100.504 11.3394ZM108.453 15.3872H107.404V12.6787C107.404 11.8445 107.084 11.4264 106.453 11.4264C105.831 11.4264 105.405 11.9605 105.405 12.5816V15.3872H104.356V12.0185C104.356 11.6015 104.346 11.1544 104.317 10.6693H105.239L105.288 11.3974H105.317C105.598 10.8933 106.171 10.5723 106.812 10.5723C107.802 10.5723 108.453 11.3294 108.453 12.5616V15.3872ZM115.508 11.4564H114.354V13.7469C114.354 14.33 114.556 14.621 114.964 14.621C115.149 14.621 115.305 14.601 115.43 14.572L115.459 15.3682C115.256 15.4462 114.983 15.4852 114.645 15.4852C113.819 15.4852 113.325 15.0291 113.325 13.8349V11.4564H112.636V10.6703H113.325V9.80611L114.354 9.49505V10.6693H115.508V11.4564ZM121.058 15.3872H120.011V12.6987C120.011 11.8545 119.692 11.4274 119.059 11.4274C118.516 11.4274 118.01 11.7965 118.01 12.5436V15.3872H116.962V8.50586H118.01V11.3394H118.031C118.361 10.8253 118.839 10.5723 119.449 10.5723C120.448 10.5723 121.058 11.3484 121.058 12.5816V15.3872ZM126.745 13.2808H123.598C123.618 14.1739 124.21 14.678 125.085 14.678C125.55 14.678 125.978 14.6 126.357 14.455L126.52 15.1831C126.073 15.3772 125.548 15.4742 124.937 15.4742C123.461 15.4742 122.588 14.542 122.588 13.0967C122.588 11.6505 123.482 10.5633 124.819 10.5633C126.024 10.5633 126.781 11.4564 126.781 12.8057C126.788 12.9649 126.775 13.1244 126.745 13.2808ZM125.783 12.5336C125.783 11.8055 125.416 11.2914 124.746 11.2914C124.144 11.2914 123.667 11.8155 123.599 12.5336H125.783Z" fill="#010212"/>
<path d="M59.5535 31.9154H57.4642L56.3197 28.3201H52.3417L51.2515 31.9154H49.2174L53.1596 19.6753H55.5939L59.5535 31.9154ZM55.9747 26.8117L54.9397 23.6155C54.8303 23.289 54.6242 22.5201 54.3224 21.3097H54.2856C54.1642 21.8303 53.9701 22.5992 53.7042 23.6155L52.6867 26.8117H55.9747ZM69.6716 27.3939C69.6716 28.8949 69.2641 30.0814 68.448 30.9524C67.7176 31.7278 66.8095 32.115 65.7267 32.115C64.5574 32.115 63.7165 31.6983 63.2059 30.8632V35.4941H61.2445V25.9903C61.2445 25.0476 61.2196 24.0809 61.1718 23.0895H62.8968L63.0063 24.4884H63.0431C63.6972 23.4344 64.6899 22.9073 66.022 22.9073C67.0634 22.9073 67.9328 23.3185 68.6284 24.1416C69.323 24.9667 69.6716 26.0501 69.6716 27.3939ZM67.6734 27.4656C67.6734 26.6066 67.4802 25.8984 67.092 25.3401C66.6679 24.7597 66.0984 24.4691 65.3845 24.4691C64.9005 24.4691 64.4608 24.631 64.0679 24.9501C63.6742 25.272 63.4166 25.6923 63.2961 26.2129C63.2423 26.4076 63.2117 26.608 63.205 26.8098V28.2824C63.205 28.9234 63.4019 29.4652 63.7956 29.9085C64.1894 30.35 64.7009 30.5716 65.3302 30.5716C66.0689 30.5716 66.6439 30.2856 67.0552 29.7181C67.4673 29.1488 67.6734 28.3983 67.6734 27.4656ZM79.8256 27.3939C79.8256 28.8949 79.4181 30.0814 78.602 30.9524C77.8706 31.7278 76.9635 32.115 75.8798 32.115C74.7105 32.115 73.8696 31.6983 73.359 30.8632V35.4941H71.3975V25.9903C71.3975 25.0476 71.3727 24.0809 71.3249 23.0895H73.0499L73.1593 24.4884H73.1961C73.8493 23.4344 74.842 22.9073 76.1751 22.9073C77.2156 22.9073 78.085 23.3185 78.7823 24.1416C79.476 24.9667 79.8256 26.0501 79.8256 27.3939ZM77.8265 27.4656C77.8265 26.6066 77.6324 25.8984 77.2441 25.3401C76.82 24.7597 76.2524 24.4691 75.5384 24.4691C75.0545 24.4691 74.6148 24.631 74.2201 24.9501C73.8263 25.272 73.5697 25.6923 73.4491 26.2129C73.3893 26.4557 73.3571 26.6535 73.3571 26.8098V28.2824C73.3571 28.9234 73.5549 29.4652 73.9468 29.9085C74.3406 30.349 74.8521 30.5716 75.4832 30.5716C76.2229 30.5716 76.7979 30.2856 77.2082 29.7181C77.6204 29.1488 77.8265 28.3983 77.8265 27.4656ZM91.1784 28.482C91.1784 29.524 90.814 30.3711 90.09 31.0251C89.2933 31.7388 88.181 32.0966 86.755 32.0966C85.4376 32.0966 84.3814 31.8427 83.5847 31.3341L84.0383 29.6997C84.8985 30.2092 85.8433 30.4631 86.8719 30.4631C87.6115 30.4631 88.1865 30.2957 88.5969 29.9637C89.0081 29.6307 89.216 29.1856 89.216 28.63C89.216 28.1324 89.044 27.7158 88.7063 27.3764C88.3669 27.0379 87.8057 26.7225 87.0172 26.4327C84.8736 25.6335 83.8009 24.4645 83.8009 22.9267C83.8009 21.9223 84.18 21.1 84.9362 20.4571C85.6924 19.8151 86.6952 19.4941 87.9427 19.4941C89.0569 19.4941 89.9851 19.6882 90.722 20.0754L90.2299 21.674C89.5362 21.2987 88.7533 21.1111 87.8774 21.1111C87.1856 21.1111 86.6428 21.2812 86.2546 21.6197C85.928 21.9223 85.7624 22.2911 85.7624 22.7289C85.7624 23.2118 85.951 23.6128 86.3263 23.9273C86.652 24.2171 87.2463 24.5325 88.1056 24.871C89.1599 25.2959 89.9345 25.7908 90.4304 26.3592C90.93 26.9276 91.1784 27.6367 91.1784 28.482ZM97.68 24.5611H95.518V28.8462C95.518 29.9361 95.8989 30.4797 96.6625 30.4797C97.013 30.4797 97.3037 30.4502 97.5337 30.3886L97.588 31.8777C97.2016 32.0221 96.6928 32.0947 96.0626 32.0947C95.288 32.0947 94.6826 31.8584 94.2456 31.3856C93.8105 30.9129 93.5915 30.121 93.5915 29.0062V24.5574H92.3035V23.0858H93.5915V21.4698L95.518 20.8885V23.0858H97.68V24.5611ZM107.415 27.4298C107.415 28.7864 107.027 29.9002 106.252 30.7712C105.442 31.668 104.364 32.115 103.02 32.115C101.722 32.115 100.691 31.6854 99.922 30.8273C99.1529 29.9674 98.7683 28.8839 98.7683 27.5769C98.7683 26.2092 99.1658 25.089 99.9579 24.218C100.752 23.3461 101.821 22.9101 103.165 22.9101C104.46 22.9101 105.501 23.3405 106.288 24.1996C107.041 25.0329 107.415 26.109 107.415 27.4298ZM105.382 27.4748C105.382 26.6664 105.207 25.9729 104.857 25.3925C104.446 24.6917 103.857 24.3412 103.094 24.3412C102.308 24.3412 101.706 24.6917 101.296 25.3925C100.944 25.9729 100.769 26.6783 100.769 27.5116C100.769 28.321 100.944 29.0163 101.296 29.5949C101.72 30.2957 102.311 30.6461 103.078 30.6461C103.827 30.6461 104.415 30.2883 104.84 29.5774C105.201 28.9832 105.382 28.2851 105.382 27.4748ZM113.794 24.814C113.59 24.7772 113.383 24.759 113.175 24.7597C112.485 24.7597 111.952 25.0191 111.576 25.5415C111.251 26.0014 111.087 26.5827 111.087 27.2844V31.9154H109.126V25.8689C109.127 24.9424 109.108 24.016 109.069 23.0904H110.777L110.849 24.779H110.903C111.111 24.1987 111.437 23.7305 111.884 23.3801C112.293 23.0739 112.79 22.9081 113.301 22.9073C113.483 22.9073 113.646 22.9202 113.792 22.9432L113.794 24.814ZM122.566 27.0849C122.571 27.3829 122.547 27.6808 122.494 27.9742H116.61C116.632 28.8462 116.917 29.5139 117.464 29.9738C117.959 30.384 118.601 30.59 119.388 30.59C120.259 30.59 121.054 30.4521 121.769 30.1734L122.076 31.5337C121.241 31.8979 120.255 32.0791 119.117 32.0791C117.748 32.0791 116.673 31.6763 115.891 30.8724C115.111 30.0676 114.72 28.986 114.72 27.6312C114.72 26.3012 115.084 25.1929 115.811 24.309C116.573 23.3654 117.602 22.8935 118.898 22.8935C120.17 22.8935 121.133 23.3654 121.788 24.309C122.305 25.0568 122.566 25.9839 122.566 27.0849ZM120.695 26.5762C120.709 25.994 120.58 25.4928 120.315 25.0688C119.975 24.5224 119.453 24.2502 118.752 24.2502C118.111 24.2502 117.589 24.516 117.191 25.0494C116.865 25.4734 116.671 25.983 116.611 26.5744L120.695 26.5762Z" fill="#010212"/>
<defs>
<linearGradient id="paint0_linear_6_84" x1="29.2174" y1="8" x2="29.2174" y2="36" gradientUnits="userSpaceOnUse">
<stop stop-color="#2AC9FA"/>
<stop offset="1" stop-color="#1F65EB"/>
</linearGradient>
</defs>
</svg>
