<svg width="40" height="41" viewBox="0 0 40 41" fill="none" xmlns="http://www.w3.org/2000/svg">
<rect y="0.5" width="40" height="40" rx="8" fill="#D2B161"/>
<path d="M17.7583 22.7498L19.0083 23.9998L22.3416 20.6665" stroke="white" stroke-width="1.25" stroke-linecap="round" stroke-linejoin="round"/>
<path d="M18.3337 15.4998H21.667C23.3337 15.4998 23.3337 14.6665 23.3337 13.8332C23.3337 12.1665 22.5003 12.1665 21.667 12.1665H18.3337C17.5003 12.1665 16.667 12.1665 16.667 13.8332C16.667 15.4998 17.5003 15.4998 18.3337 15.4998Z" stroke="white" stroke-width="1.25" stroke-miterlimit="10" stroke-linecap="round" stroke-linejoin="round"/>
<path d="M23.3333 13.8501C26.1083 14.0001 27.5 15.0251 27.5 18.8334V23.8334C27.5 27.1668 26.6667 28.8334 22.5 28.8334H17.5C13.3333 28.8334 12.5 27.1668 12.5 23.8334V18.8334C12.5 15.0334 13.8917 14.0001 16.6667 13.8501" stroke="white" stroke-width="1.25" stroke-miterlimit="10" stroke-linecap="round" stroke-linejoin="round"/>
</svg>
