<svg width="97" height="96" viewBox="0 0 97 96" fill="none" xmlns="http://www.w3.org/2000/svg">
<path d="M46.9001 9C46.5023 9 46.1207 9.15804 45.8394 9.43934C45.5581 9.72064 45.4001 10.1022 45.4001 10.5V15.06C38.247 15.3427 31.3244 17.6673 25.4506 21.7592C19.5767 25.8511 14.9971 31.5392 12.2531 38.151C9.41612 45.0038 8.6743 52.5439 10.1214 59.8182C11.5684 67.0925 15.1394 73.7746 20.3831 79.02C25.6285 84.2625 32.3103 87.8326 39.584 89.2791C46.8577 90.7256 54.3969 89.9837 61.2491 87.147C67.8609 84.403 73.549 79.8234 77.6409 73.9495C81.7327 68.0756 84.0574 61.153 84.3401 54H88.9001C89.2979 54 89.6794 53.842 89.9607 53.5607C90.2421 53.2794 90.4001 52.8978 90.4001 52.5C90.4001 28.494 70.9061 9 46.9001 9ZM48.4001 12.15C58.5874 12.5151 68.2583 16.7254 75.4665 23.9336C82.6747 31.1417 86.885 40.8127 87.2501 51H83.1761C83.0034 50.9695 82.8267 50.9695 82.6541 51H72.0941C71.7334 44.8336 69.1213 39.0143 64.7536 34.6465C60.3858 30.2788 54.5665 27.6667 48.4001 27.306V16.734C48.4259 16.575 48.4259 16.413 48.4001 16.254V12.15ZM45.4001 18.054V28.5C45.4001 28.8978 45.5581 29.2794 45.8394 29.5607C46.1207 29.842 46.5023 30 46.9001 30C59.3441 30 69.4001 40.056 69.4001 52.5C69.4001 52.8978 69.5581 53.2794 69.8394 53.5607C70.1207 53.842 70.5023 54 70.9001 54H81.3401C81.0546 60.6893 78.8276 67.1508 74.931 72.5956C71.0345 78.0403 65.6369 82.2328 59.3974 84.6611C53.1578 87.0894 46.3462 87.6485 39.7942 86.2701C33.2422 84.8917 27.2333 81.6355 22.5011 76.899C17.6757 72.0741 14.3898 65.9264 13.059 59.2337C11.7282 52.5409 12.4125 45.6038 15.0251 39.3C17.5393 33.2337 21.7336 28.0116 27.1146 24.2479C32.4956 20.4841 38.8395 18.3352 45.4001 18.054ZM46.9001 36C42.526 36.0063 38.3328 37.7468 35.2398 40.8397C32.1469 43.9327 30.4064 48.1259 30.4001 52.5C30.4001 61.596 37.8041 69 46.9001 69C55.9961 69 63.4001 61.596 63.4001 52.5C63.4001 43.404 55.9961 36 46.9001 36ZM46.9001 39C54.3731 39 60.4001 45.027 60.4001 52.5C60.4001 59.973 54.3731 66 46.9001 66C45.1264 66.0032 43.3694 65.6561 41.7301 64.9788C40.0908 64.3015 38.6013 63.3072 37.3471 62.053C36.0929 60.7988 35.0986 59.3093 34.4213 57.67C33.744 56.0306 33.3969 54.2737 33.4001 52.5C33.4001 45.027 39.4271 39 46.9001 39ZM46.9001 42C44.1173 42.0063 41.4502 43.1146 39.4825 45.0824C37.5147 47.0501 36.4064 49.7172 36.4001 52.5C36.4001 58.281 41.1191 63 46.9001 63C52.6811 63 57.4001 58.281 57.4001 52.5C57.4001 46.719 52.6811 42 46.9001 42ZM46.9001 45C51.0611 45 54.4001 48.339 54.4001 52.5C54.4001 56.661 51.0611 60 46.9001 60C45.9143 60.0032 44.9376 59.8113 44.0262 59.4356C43.1148 59.0598 42.2868 58.5074 41.5897 57.8104C40.8927 57.1133 40.3403 56.2852 39.9645 55.3739C39.5887 54.4625 39.3969 53.4858 39.4001 52.5C39.4001 48.339 42.7391 45 46.9001 45Z" fill="#060B56"/>
<path d="M46.9001 36C42.526 36.0063 38.3328 37.7468 35.2398 40.8397C32.1469 43.9327 30.4064 48.1259 30.4001 52.5C30.4001 61.596 37.8041 69 46.9001 69C55.9961 69 63.4001 61.596 63.4001 52.5C63.4001 43.404 55.9961 36 46.9001 36ZM46.9001 39C54.3731 39 60.4001 45.027 60.4001 52.5C60.4001 59.973 54.3731 66 46.9001 66C45.1263 66.0032 43.3694 65.6561 41.7301 64.9788C40.0908 64.3015 38.6013 63.3072 37.3471 62.053C36.0929 60.7988 35.0986 59.3093 34.4213 57.67C33.7439 56.0306 33.3969 54.2737 33.4001 52.5C33.4001 45.027 39.4271 39 46.9001 39ZM46.9001 42C44.1173 42.0063 41.4502 43.1146 39.4825 45.0824C37.5147 47.0501 36.4064 49.7172 36.4001 52.5C36.4001 58.281 41.1191 63 46.9001 63C52.6811 63 57.4001 58.281 57.4001 52.5C57.4001 46.719 52.6811 42 46.9001 42ZM46.9001 45C51.0611 45 54.4001 48.339 54.4001 52.5C54.4001 56.661 51.0611 60 46.9001 60C45.9143 60.0032 44.9376 59.8113 44.0262 59.4356C43.1148 59.0598 42.2868 58.5074 41.5897 57.8104C40.8926 57.1133 40.3403 56.2852 39.9645 55.3739C39.5887 54.4625 39.3969 53.4858 39.4001 52.5C39.4001 48.339 42.7391 45 46.9001 45Z" fill="#1781F8"/>
</svg>
