<svg width="97" height="96" viewBox="0 0 97 96" fill="none" xmlns="http://www.w3.org/2000/svg">
<g clip-path="url(#clip0_1_272)">
<path d="M24.6183 48.435C24.7533 48.315 24.9184 48.15 25.0533 48C24.9184 47.865 24.7684 47.7 24.6334 47.565C24.1383 47.085 23.5233 46.485 23.3433 45.63C23.1333 44.775 23.4333 43.935 23.6583 43.29C23.7183 43.125 23.7934 42.93 23.8384 42.765C23.6733 42.705 23.4783 42.615 23.3134 42.57C22.6383 42.345 21.8284 42.06 21.2883 41.37C20.7483 40.68 20.6434 39.825 20.5683 39.135C20.5534 38.955 20.5233 38.73 20.4933 38.58C20.3284 38.58 20.1033 38.61 19.9534 38.625C19.2484 38.7 18.3933 38.805 17.5983 38.415C16.8333 38.055 16.3684 37.32 16.0084 36.72C15.9184 36.57 15.7983 36.39 15.6933 36.24C15.5434 36.315 15.3783 36.435 15.2283 36.525C14.6433 36.885 13.8933 37.365 13.0084 37.365C12.1083 37.365 11.3583 36.885 10.7733 36.525C10.7433 36.495 10.6983 36.48 10.6683 36.465C10.4283 36.615 10.1733 36.765 9.93335 36.93C9.90335 36.96 9.87335 36.96 9.84335 36.975C9.49835 37.515 9.07835 38.085 8.40335 38.415C7.60835 38.805 6.73835 38.7 6.04835 38.625C5.88335 38.61 5.65835 38.58 5.50835 38.58C5.47835 38.745 5.44835 38.97 5.43335 39.12C5.35835 39.825 5.25335 40.68 4.71335 41.37C4.17335 42.06 3.36335 42.345 2.68835 42.57C2.52335 42.615 2.32835 42.705 2.16335 42.765C2.20835 42.93 2.29835 43.125 2.34335 43.29C2.58335 43.95 2.86835 44.775 2.67335 45.63C2.47835 46.455 1.86335 47.07 1.38335 47.565C1.21835 47.7 1.03835 47.865 0.93335 48C1.03835 48.15 1.21835 48.3 1.35335 48.435C1.83335 48.93 2.44835 49.53 2.64335 50.37C2.83835 51.225 2.55335 52.065 2.31335 52.725C2.26835 52.875 2.17835 53.07 2.13335 53.235C2.29835 53.295 2.49335 53.385 2.65835 53.43C3.33335 53.67 4.14335 53.94 4.68335 54.63C5.22335 55.32 5.32835 56.175 5.40335 56.88C5.41835 57.045 5.44835 57.27 5.47835 57.435C5.64335 57.42 5.86835 57.39 6.01835 57.375C6.31835 57.345 6.67835 57.315 7.02335 57.315C7.47335 57.315 7.93835 57.36 8.37335 57.585C9.03335 57.9 9.45335 58.485 9.79835 59.01C9.81335 59.025 9.82835 59.025 9.84335 59.025C10.0983 59.205 10.3683 59.37 10.6383 59.55C10.6683 59.52 10.7133 59.505 10.7433 59.49C11.3283 59.1 12.0783 58.65 12.9783 58.65C13.8483 58.65 14.5983 59.115 15.1983 59.49C15.3483 59.565 15.5133 59.685 15.6633 59.76C15.7683 59.61 15.8883 59.43 15.9783 59.28C16.3383 58.71 16.7884 57.96 17.5683 57.585C18.3633 57.195 19.2333 57.3 19.9233 57.375C20.0884 57.39 20.3134 57.42 20.4634 57.435C20.4934 57.255 20.5233 57.03 20.5383 56.88C20.6133 56.175 20.7183 55.32 21.2584 54.63C21.7983 53.94 22.6083 53.67 23.2833 53.43C23.4483 53.385 23.6433 53.31 23.8083 53.235C23.7633 53.07 23.6733 52.875 23.6283 52.71C23.3883 52.05 23.1033 51.225 23.3134 50.37C23.5233 49.53 24.1083 48.945 24.6183 48.435ZM12.9933 53.625C9.88835 53.625 7.35335 51.105 7.35335 48C7.35335 44.895 9.88835 42.375 12.9933 42.375C16.0983 42.375 18.6183 44.895 18.6183 48C18.6183 51.105 16.0983 53.625 12.9933 53.625ZM15.5733 32.385L16.0084 32.19C24.7234 28.38 36.1084 26.28 48.0933 26.28C56.1483 26.28 64.1584 27.27 71.2533 29.13L71.7183 29.25L71.0733 31.71L70.6084 31.59C63.7234 29.775 55.9384 28.83 48.0933 28.83C36.4534 28.83 25.4283 30.855 17.0283 34.53L16.5933 34.725L15.5733 32.385ZM48.0933 69.72C36.1084 69.72 24.7084 67.62 16.0084 63.825L15.5733 63.63L16.5933 61.29L17.0283 61.485C25.4283 65.145 36.4534 67.17 48.0933 67.17C56.0134 67.17 63.7984 66.21 70.6084 64.41L71.0733 64.29L71.7334 66.75L71.2683 66.87C64.2483 68.745 56.2383 69.72 48.0933 69.72Z" fill="#060B56"/>
<path d="M96.2583 47.355C95.5833 46.74 94.8033 46.05 94.6083 45.045C94.3983 44.025 94.8633 43.065 95.2683 42.24C95.3733 42.015 95.5383 41.685 95.6133 41.445C95.3883 41.34 95.0283 41.205 94.7883 41.13C93.9183 40.83 92.9433 40.47 92.3583 39.615C91.7733 38.76 91.8333 37.71 91.8783 36.795C91.8933 36.54 91.9083 36.15 91.8933 35.895C91.6383 35.88 91.2783 35.91 91.0233 35.91C90.0933 35.97 89.0433 36.015 88.1883 35.445C87.3333 34.875 86.9883 33.885 86.6883 33.015C86.5983 32.775 86.4633 32.415 86.3583 32.175C86.1333 32.265 85.8033 32.43 85.5633 32.535C84.7383 32.94 83.7783 33.375 82.7583 33.18C81.7533 32.985 81.0633 32.22 80.4633 31.53C80.2683 31.335 79.9983 31.035 79.8033 30.855C79.6083 31.035 79.3383 31.335 79.1583 31.53C79.0533 31.665 78.9183 31.785 78.8133 31.92L78.7233 32.01C78.2133 32.535 77.6433 33.03 76.8633 33.18C75.8433 33.39 74.8983 32.94 74.0583 32.535C73.8333 32.43 73.5033 32.265 73.2633 32.175C73.1583 32.415 73.0233 32.775 72.9483 33.015C72.6483 33.87 72.2883 34.86 71.4333 35.445C70.5783 36.015 69.5283 35.97 68.6133 35.91C68.3583 35.91 67.9683 35.88 67.7133 35.895C67.6983 36.15 67.7283 36.54 67.7433 36.795C67.7883 37.725 67.8333 38.76 67.2633 39.615C66.6933 40.47 65.7033 40.83 64.8333 41.13C64.5933 41.205 64.2333 41.34 64.0083 41.445C64.0833 41.685 64.2483 42.015 64.3533 42.24C64.7583 43.065 65.1933 44.025 65.0133 45.045C64.8033 46.05 64.0383 46.74 63.3483 47.355C63.1533 47.535 62.8533 47.805 62.6733 48C62.8533 48.195 63.1533 48.465 63.3483 48.66C64.0383 49.26 64.8033 49.95 65.0133 50.955C65.2083 51.975 64.7583 52.935 64.3533 53.76C64.2483 53.985 64.0833 54.33 64.0083 54.555C64.2333 54.66 64.5933 54.795 64.8333 54.885C65.6883 55.185 66.6783 55.53 67.2633 56.385C67.8333 57.24 67.7883 58.305 67.7283 59.22C67.7283 59.46 67.6983 59.835 67.7133 60.09C67.9683 60.105 68.3583 60.09 68.6133 60.075C69.5433 60.03 70.5783 59.97 71.4333 60.54C72.2883 61.11 72.6483 62.1 72.9483 62.985C73.0233 63.225 73.1583 63.57 73.2633 63.81C73.5033 63.735 73.8333 63.57 74.0583 63.465C74.7633 63.135 75.5283 62.76 76.3533 62.76C76.5333 62.76 76.6833 62.775 76.8633 62.805C77.8683 63 78.5733 63.78 79.1733 64.455C79.3533 64.665 79.6233 64.965 79.8183 65.13C80.0133 64.965 80.2833 64.665 80.4783 64.455C81.0783 63.78 81.7683 63 82.7733 62.805C83.7933 62.595 84.7533 63.06 85.5783 63.465C85.8183 63.57 86.1483 63.735 86.3733 63.81C86.4783 63.57 86.6133 63.225 86.7033 62.985C87.0033 62.115 87.3483 61.125 88.2033 60.555C89.0583 59.97 90.1233 60.03 91.0383 60.075C91.2933 60.09 91.6533 60.105 91.9083 60.09C91.9233 59.835 91.9083 59.445 91.8933 59.22C91.8483 58.29 91.7883 57.24 92.3733 56.385C92.9433 55.53 93.9183 55.185 94.8033 54.885C95.0433 54.795 95.4033 54.66 95.6283 54.555C95.5533 54.33 95.3883 53.985 95.2833 53.76C94.8783 52.935 94.4283 51.975 94.6233 50.955C94.8183 49.95 95.5983 49.26 96.2733 48.66C96.4833 48.465 96.7833 48.195 96.9483 48C96.7683 47.805 96.4683 47.535 96.2583 47.355ZM79.8033 56.715C75.0033 56.715 71.0883 52.8 71.0883 48C71.0883 43.2 75.0033 39.285 79.8033 39.285C84.6183 39.285 88.5183 43.2 88.5183 48C88.5183 52.8 84.6183 56.715 79.8033 56.715Z" fill="#1781F8"/>
</g>
<defs>
<clipPath id="clip0_1_272">
<rect width="96" height="96" fill="white" transform="translate(0.93335)"/>
</clipPath>
</defs>
</svg>
