<svg width="24" height="24" viewBox="0 0 24 24" fill="none" xmlns="http://www.w3.org/2000/svg">
<path d="M23.85 18.3235C23.8219 18.5157 23.775 18.7032 23.7047 18.8485C23.5781 19.1063 23.4563 19.1297 22.9781 19.1063C22.3594 19.0782 21.4734 19.1063 20.5359 19.1438C20.5359 19.4016 20.5453 19.5235 20.5453 19.5235C20.6063 20.2313 20.925 20.2547 21.0516 20.2547H23.0672C23.2453 20.2547 23.4094 20.2547 23.5359 20.1704C23.7 20.0625 23.7703 19.7485 23.8313 19.2C23.8406 19.1204 23.8453 19.0172 23.85 18.8954V18.8907C23.85 18.8532 23.8547 18.8063 23.8547 18.7547V18.7032C23.8547 18.5766 23.8547 18.436 23.85 18.3235ZM0.140628 18.3235C0.168753 18.5157 0.215628 18.7032 0.285941 18.8485C0.412503 19.1063 0.534378 19.1297 1.0125 19.1063C1.63125 19.0782 2.51719 19.1063 3.45469 19.1438C3.45469 19.4016 3.44532 19.5235 3.44532 19.5235C3.38438 20.2313 3.06563 20.2547 2.93907 20.2547H0.923441C0.745316 20.2547 0.595316 20.2547 0.454691 20.1704C0.285941 20.0719 0.220316 19.7485 0.159378 19.2C0.150003 19.1204 0.145316 19.0172 0.140628 18.8954V18.8907C0.140628 18.8532 0.135941 18.8063 0.135941 18.7547V18.7032C0.140628 18.5766 0.140628 18.436 0.140628 18.3235Z" fill="white"/>
<path d="M24 13.9031C24 12.4641 23.8125 11.0578 23.7375 10.9031C23.6812 10.7906 23.3203 10.4953 22.5 9.93752C21.6703 9.37034 21.6891 9.45471 21.5391 9.0844C21.675 9.04221 21.8062 8.96252 21.8859 8.95315C22.0641 8.9344 22.0734 9.10315 22.4437 9.10315C22.8141 9.10315 23.6156 9.00471 23.7797 8.84065C23.9437 8.67659 23.9953 8.62034 23.9953 8.47502C23.9953 8.32971 23.9109 8.02971 23.7516 7.85159C23.5922 7.67346 22.9125 7.5844 22.5141 7.53284C22.1156 7.48127 22.0594 7.53284 21.9562 7.59846C21.7922 7.70159 21.7828 8.64377 21.7828 8.64377L21.3937 8.65315C21.1406 8.02971 20.7891 6.77346 20.2406 5.7844C19.6406 4.70627 19.0125 4.36877 18.75 4.2844C18.4922 4.20471 18.2578 4.14846 16.5 3.97034C14.7047 3.78284 13.275 3.7594 12 3.7594C10.725 3.7594 9.29531 3.78752 7.5 3.97034C5.74219 4.15315 5.50781 4.20471 5.25 4.2844C4.99219 4.36409 4.35938 4.70627 3.75937 5.7844C3.21094 6.77346 2.85938 8.02971 2.60625 8.65315L2.21719 8.64377C2.21719 8.64377 2.2125 7.70159 2.04375 7.59846C1.94062 7.53284 1.88438 7.47659 1.48594 7.53284C1.0875 7.58909 0.407813 7.67346 0.248438 7.85159C0.0890625 8.02971 0.0046875 8.32971 0.0046875 8.47502C0.0046875 8.62034 0.05625 8.68127 0.220312 8.84065C0.384375 9.00471 1.18594 9.10315 1.55625 9.10315C1.92656 9.10315 1.93594 8.9344 2.11406 8.95315C2.19375 8.96252 2.32969 9.04221 2.46094 9.0844C2.30625 9.45471 2.32969 9.37034 1.5 9.93752C0.679688 10.5 0.314063 10.7906 0.2625 10.9031C0.1875 11.0578 0 12.4641 0 13.9031C0 15.3422 0.103125 16.636 0.103125 17.0953C0.103125 17.2875 0.103125 17.625 0.145312 17.9485C0.173437 18.1406 0.215625 18.3282 0.290625 18.4735C0.417187 18.7313 0.534375 18.7547 1.01719 18.7313C1.63594 18.7032 2.53125 18.7313 3.45469 18.7688C4.07344 18.7922 4.70625 18.8156 5.26875 18.8297C6.675 18.8578 6.2625 18.6235 6.8625 18.6328C7.4625 18.6422 9.82969 18.7406 11.9953 18.7406C14.1609 18.7406 16.5328 18.6422 17.1281 18.6328C17.7281 18.6235 17.3156 18.8578 18.7219 18.8297C19.2844 18.8203 19.9172 18.7922 20.5359 18.7688C21.4594 18.736 22.3594 18.7032 22.9734 18.7313C23.4563 18.7547 23.5734 18.7313 23.7 18.4735C23.7703 18.3282 23.8172 18.1406 23.8453 17.9485C23.8922 17.625 23.8875 17.2875 23.8875 17.0953C23.8969 16.6406 24 15.3422 24 13.9031ZM4.04062 6.80627C4.26562 6.28127 4.94063 5.22659 5.26875 5.03909C5.34844 4.99221 6.04688 4.7719 7.79531 4.65471C9.40312 4.5469 11.1797 4.50471 12.0047 4.50471C12.8297 4.50471 14.6062 4.5469 16.2141 4.65471C17.9578 4.7719 18.6656 4.98752 18.7406 5.03909C19.1625 5.32971 19.7437 6.28127 19.9688 6.80627C20.1938 7.33127 20.4937 8.36252 20.4375 8.50315C20.3813 8.64377 20.4937 8.71409 19.7344 8.65315C18.9797 8.5969 14.2406 8.53596 12.0094 8.53596C9.78281 8.53596 5.04375 8.5969 4.28438 8.65315C3.525 8.7094 3.6375 8.64377 3.58125 8.50315C3.51562 8.36252 3.81562 7.33596 4.04062 6.80627ZM5.76562 12.675C5.42812 12.7594 5.22656 12.9422 4.80469 12.9375C4.38281 12.9375 3.24375 12.7453 3 12.736C2.75625 12.7266 2.54063 12.9 2.41406 12.9328C2.2875 12.9656 2.03906 12.8766 1.66406 12.7594C1.28906 12.6422 1.06875 12.675 0.946875 12.1641C0.820313 11.6578 0.946875 10.9313 0.946875 10.9313C1.75781 10.8938 2.54063 10.9688 4.00781 11.3813C5.475 11.7938 6.29062 12.586 6.29062 12.586C6.29062 12.586 6.10313 12.5906 5.76562 12.675ZM16.7906 16.3688C16.1203 16.4578 13.3125 16.4813 12 16.4813C10.6875 16.4813 7.87969 16.4531 7.20938 16.3688C6.525 16.2797 5.63438 15.4594 6.24844 14.8078C7.07812 13.9219 6.92344 13.95 8.80781 13.7063C10.4391 13.4953 11.6766 13.486 12 13.486C12.3188 13.486 13.5609 13.5 15.1922 13.7063C17.0766 13.95 16.9219 13.9219 17.7516 14.8078C18.3656 15.4594 17.475 16.2797 16.7906 16.3688ZM23.0531 12.1688C22.9266 12.675 22.7109 12.6469 22.3359 12.7641C21.9609 12.8813 21.7125 12.9656 21.5859 12.9375C21.4594 12.9094 21.2437 12.736 21 12.7406C20.7563 12.75 19.6172 12.9422 19.1953 12.9422C18.7734 12.9422 18.5719 12.7641 18.2344 12.6797C17.8969 12.5953 17.7094 12.5953 17.7094 12.5953C17.7094 12.5953 18.5203 11.7985 19.9922 11.3906C21.4594 10.9781 22.2422 10.9031 23.0531 10.9406C23.0531 10.9313 23.1797 11.6578 23.0531 12.1688Z" fill="white"/>
</svg>
