<svg width="126" height="120" viewBox="0 0 126 120" fill="none" xmlns="http://www.w3.org/2000/svg">
<path d="M0 90.541C0 85.4092 2.99104 83.1219 6.86164 83.1219C9.1777 83.1219 11.0251 84.0308 12.1687 85.7606C13.3123 84.0308 15.1598 83.1219 17.4759 83.1219C21.3464 83.1219 24.3375 85.4092 24.3375 90.541V102.68H19.5873V90.541C19.5873 88.3121 18.5023 87.52 17.0658 87.52C15.6582 87.52 14.5434 88.3121 14.5434 90.541V102.68H9.79325V90.541C9.79325 88.3121 8.67934 87.52 7.27167 87.52C5.83519 87.52 4.75016 88.3121 4.75016 90.541V102.68H0V90.541Z" fill="white"/>
<path d="M27.36 91.5377C27.36 86.3187 30.3213 83.1219 35.7753 83.1219C41.2582 83.1219 44.25 86.3187 44.25 91.5377V102.68H39.499V97.2256H31.993V102.68H27.36V91.5377ZM39.499 93.1206V91.5377C39.499 88.899 38.3554 87.52 35.7464 87.52C33.1663 87.52 31.993 88.899 31.993 91.5377V93.1206H39.499Z" fill="white"/>
<path d="M47.7412 83.5029H55.5112C60.584 83.5029 62.8415 86.259 62.8415 90.0708C62.8415 92.7692 61.6988 94.9678 59.235 95.9934L63.5463 102.679H57.9156L54.5145 96.6688H52.4914V102.679H47.7412V83.5029ZM55.5699 92.2708C57.4758 92.2708 58.0328 91.3318 58.0328 90.0708C58.0328 88.8105 57.4758 87.9016 55.5699 87.9016H52.4914V92.2708H55.5699Z" fill="white"/>
<path d="M64.9253 93.0912C64.9253 87.3443 69.1475 83.1213 75.1292 83.1213C81.1115 83.1213 85.3338 87.3443 85.3338 93.0912C85.3338 98.8381 81.1115 103.061 75.1292 103.061C69.1475 103.061 64.9253 98.8381 64.9253 93.0912ZM80.5246 93.0912C80.5246 89.8663 78.3842 87.52 75.1292 87.52C71.8754 87.52 69.7338 89.8663 69.7338 93.0912C69.7338 96.3167 71.8754 98.6623 75.1292 98.6623C78.3842 98.6623 80.5246 96.3167 80.5246 93.0912Z" fill="white"/>
<path d="M87.3292 93.0912C87.3292 87.3443 91.5522 83.1213 97.5338 83.1213C103.515 83.1213 107.738 87.3443 107.738 93.0912C107.738 98.8381 103.515 103.061 97.5338 103.061C91.5522 103.061 87.3292 98.8381 87.3292 93.0912ZM102.929 93.0912C102.929 89.8663 100.789 87.52 97.5338 87.52C94.2794 87.52 92.1384 89.8663 92.1384 93.0912C92.1384 96.3167 94.2794 98.6623 97.5338 98.6623C100.789 98.6623 102.929 96.3167 102.929 93.0912Z" fill="white"/>
<path d="M110.702 83.5029H124.63V87.9016H115.452V90.8918H122.929V94.9967H115.452V102.679H110.702V83.5029Z" fill="white"/>
<path d="M4.80655 117.351H4.62819C3.1672 117.351 2.03234 116.948 1.2201 116.14C0.408735 115.333 0.00305176 114.209 0.00305176 112.768C0.00305176 111.331 0.40786 110.205 1.21748 109.39C2.0271 108.574 3.14185 108.167 4.56261 108.167C5.99999 108.167 7.11912 108.571 7.92089 109.378C8.72174 110.185 9.1222 111.315 9.1222 112.768C9.1222 113.765 8.90974 114.624 8.48482 115.344C8.05899 116.065 7.44613 116.607 6.64699 116.972L8.43407 118.966H6.25442L4.80655 117.351ZM4.56261 109.823C3.86579 109.823 3.32633 110.08 2.94163 110.594C2.55781 111.11 2.36633 111.834 2.36633 112.768C2.36633 113.717 2.55431 114.446 2.93026 114.95C3.30622 115.454 3.85005 115.706 4.56261 115.706C5.26382 115.706 5.80589 115.449 6.18972 114.935C6.57354 114.42 6.76502 113.698 6.76502 112.768C6.76502 111.834 6.57354 111.11 6.18972 110.594C5.80589 110.08 5.26382 109.823 4.56261 109.823Z" fill="#1781F8"/>
<path d="M10.6833 114.602V110.541H12.8211V111.207C12.8211 111.567 12.8193 112.02 12.815 112.563C12.8115 113.107 12.8089 113.471 12.8089 113.652C12.8089 114.187 12.8228 114.572 12.8508 114.807C12.8779 115.043 12.926 115.214 12.9933 115.321C13.0799 115.459 13.1935 115.567 13.3343 115.641C13.4751 115.717 13.6359 115.753 13.8187 115.753C14.262 115.753 14.6099 115.584 14.8635 115.243C15.1171 114.903 15.243 114.43 15.243 113.825V110.541H17.3684V117.191H15.243V116.23C14.922 116.618 14.5828 116.904 14.2253 117.087C13.8668 117.271 13.4715 117.363 13.0405 117.363C12.2729 117.363 11.6879 117.128 11.2858 116.657C10.8845 116.186 10.6833 115.501 10.6833 114.602Z" fill="#1781F8"/>
<path d="M25.6388 113.397V117.191H23.4959V116.205C23.2108 116.609 22.89 116.904 22.5341 117.087C22.1783 117.271 21.7446 117.363 21.234 117.363C20.545 117.363 19.9864 117.162 19.5562 116.76C19.1269 116.359 18.9127 115.837 18.9127 115.196C18.9127 114.416 19.1803 113.844 19.717 113.481C20.253 113.116 21.095 112.934 22.243 112.934H23.4959V112.768C23.4959 112.431 23.3629 112.186 23.098 112.029C22.8331 111.873 22.4187 111.794 21.8574 111.794C21.4019 111.794 20.9787 111.839 20.587 111.931C20.1944 112.022 19.8308 112.159 19.4941 112.34V110.719C19.9488 110.609 20.406 110.525 20.8659 110.468C21.3249 110.41 21.7839 110.381 22.243 110.381C23.4426 110.381 24.3081 110.618 24.8406 111.091C25.373 111.564 25.6388 112.332 25.6388 113.397ZM22.3916 114.199C21.9483 114.199 21.6152 114.274 21.3914 114.425C21.1675 114.574 21.0557 114.796 21.0557 115.089C21.0557 115.359 21.1457 115.569 21.3258 115.721C21.5059 115.873 21.756 115.95 22.0768 115.95C22.4764 115.95 22.813 115.806 23.0858 115.519C23.3595 115.233 23.4959 114.873 23.4959 114.442V114.199H22.3916Z" fill="#1781F8"/>
<path d="M27.6165 107.953H29.7419V117.192H27.6165V107.953Z" fill="#1781F8"/>
<path d="M31.7834 107.953H33.909V109.687H31.7834V107.953ZM31.7834 110.542H33.909V117.191H31.7834V110.542Z" fill="#1781F8"/>
<path d="M38.2731 108.653V110.542H40.4632V112.062H38.2731V114.882C38.2731 115.189 38.3343 115.399 38.4567 115.508C38.58 115.616 38.823 115.671 39.1867 115.671H40.2796V117.191H38.4567C37.6182 117.191 37.0228 117.016 36.6731 116.666C36.3225 116.315 36.1476 115.721 36.1476 114.882V112.062H35.0906V110.542H36.1476V108.653H38.2731Z" fill="#1781F8"/>
<path d="M40.8914 110.541H43.0168L44.8039 115.054L46.3235 110.541H48.4489L45.6529 117.82C45.3722 118.561 45.0443 119.078 44.6701 119.372C44.2959 119.668 43.8028 119.814 43.1891 119.814H41.9598V118.42H42.6251C42.9853 118.42 43.2476 118.362 43.412 118.247C43.5763 118.133 43.7032 117.927 43.795 117.63L43.8535 117.446L40.8914 110.541Z" fill="#1781F8"/>
<path d="M59.3973 115.576H55.8231L55.2591 117.191H52.9614L56.2445 108.327H58.9698L62.2528 117.191H59.9551L59.3973 115.576ZM56.3931 113.931H58.822L57.6101 110.405L56.3931 113.931Z" fill="#1781F8"/>
<path d="M63.2616 114.602V110.541H65.3993V111.207C65.3993 111.567 65.3975 112.02 65.3932 112.563C65.3897 113.107 65.387 113.471 65.387 113.652C65.387 114.187 65.4011 114.572 65.429 114.807C65.4562 115.043 65.5042 115.214 65.5716 115.321C65.6583 115.459 65.7718 115.567 65.9127 115.641C66.0531 115.717 66.2144 115.753 66.3967 115.753C66.8393 115.753 67.1882 115.584 67.4406 115.243C67.695 114.903 67.8223 114.43 67.8223 113.825V110.541H69.9468V117.191H67.8223V116.23C67.5003 116.618 67.1613 116.904 66.8032 117.087C66.4452 117.271 66.0498 117.363 65.619 117.363C64.8511 117.363 64.2662 117.128 63.864 116.657C63.4627 116.186 63.2616 115.501 63.2616 114.602Z" fill="#1781F8"/>
<path d="M74.3108 108.653V110.542H76.501V112.062H74.3108V114.882C74.3108 115.189 74.3718 115.399 74.4944 115.508C74.6177 115.616 74.861 115.671 75.2256 115.671H76.3174V117.191H74.4944C73.6558 117.191 73.0617 117.016 72.7108 116.666C72.36 116.315 72.1856 115.721 72.1856 114.882V112.062H71.1285V110.542H72.1856V108.653H74.3108Z" fill="#1781F8"/>
<path d="M80.9666 110.381C82.1102 110.381 83.0033 110.69 83.6472 111.307C84.2905 111.925 84.6112 112.78 84.6112 113.872C84.6112 114.965 84.2905 115.82 83.6472 116.437C83.0033 117.055 82.1102 117.363 80.9666 117.363C79.8184 117.363 78.9213 117.055 78.2735 116.437C77.6263 115.82 77.303 114.965 77.303 113.872C77.303 112.78 77.6263 111.925 78.2735 111.307C78.9213 110.69 79.8184 110.381 80.9666 110.381ZM80.9666 111.902C80.4951 111.902 80.1358 112.07 79.8886 112.409C79.642 112.747 79.5174 113.235 79.5174 113.872C79.5174 114.51 79.642 114.997 79.8886 115.336C80.1358 115.674 80.4951 115.843 80.9666 115.843C81.4295 115.843 81.7836 115.674 82.0289 115.336C82.2741 114.997 82.3967 114.51 82.3967 113.872C82.3967 113.235 82.2741 112.747 82.0289 112.409C81.7836 112.07 81.4295 111.902 80.9666 111.902Z" fill="#1781F8"/>
<path d="M90.4833 108.327H94.2767C95.4046 108.327 96.2702 108.577 96.8747 109.078C97.478 109.579 97.7797 110.293 97.7797 111.218C97.7797 112.149 97.478 112.864 96.8747 113.365C96.2702 113.865 95.4046 114.116 94.2767 114.116H92.7685V117.191H90.4833V108.327ZM92.7685 109.983V112.459H94.0341C94.4761 112.459 94.819 112.352 95.0603 112.136C95.3016 111.921 95.4223 111.614 95.4223 111.218C95.4223 110.822 95.3016 110.518 95.0603 110.304C94.819 110.091 94.4761 109.983 94.0341 109.983H92.7685Z" fill="#1781F8"/>
<path d="M105.201 113.397V117.191H103.058V116.205C102.772 116.609 102.452 116.904 102.096 117.087C101.74 117.271 101.306 117.363 100.795 117.363C100.107 117.363 99.5482 117.162 99.118 116.76C98.6885 116.359 98.4747 115.837 98.4747 115.196C98.4747 114.416 98.7423 113.844 99.2787 113.481C99.8151 113.116 100.657 112.934 101.805 112.934H103.058V112.768C103.058 112.431 102.925 112.186 102.66 112.029C102.395 111.873 101.98 111.794 101.418 111.794C100.964 111.794 100.54 111.839 100.149 111.931C99.756 112.022 99.3915 112.159 99.0557 112.34V110.719C99.5115 110.609 99.9678 110.525 100.428 110.468C100.887 110.41 101.346 110.381 101.805 110.381C103.005 110.381 103.87 110.618 104.403 111.091C104.935 111.564 105.201 112.332 105.201 113.397ZM101.953 114.199C101.51 114.199 101.176 114.274 100.953 114.425C100.729 114.574 100.618 114.796 100.618 115.089C100.618 115.359 100.708 115.569 100.888 115.721C101.068 115.873 101.318 115.95 101.639 115.95C102.038 115.95 102.375 115.806 102.648 115.519C102.921 115.233 103.058 114.873 103.058 114.442V114.199H101.953Z" fill="#1781F8"/>
<path d="M112.118 112.352C111.932 112.266 111.746 112.201 111.563 112.159C111.378 112.117 111.193 112.097 111.007 112.097C110.461 112.097 110.041 112.272 109.746 112.622C109.451 112.972 109.304 113.474 109.304 114.127V117.191H107.178V110.542H109.304V111.633C109.576 111.199 109.89 110.881 110.244 110.681C110.598 110.481 111.023 110.381 111.518 110.381C111.59 110.381 111.667 110.384 111.75 110.39C111.833 110.395 111.953 110.409 112.112 110.429L112.118 112.352Z" fill="#1781F8"/>
<path d="M115.496 108.653V110.542H117.686V112.062H115.496V114.882C115.496 115.189 115.557 115.399 115.679 115.508C115.803 115.616 116.045 115.671 116.41 115.671H117.502V117.191H115.679C114.841 117.191 114.245 117.016 113.896 116.666C113.545 116.315 113.37 115.721 113.37 114.882V112.062H112.313V110.542H113.37V108.653H115.496Z" fill="#1781F8"/>
<path d="M124.181 110.75V112.364C123.726 112.174 123.287 112.031 122.863 111.936C122.439 111.842 122.039 111.794 121.664 111.794C121.26 111.794 120.96 111.845 120.765 111.946C120.568 112.047 120.47 112.201 120.47 112.411C120.47 112.582 120.544 112.712 120.693 112.803C120.842 112.895 121.108 112.962 121.491 113.005L121.866 113.058C122.954 113.197 123.687 113.425 124.063 113.741C124.439 114.058 124.627 114.554 124.627 115.231C124.627 115.94 124.365 116.473 123.843 116.828C123.321 117.184 122.54 117.363 121.504 117.363C121.065 117.363 120.61 117.329 120.14 117.26C119.672 117.19 119.19 117.087 118.695 116.948V115.332C119.119 115.539 119.553 115.692 119.999 115.796C120.444 115.898 120.896 115.95 121.355 115.95C121.771 115.95 122.083 115.892 122.293 115.778C122.503 115.663 122.608 115.492 122.608 115.267C122.608 115.077 122.535 114.936 122.391 114.843C122.247 114.75 121.958 114.677 121.527 114.626L121.153 114.579C120.207 114.46 119.544 114.241 119.164 113.919C118.784 113.599 118.595 113.111 118.595 112.46C118.595 111.755 118.836 111.232 119.319 110.892C119.801 110.551 120.542 110.381 121.54 110.381C121.931 110.381 122.343 110.411 122.774 110.47C123.206 110.53 123.675 110.622 124.181 110.75Z" fill="#1781F8"/>
<path d="M97.7561 12.8238C97.5501 12.6708 60.4203 -14.7976 20.047 11.1364C20.047 11.1364 63.9202 -7.85117 88.6898 15.216C86.2347 17.2566 84.6701 20.3334 84.6701 23.7755C84.6701 29.922 89.6524 34.903 95.798 34.903C101.944 34.903 106.925 29.922 106.925 23.7755C106.925 18.2988 102.967 13.7498 97.7561 12.8238ZM95.798 32.1891C91.1587 32.1891 87.3842 28.4155 87.3842 23.7755C87.3842 19.1364 91.1587 15.3629 95.798 15.3629C100.437 15.3629 104.211 19.1364 104.211 23.7755C104.211 28.4155 100.437 32.1891 95.798 32.1891Z" fill="white"/>
<path d="M92.6381 23.7759C92.6381 25.6994 94.1968 27.2592 96.1213 27.2592C98.0446 27.2592 99.6046 25.6994 99.6046 23.7759C99.6046 21.8524 98.0446 20.2926 96.1213 20.2926C94.1968 20.2926 92.6381 21.8524 92.6381 23.7759Z" fill="#1781F8"/>
<path d="M25.8711 23.5886C25.8711 25.5479 27.4598 27.1366 29.4191 27.1366C31.3793 27.1366 32.9679 25.5479 32.9679 23.5886C32.9679 21.6292 31.3793 20.0406 29.4191 20.0406C27.4598 20.0406 25.8711 21.6292 25.8711 23.5886Z" fill="#1781F8"/>
<path d="M81.1324 25.3876C78.2642 28.397 74.0052 29.5843 70.0026 28.4337C67.8131 27.8042 65.7927 26.714 63.6637 25.9183C61.8451 25.239 59.9583 24.7398 58.0419 24.4337C49.8704 23.1275 41.0583 24.4984 35.2965 30.4718C33.6422 32.2851 31.6655 32.9015 29.213 32.9015C24.3911 32.9015 20.4689 28.9793 20.4689 24.1575C20.4689 19.3356 24.3911 15.4134 29.213 15.4134C31.0316 15.4134 32.775 15.966 34.2534 17.0108C34.8768 17.4523 35.7398 17.3037 36.1804 16.6803C36.6211 16.0569 36.4733 15.194 35.8499 14.7533C33.9011 13.3763 31.606 12.6479 29.213 12.6479C22.8672 12.6479 17.7043 17.8108 17.7043 24.1575C17.7043 30.5032 22.8672 35.6661 29.213 35.6661C32.4182 35.6661 35.3874 34.5373 37.5601 32.1855C43.9216 27.1502 52.3527 25.6342 60.1647 27.7002C64.3002 28.7948 68.0255 31.374 72.3685 31.6311C76.3547 31.8663 80.3429 30.2165 83.0852 27.3399C84.3108 26.0539 82.3613 24.098 81.1324 25.3876Z" fill="white"/>
<path d="M24.4593 51.8824C23.7458 51.8824 23.1486 51.6218 22.6363 51.0858C22.1161 50.542 21.8634 49.9537 21.8634 49.2865C21.8634 48.5512 22.117 47.9375 22.6398 47.4085C23.1609 46.8822 23.7563 46.626 24.4593 46.626C25.1945 46.626 25.8075 46.8804 26.3373 47.4032C26.8637 47.9243 27.1198 48.5407 27.1198 49.2865C27.1198 50.0297 26.8689 50.6338 26.3522 51.1331C25.8311 51.6367 25.2121 51.8824 24.4593 51.8824Z" fill="white"/>
<path d="M7.58258 70.6656L7.21707 70.5876L6.71346 70.501L6.12682 70.3587C4.65535 70 3.41294 69.282 2.43546 68.2243C1.10912 66.781 0.436768 64.7908 0.436768 62.3112C0.436768 59.8343 1.10737 57.8601 2.43283 56.4428C3.28267 55.502 4.53294 54.7825 6.15742 54.2999C7.31327 54.0358 7.87897 53.979 8.14297 53.979H18.0849C18.1679 53.979 18.3821 53.9974 18.8779 54.1224C19.2005 54.2046 19.5388 54.4083 19.8781 54.7248C20.2645 55.1357 20.4656 55.6997 20.4656 56.4245C20.4656 57.1668 20.2698 57.7403 19.8676 58.1766C19.6341 58.4336 19.2512 58.6557 18.7301 58.8384C18.5579 58.8839 18.355 58.9119 18.1495 58.9119H8.83281L8.52422 58.9364L7.97687 59.0291C7.27569 59.1899 6.70651 59.4968 6.25447 59.9506C5.62759 60.5591 5.30584 61.4002 5.30584 62.4407C5.30584 63.3578 5.65382 64.143 6.33841 64.7759C6.74146 65.1257 7.31504 65.3871 8.10625 65.5856L9.04704 65.6662L36.7813 65.6669C38.779 65.6669 40.0818 64.6684 40.5513 62.779L40.7847 61.8417L38.5054 62.3558L37.2718 62.4512C35.1367 62.4485 33.3163 61.694 31.7557 60.142C30.1994 58.5919 29.4413 56.762 29.4413 54.5482C29.4413 52.3624 30.2029 50.5351 31.7697 48.9622C33.3356 47.3902 35.1506 46.626 37.3207 46.626C39.1279 46.626 40.7288 47.1759 42.0796 48.2628C43.4436 49.3582 44.3992 50.7982 44.9229 52.5408L45.0855 53.2586L45.2009 55.2319L45.2639 56.9202L45.3085 58.8131L45.1782 62.6574L45.0715 64.3886L44.992 64.9202C44.9867 65.047 44.9849 65.1239 44.9815 65.1738L44.9403 65.2341V65.4168C44.9403 65.4168 44.9395 65.4736 44.8739 65.6033L44.8451 65.6617L44.8285 65.7239C44.7646 65.9836 44.6737 66.2472 44.5574 66.52C44.4367 66.8026 44.2531 67.1548 44.0084 67.5757C43.6088 68.3364 43.1253 68.9305 42.5631 69.3659C42.1111 69.762 41.6713 70.0472 41.2254 70.2394L40.5967 70.459L39.8256 70.5384L38.2667 70.6656H7.58258ZM37.1913 50.9119C36.2541 50.9119 35.4357 51.2573 34.7624 51.9401C34.0901 52.6212 33.7491 53.4553 33.7491 54.4188C33.7491 55.3438 34.0691 56.1674 34.7003 56.8669C35.4663 57.5821 36.2908 57.9256 37.1913 57.9256C38.1268 57.9256 38.9504 57.5759 39.6403 56.8887C39.9979 56.5294 40.2628 56.1395 40.4289 55.7312C40.5924 55.3228 40.6763 54.8813 40.6763 54.4188C40.6763 53.5017 40.3344 52.6807 39.6586 51.9786C38.9767 51.2713 38.1469 50.9119 37.1913 50.9119Z" fill="white"/>
<path d="M73.0296 79.9593C72.8387 79.9593 72.6728 79.9488 72.5292 79.9239C72.3909 79.9003 72.2696 79.8727 72.1666 79.8386C70.8276 79.4819 70.2217 78.7252 70.2217 77.4498C70.2217 76.3665 70.5253 75.6498 71.1502 75.259C71.2459 75.2144 71.541 75.1003 72.141 74.96C72.2755 74.9527 72.3935 74.9272 72.4977 74.88C72.8892 74.7639 73.1902 74.5987 73.4125 74.3764C73.6053 74.1836 73.6728 74.0354 73.6728 72.4472L73.6945 68.2885L73.6512 59.0297L73.6302 56.4199C73.7246 55.5928 73.8728 55.1373 73.9797 54.9143C74.4361 53.9211 75.1751 53.4621 76.3115 53.4621C77.3974 53.4621 78.124 53.9167 78.6014 54.8942C78.6722 55.0682 78.8059 55.5202 78.9574 56.5143L78.9502 65.9042H87.2669L86.5305 63.9556C86.2584 63.139 86.1161 62.4256 86.1161 61.8581V60.9961L86.2007 59.8533C86.2027 59.6155 86.2046 59.4817 86.2105 59.404C86.2105 59.404 86.2184 59.3401 86.2794 59.1565L86.7555 57.6859C87.1863 56.7303 87.8813 55.779 88.7968 54.9178C89.9791 53.8686 91.5692 53.1237 93.5135 52.7154L94.2873 52.6166L95.061 52.5773C96.2696 52.5781 97.4322 52.885 98.4853 53.4901C99.2918 53.922 99.9961 54.4981 100.59 55.2099L101.457 56.3526L101.987 57.1954C102.279 57.7217 102.435 58.3932 102.435 59.1635C102.435 59.744 102.324 60.2607 102.108 60.6988C101.909 61.1036 101.576 61.4131 101.093 61.644C101.001 61.6798 100.898 61.7174 100.817 61.7427C100.726 61.7707 100.551 61.8179 100.293 61.8861L99.5797 61.9569C99.1286 61.9535 98.762 61.7838 98.4886 61.4192L98.1718 60.6236L97.6938 59.4739C97.4925 58.9878 97.2787 58.6258 97.04 58.3687C96.4079 57.6335 95.545 57.2514 94.4912 57.2514C92.9358 57.2514 91.8204 57.7996 91.1758 58.8794C90.9948 59.2212 90.861 59.5823 90.764 59.9801C90.6669 60.3779 90.6177 60.8212 90.6177 61.2986V61.643C90.6177 62.6573 91.0918 63.6794 92.0289 64.6804C92.3581 65.0424 92.8105 65.4131 93.4079 65.8065L93.5568 65.9042H104.532V65.8826H107.916L107.536 64.2066L107.393 63.2168L107.357 61.9473C107.357 61.1097 107.522 60.1497 107.847 59.1154C108.159 58.1222 108.807 57.1683 109.773 56.28C110.841 55.2807 111.965 54.6013 113.119 54.2568C114.312 53.901 115.35 53.7209 116.206 53.7209L117.316 53.7847C117.517 53.7856 117.83 53.8276 118.373 54.0278L119.225 54.3329L120.98 55.4206C122.076 56.1419 122.955 57.3642 123.583 59.0481C123.988 60.1253 124.193 61.1211 124.193 62.0094C124.193 62.3748 124.152 62.7814 124.073 63.2194L123.795 64.6105L123.672 65.0424L122.753 66.7764C122.19 67.8229 121.298 68.7187 120.104 69.4341C119.519 69.7941 118.86 70.0767 118.139 70.2767L116.033 70.7429L115.187 70.8426L113.837 70.9246L82.9614 70.9239V70.9455H78.9502V75.4229C78.9502 75.5167 78.9377 75.6459 78.9135 75.8124L78.8263 76.4898C78.6532 77.3901 78.3292 78.1259 77.8728 78.6373C77.4191 79.1468 76.7941 79.52 76.0158 79.7449L74.9207 79.9239L73.0296 79.9593ZM115.624 58.5453C114.661 58.5453 113.82 58.8933 113.125 59.5788C112.427 60.2695 112.075 61.1158 112.075 62.0951C112.075 63.0761 112.429 63.9233 113.124 64.6105C113.82 65.2986 114.661 65.6465 115.624 65.6465C116.569 65.6465 117.405 65.3091 118.113 64.6428C118.832 63.967 119.196 63.111 119.196 62.0951C119.196 61.1342 118.851 60.294 118.173 59.5981C117.493 58.9004 116.635 58.5453 115.624 58.5453Z" fill="white"/>
<path d="M65.0741 56.7165C64.2435 55.8859 63.3168 55.2625 62.32 54.8647C61.3163 54.4625 60.2295 54.2596 59.092 54.2596C57.11 54.2596 55.3333 54.869 53.8103 56.0721C52.2855 57.276 51.2897 58.7781 50.8438 60.5573C50.7904 60.7436 50.7441 60.9351 50.7038 61.1344C50.6663 61.3259 50.6392 61.4867 50.6287 61.5899L50.5648 62.6994C50.5648 63.5388 50.6969 64.3895 50.9592 65.2288C51.2241 66.078 51.5353 66.8032 51.8833 67.3869C52.2234 67.9593 52.6894 68.5213 53.2656 69.0577C54.3297 70.0531 55.8107 70.7351 57.7815 71.1075L58.6077 71.2675L56.7751 74.3796L56.7646 74.377C56.5425 74.5987 54.5998 74.7639 54.2072 74.8806C54.1041 74.9278 53.9851 74.9528 53.8505 74.96C53.2507 75.101 52.9552 75.2144 52.8599 75.259C52.2356 75.6498 51.9314 76.3665 51.9314 77.4498C51.9314 78.7259 52.5382 79.4819 53.8759 79.838C53.979 79.8728 54.1006 79.901 54.2387 79.9246C54.3821 79.9488 54.5482 79.9593 54.7389 79.9593L56.63 79.9246L57.7255 79.7449C58.5036 79.5206 59.1288 79.1469 59.5825 78.6373C59.8221 78.3678 60.0223 78.0341 60.1867 77.6505L60.8197 76.5232L61.8497 74.7659L66.5148 66.4269C66.8079 65.9344 67.065 65.3521 67.28 64.692C67.4899 64.0511 67.5954 63.3587 67.5954 62.6347C67.5954 60.3073 66.7731 58.3733 65.0741 56.7165ZM61.4002 65.2017C60.6982 65.8682 59.8641 66.2052 58.9181 66.2052C57.9082 66.2052 57.0497 65.8524 56.3694 65.1545C55.691 64.4594 55.3474 63.6262 55.3474 62.6785C55.3474 61.7123 55.7006 60.8739 56.3983 60.1823C57.0925 59.4977 57.9406 59.1488 58.9181 59.1488C59.9166 59.1488 60.7681 59.509 61.4501 60.2164C62.1259 60.9193 62.4695 61.7473 62.4695 62.6785C62.4695 63.676 62.1093 64.5259 61.4002 65.2017Z" fill="white"/>
</svg>
