<svg width="97" height="96" viewBox="0 0 97 96" fill="none" xmlns="http://www.w3.org/2000/svg">
<g clip-path="url(#clip0_1_285)">
<path d="M11.9523 82.434C12.1534 83.6953 13.2413 84.6235 14.5186 84.6235H80.9224C84.4308 84.6235 87.8611 83.2722 90.2391 80.6863C90.8163 80.0603 91.3476 79.3678 91.8567 78.6475H11.3483L11.9523 82.434ZM10.5055 70.035H93.6164C94.3338 70.035 95.0003 70.228 95.5958 70.5396C97.4348 63.7632 97.0276 55.7141 93.4227 48.6433C92.5519 46.9412 91.2398 45.4988 89.7065 44.3683L57.8193 20.8751C49.4382 14.716 39.3158 11.3766 28.9077 11.3766H3.66588C2.06726 11.3766 0.847758 12.8061 1.09957 14.3846L9.98332 70.0877C10.1564 70.0665 10.3266 70.035 10.5055 70.035ZM29.4153 55.0967C29.4153 55.5737 29.0286 55.9603 28.5516 55.9603H15.919C15.442 55.9603 15.0554 55.5737 15.0554 55.0967V53.0736C15.0554 52.5966 15.442 52.21 15.919 52.21H28.5518C29.0286 52.21 29.4154 52.5966 29.4154 53.0736L29.4153 55.0967ZM28.9077 17.8736C37.9774 17.8736 46.6444 20.7193 53.9731 26.1118L74.5036 41.2369H11.9635L8.23432 17.8736H28.9077ZM93.6164 72.0696H10.5059C9.25132 72.0696 8.23432 73.0866 8.23432 74.3411C8.23432 75.5957 9.25132 76.6127 10.5059 76.6127H93.6166C94.8711 76.6127 95.8881 75.5957 95.8881 74.3411C95.8881 73.0866 94.8709 72.0696 93.6164 72.0696Z" fill="#1781F8"/>
</g>
<defs>
<clipPath id="clip0_1_285">
<rect width="96" height="96" fill="white" transform="translate(0.866699)"/>
</clipPath>
</defs>
</svg>
