<svg width="24" height="24" viewBox="0 0 24 24" fill="none" xmlns="http://www.w3.org/2000/svg">
<path d="M23.85 18.3235C23.8219 18.5157 23.775 18.7032 23.7047 18.8485C23.5781 19.1063 23.4562 19.1297 22.9781 19.1063C22.3594 19.0782 21.4734 19.1063 20.5359 19.1438C20.5359 19.4016 20.5453 19.5235 20.5453 19.5235C20.6062 20.2313 20.925 20.2547 21.0516 20.2547H23.0672C23.2453 20.2547 23.4094 20.2547 23.5359 20.1704C23.7 20.0625 23.7703 19.7485 23.8312 19.2C23.8406 19.1204 23.8453 19.0172 23.85 18.8954V18.8907C23.85 18.8532 23.8547 18.8063 23.8547 18.7547V18.7032C23.8547 18.5766 23.8547 18.436 23.85 18.3235ZM0.140613 18.3235C0.168738 18.5157 0.215613 18.7032 0.285925 18.8485C0.412488 19.1063 0.534363 19.1297 1.01249 19.1063C1.63124 19.0782 2.51718 19.1063 3.45468 19.1438C3.45468 19.4016 3.4453 19.5235 3.4453 19.5235C3.38436 20.2313 3.06561 20.2547 2.93905 20.2547H0.923425C0.7453 20.2547 0.5953 20.2547 0.454675 20.1704C0.285925 20.0719 0.2203 19.7485 0.159363 19.2C0.149988 19.1204 0.1453 19.0172 0.140613 18.8954V18.8907C0.140613 18.8532 0.135925 18.8063 0.135925 18.7547V18.7032C0.140613 18.5766 0.140613 18.436 0.140613 18.3235Z" fill="#1781F8"/>
<path d="M24 13.903C24 12.464 23.8125 11.0577 23.7375 10.903C23.6812 10.7905 23.3203 10.4952 22.5 9.9374C21.6703 9.37021 21.6891 9.45459 21.5391 9.08428C21.675 9.04209 21.8062 8.9624 21.8859 8.95303C22.0641 8.93428 22.0734 9.10303 22.4437 9.10303C22.8141 9.10303 23.6156 9.00459 23.7797 8.84053C23.9437 8.67647 23.9953 8.62021 23.9953 8.4749C23.9953 8.32959 23.9109 8.02959 23.7516 7.85147C23.5922 7.67334 22.9125 7.58428 22.5141 7.53271C22.1156 7.48115 22.0594 7.53272 21.9562 7.59834C21.7922 7.70147 21.7828 8.64365 21.7828 8.64365L21.3937 8.65303C21.1406 8.02959 20.7891 6.77334 20.2406 5.78428C19.6406 4.70615 19.0125 4.36865 18.75 4.28428C18.4922 4.20459 18.2578 4.14834 16.5 3.97021C14.7047 3.78271 13.275 3.75928 12 3.75928C10.725 3.75928 9.29531 3.7874 7.5 3.97021C5.74219 4.15303 5.50781 4.20459 5.25 4.28428C4.99219 4.36397 4.35938 4.70615 3.75937 5.78428C3.21094 6.77334 2.85938 8.02959 2.60625 8.65303L2.21719 8.64365C2.21719 8.64365 2.2125 7.70147 2.04375 7.59834C1.94062 7.53272 1.88438 7.47646 1.48594 7.53271C1.0875 7.58896 0.407813 7.67334 0.248438 7.85147C0.0890625 8.02959 0.0046875 8.32959 0.0046875 8.4749C0.0046875 8.62021 0.05625 8.68115 0.220312 8.84053C0.384375 9.00459 1.18594 9.10303 1.55625 9.10303C1.92656 9.10303 1.93594 8.93428 2.11406 8.95303C2.19375 8.9624 2.32969 9.04209 2.46094 9.08428C2.30625 9.45459 2.32969 9.37021 1.5 9.9374C0.679688 10.4999 0.314063 10.7905 0.2625 10.903C0.1875 11.0577 0 12.464 0 13.903C0 15.3421 0.103125 16.6358 0.103125 17.0952C0.103125 17.2874 0.103125 17.6249 0.145312 17.9483C0.173437 18.1405 0.215625 18.328 0.290625 18.4733C0.417187 18.7312 0.534375 18.7546 1.01719 18.7312C1.63594 18.703 2.53125 18.7312 3.45469 18.7687C4.07344 18.7921 4.70625 18.8155 5.26875 18.8296C6.675 18.8577 6.2625 18.6233 6.8625 18.6327C7.4625 18.6421 9.82969 18.7405 11.9953 18.7405C14.1609 18.7405 16.5328 18.6421 17.1281 18.6327C17.7281 18.6233 17.3156 18.8577 18.7219 18.8296C19.2844 18.8202 19.9172 18.7921 20.5359 18.7687C21.4594 18.7358 22.3594 18.703 22.9734 18.7312C23.4563 18.7546 23.5734 18.7312 23.7 18.4733C23.7703 18.328 23.8172 18.1405 23.8453 17.9483C23.8922 17.6249 23.8875 17.2874 23.8875 17.0952C23.8969 16.6405 24 15.3421 24 13.903ZM4.04062 6.80615C4.26562 6.28115 4.94063 5.22646 5.26875 5.03896C5.34844 4.99209 6.04688 4.77178 7.79531 4.65459C9.40312 4.54678 11.1797 4.50459 12.0047 4.50459C12.8297 4.50459 14.6062 4.54678 16.2141 4.65459C17.9578 4.77178 18.6656 4.9874 18.7406 5.03896C19.1625 5.32959 19.7437 6.28115 19.9688 6.80615C20.1938 7.33115 20.4937 8.3624 20.4375 8.50303C20.3813 8.64365 20.4937 8.71397 19.7344 8.65303C18.9797 8.59678 14.2406 8.53584 12.0094 8.53584C9.78281 8.53584 5.04375 8.59678 4.28438 8.65303C3.525 8.70928 3.6375 8.64365 3.58125 8.50303C3.51562 8.3624 3.81562 7.33584 4.04062 6.80615ZM5.76562 12.6749C5.42812 12.7593 5.22656 12.9421 4.80469 12.9374C4.38281 12.9374 3.24375 12.7452 3 12.7358C2.75625 12.7265 2.54063 12.8999 2.41406 12.9327C2.2875 12.9655 2.03906 12.8765 1.66406 12.7593C1.28906 12.6421 1.06875 12.6749 0.946875 12.164C0.820313 11.6577 0.946875 10.9312 0.946875 10.9312C1.75781 10.8937 2.54063 10.9687 4.00781 11.3812C5.475 11.7937 6.29062 12.5858 6.29062 12.5858C6.29062 12.5858 6.10313 12.5905 5.76562 12.6749ZM16.7906 16.3687C16.1203 16.4577 13.3125 16.4812 12 16.4812C10.6875 16.4812 7.87969 16.453 7.20938 16.3687C6.525 16.2796 5.63438 15.4593 6.24844 14.8077C7.07812 13.9218 6.92344 13.9499 8.80781 13.7062C10.4391 13.4952 11.6766 13.4858 12 13.4858C12.3188 13.4858 13.5609 13.4999 15.1922 13.7062C17.0766 13.9499 16.9219 13.9218 17.7516 14.8077C18.3656 15.4593 17.475 16.2796 16.7906 16.3687ZM23.0531 12.1687C22.9266 12.6749 22.7109 12.6468 22.3359 12.764C21.9609 12.8812 21.7125 12.9655 21.5859 12.9374C21.4594 12.9093 21.2437 12.7358 21 12.7405C20.7563 12.7499 19.6172 12.9421 19.1953 12.9421C18.7734 12.9421 18.5719 12.764 18.2344 12.6796C17.8969 12.5952 17.7094 12.5952 17.7094 12.5952C17.7094 12.5952 18.5203 11.7983 19.9922 11.3905C21.4594 10.978 22.2422 10.903 23.0531 10.9405C23.0531 10.9312 23.1797 11.6577 23.0531 12.1687Z" fill="#1781F8"/>
</svg>
