<svg width="126" height="121" viewBox="0 0 126 121" fill="none" xmlns="http://www.w3.org/2000/svg">
<g clip-path="url(#clip0_1_162)">
<path d="M0 90.8614C0 85.7296 2.99104 83.4424 6.86164 83.4424C9.17771 83.4424 11.0251 84.3512 12.1687 86.0811C13.3123 84.3512 15.1598 83.4424 17.4759 83.4424C21.3464 83.4424 24.3375 85.7296 24.3375 90.8614V103H19.5873V90.8614C19.5873 88.6325 18.5023 87.8404 17.0658 87.8404C15.6582 87.8404 14.5434 88.6325 14.5434 90.8614V103H9.79325V90.8614C9.79325 88.6325 8.67935 87.8404 7.27167 87.8404C5.83519 87.8404 4.75016 88.6325 4.75016 90.8614V103H0V90.8614Z" fill="white"/>
<path d="M27.3604 91.8581C27.3604 86.6391 30.3217 83.4424 35.7756 83.4424C41.2585 83.4424 44.2504 86.6391 44.2504 91.8581V103H39.4994V97.546H31.9933V103H27.3604V91.8581ZM39.4994 93.4411V91.8581C39.4994 89.2194 38.3558 87.8404 35.7468 87.8404C33.1667 87.8404 31.9933 89.2194 31.9933 91.8581V93.4411H39.4994Z" fill="white"/>
<path d="M47.7417 83.8232H55.5117C60.5845 83.8232 62.842 86.5793 62.842 90.3911C62.842 93.0895 61.6993 95.2882 59.2355 96.3137L63.5467 103H57.9161L54.515 96.9891H52.4919V103H47.7417V83.8232ZM55.5704 92.5911C57.4763 92.5911 58.0333 91.6521 58.0333 90.3911C58.0333 89.1308 57.4763 88.2219 55.5704 88.2219H52.4919V92.5911H55.5704Z" fill="white"/>
<path d="M64.9254 93.4112C64.9254 87.6644 69.1476 83.4414 75.1293 83.4414C81.1116 83.4414 85.3339 87.6644 85.3339 93.4112C85.3339 99.1581 81.1116 103.381 75.1293 103.381C69.1476 103.381 64.9254 99.1581 64.9254 93.4112ZM80.5247 93.4112C80.5247 90.1863 78.3844 87.8401 75.1293 87.8401C71.8755 87.8401 69.7339 90.1863 69.7339 93.4112C69.7339 96.6368 71.8755 98.9824 75.1293 98.9824C78.3844 98.9824 80.5247 96.6368 80.5247 93.4112Z" fill="white"/>
<path d="M87.3296 93.4112C87.3296 87.6644 91.5525 83.4414 97.5342 83.4414C103.516 83.4414 107.738 87.6644 107.738 93.4112C107.738 99.1581 103.516 103.381 97.5342 103.381C91.5525 103.381 87.3296 99.1581 87.3296 93.4112ZM102.93 93.4112C102.93 90.1863 100.789 87.8401 97.5342 87.8401C94.2798 87.8401 92.1388 90.1863 92.1388 93.4112C92.1388 96.6368 94.2798 98.9824 97.5342 98.9824C100.789 98.9824 102.93 96.6368 102.93 93.4112Z" fill="white"/>
<path d="M110.702 83.8232H124.63V88.2219H115.452V91.2121H122.93V95.317H115.452V103H110.702V83.8232Z" fill="white"/>
<path d="M4.8063 117.672H4.62794C3.16696 117.672 2.0321 117.27 1.21986 116.462C0.40849 115.655 0.00280762 114.53 0.00280762 113.089C0.00280762 111.653 0.407616 110.527 1.21723 109.711C2.02685 108.896 3.14161 108.489 4.56237 108.489C5.99975 108.489 7.11887 108.892 7.92064 109.7C8.7215 110.506 9.12196 111.637 9.12196 113.089C9.12196 114.087 8.9095 114.946 8.48458 115.666C8.05874 116.386 7.44589 116.929 6.64674 117.293L8.43383 119.287H6.25417L4.8063 117.672ZM4.56237 110.145C3.86554 110.145 3.32609 110.402 2.94139 110.916C2.55756 111.431 2.36609 112.156 2.36609 113.089C2.36609 114.039 2.55407 114.767 2.93002 115.272C3.30598 115.776 3.8498 116.028 4.56237 116.028C5.26358 116.028 5.80565 115.771 6.18948 115.257C6.5733 114.742 6.76478 114.02 6.76478 113.089C6.76478 112.156 6.5733 111.431 6.18948 110.916C5.80565 110.402 5.26358 110.145 4.56237 110.145Z" fill="#1781F8"/>
<path d="M10.684 114.922V110.861H12.8217V111.527C12.8217 111.887 12.82 112.34 12.8156 112.884C12.8121 113.427 12.8095 113.791 12.8095 113.973C12.8095 114.507 12.8234 114.892 12.8514 115.127C12.8785 115.363 12.9266 115.535 12.9939 115.641C13.0805 115.779 13.1941 115.887 13.3349 115.961C13.4757 116.037 13.6366 116.074 13.8193 116.074C14.2626 116.074 14.6105 115.905 14.8641 115.564C15.1177 115.223 15.2436 114.751 15.2436 114.145V110.861H17.369V117.511H15.2436V116.55C14.9226 116.938 14.5834 117.224 14.2259 117.408C13.8674 117.591 13.4722 117.684 13.0411 117.684C12.2735 117.684 11.6885 117.448 11.2864 116.977C10.8851 116.506 10.684 115.821 10.684 114.922Z" fill="#1781F8"/>
<path d="M25.6393 113.719V117.512H23.4964V116.526C23.2113 116.93 22.8905 117.225 22.5346 117.408C22.1788 117.592 21.7451 117.684 21.2345 117.684C20.5455 117.684 19.9868 117.483 19.5567 117.081C19.1274 116.68 18.9132 116.159 18.9132 115.517C18.9132 114.737 19.1807 114.165 19.7175 113.802C20.2535 113.437 21.0955 113.255 22.2434 113.255H23.4964V113.089C23.4964 112.753 23.3634 112.507 23.0985 112.35C22.8336 112.194 22.4192 112.115 21.8579 112.115C21.4024 112.115 20.9792 112.161 20.5875 112.252C20.1949 112.343 19.8312 112.48 19.4946 112.661V111.041C19.9493 110.93 20.4065 110.846 20.8664 110.789C21.3254 110.731 21.7844 110.702 22.2434 110.702C23.443 110.702 24.3086 110.939 24.8411 111.412C25.3735 111.885 25.6393 112.654 25.6393 113.719ZM22.3921 114.521C21.9488 114.521 21.6157 114.595 21.3919 114.746C21.168 114.896 21.0562 115.117 21.0562 115.41C21.0562 115.68 21.1462 115.89 21.3263 116.042C21.5064 116.195 21.7565 116.271 22.0773 116.271C22.4769 116.271 22.8135 116.127 23.0863 115.841C23.36 115.554 23.4964 115.195 23.4964 114.763V114.521H22.3921Z" fill="#1781F8"/>
<path d="M27.6169 108.274H29.7424V117.512H27.6169V108.274Z" fill="#1781F8"/>
<path d="M31.7838 108.274H33.9093V110.008H31.7838V108.274ZM31.7838 110.863H33.9093V117.512H31.7838V110.863Z" fill="#1781F8"/>
<path d="M38.2729 108.974V110.862H40.4631V112.382H38.2729V115.202C38.2729 115.51 38.3342 115.719 38.4566 115.829C38.5798 115.937 38.8229 115.992 39.1866 115.992H40.2795V117.511H38.4566C37.6181 117.511 37.0227 117.337 36.6729 116.986C36.3224 116.635 36.1475 116.041 36.1475 115.202V112.382H35.0905V110.862H36.1475V108.974H38.2729Z" fill="#1781F8"/>
<path d="M40.8912 110.861H43.0167L44.8038 115.374L46.3234 110.861H48.4488L45.6527 118.14C45.3721 118.881 45.0442 119.398 44.67 119.693C44.2958 119.988 43.8027 120.135 43.1889 120.135H41.9596V118.74H42.625C42.9852 118.74 43.2475 118.682 43.4119 118.568C43.5762 118.453 43.703 118.247 43.7948 117.951L43.8534 117.766L40.8912 110.861Z" fill="#1781F8"/>
<path d="M59.3974 115.897H55.8232L55.2593 117.512H52.9615L56.2446 108.647H58.9699L62.2529 117.512H59.9552L59.3974 115.897ZM56.3932 114.252H58.8221L57.6103 110.726L56.3932 114.252Z" fill="#1781F8"/>
<path d="M63.262 114.922V110.861H65.3997V111.527C65.3997 111.887 65.3979 112.34 65.3936 112.884C65.39 113.427 65.3874 113.791 65.3874 113.973C65.3874 114.507 65.4014 114.892 65.4294 115.127C65.4565 115.363 65.5046 115.535 65.5719 115.641C65.6587 115.779 65.7721 115.887 65.9131 115.961C66.0534 116.037 66.2147 116.074 66.397 116.074C66.8397 116.074 67.1885 115.905 67.441 115.564C67.6954 115.223 67.8226 114.751 67.8226 114.145V110.861H69.9472V117.511H67.8226V116.55C67.5007 116.938 67.1616 117.224 66.8036 117.408C66.4456 117.591 66.0502 117.684 65.6193 117.684C64.8515 117.684 64.2666 117.448 63.8644 116.977C63.4631 116.506 63.262 115.821 63.262 114.922Z" fill="#1781F8"/>
<path d="M74.3107 108.974V110.862H76.5009V112.382H74.3107V115.202C74.3107 115.51 74.3717 115.719 74.4943 115.829C74.6176 115.937 74.8609 115.992 75.2255 115.992H76.3173V117.511H74.4943C73.6556 117.511 73.0615 117.337 72.7107 116.986C72.3599 116.635 72.1855 116.041 72.1855 115.202V112.382H71.1284V110.862H72.1855V108.974H74.3107Z" fill="#1781F8"/>
<path d="M80.9666 110.702C82.1102 110.702 83.0033 111.011 83.6472 111.628C84.2905 112.246 84.6112 113.101 84.6112 114.193C84.6112 115.286 84.2905 116.141 83.6472 116.758C83.0033 117.376 82.1102 117.684 80.9666 117.684C79.8184 117.684 78.9213 117.376 78.2735 116.758C77.6263 116.141 77.303 115.286 77.303 114.193C77.303 113.101 77.6263 112.246 78.2735 111.628C78.9213 111.011 79.8184 110.702 80.9666 110.702ZM80.9666 112.223C80.4951 112.223 80.1358 112.391 79.8886 112.73C79.642 113.068 79.5174 113.556 79.5174 114.193C79.5174 114.831 79.642 115.319 79.8886 115.657C80.1358 115.995 80.4951 116.164 80.9666 116.164C81.4295 116.164 81.7836 115.995 82.0289 115.657C82.2741 115.319 82.3967 114.831 82.3967 114.193C82.3967 113.556 82.2741 113.068 82.0289 112.73C81.7836 112.391 81.4295 112.223 80.9666 112.223Z" fill="#1781F8"/>
<path d="M90.483 108.647H94.2765C95.4043 108.647 96.2699 108.897 96.8745 109.398C97.4778 109.899 97.7794 110.613 97.7794 111.539C97.7794 112.469 97.4778 113.184 96.8745 113.685C96.2699 114.185 95.4043 114.436 94.2765 114.436H92.7683V117.511H90.483V108.647ZM92.7683 110.303V112.779H94.0338C94.4758 112.779 94.8188 112.672 95.0601 112.456C95.3014 112.241 95.422 111.935 95.422 111.539C95.422 111.143 95.3014 110.838 95.0601 110.624C94.8188 110.411 94.4758 110.303 94.0338 110.303H92.7683Z" fill="#1781F8"/>
<path d="M105.201 113.719V117.512H103.058V116.526C102.772 116.93 102.452 117.225 102.096 117.408C101.74 117.592 101.305 117.684 100.795 117.684C100.107 117.684 99.5481 117.483 99.1179 117.081C98.6884 116.68 98.4746 116.159 98.4746 115.517C98.4746 114.737 98.7421 114.165 99.2785 113.802C99.8149 113.437 100.657 113.255 101.804 113.255H103.058V113.089C103.058 112.753 102.924 112.507 102.66 112.35C102.395 112.194 101.98 112.115 101.418 112.115C100.964 112.115 100.54 112.161 100.149 112.252C99.7559 112.343 99.3913 112.48 99.0556 112.661V111.041C99.5113 110.93 99.9677 110.846 100.427 110.789C100.886 110.731 101.345 110.702 101.804 110.702C103.004 110.702 103.87 110.939 104.402 111.412C104.935 111.885 105.201 112.654 105.201 113.719ZM101.953 114.521C101.51 114.521 101.176 114.595 100.953 114.746C100.728 114.896 100.618 115.117 100.618 115.41C100.618 115.68 100.707 115.89 100.888 116.042C101.067 116.195 101.318 116.271 101.639 116.271C102.038 116.271 102.375 116.127 102.648 115.841C102.921 115.554 103.058 115.195 103.058 114.763V114.521H101.953Z" fill="#1781F8"/>
<path d="M112.118 112.673C111.932 112.587 111.747 112.522 111.563 112.481C111.379 112.439 111.194 112.418 111.007 112.418C110.461 112.418 110.041 112.593 109.746 112.943C109.451 113.294 109.304 113.795 109.304 114.448V117.512H107.178V110.863H109.304V111.955C109.577 111.521 109.89 111.202 110.244 111.002C110.598 110.802 111.023 110.702 111.518 110.702C111.59 110.702 111.667 110.705 111.75 110.711C111.833 110.717 111.954 110.73 112.112 110.75L112.118 112.673Z" fill="#1781F8"/>
<path d="M115.496 108.974V110.862H117.686V112.382H115.496V115.202C115.496 115.51 115.557 115.719 115.679 115.829C115.803 115.937 116.045 115.992 116.41 115.992H117.502V117.511H115.679C114.841 117.511 114.245 117.337 113.896 116.986C113.545 116.635 113.37 116.041 113.37 115.202V112.382H112.313V110.862H113.37V108.974H115.496Z" fill="#1781F8"/>
<path d="M124.181 111.071V112.685C123.726 112.496 123.287 112.352 122.863 112.258C122.44 112.163 122.04 112.115 121.664 112.115C121.26 112.115 120.96 112.166 120.765 112.267C120.568 112.368 120.471 112.522 120.471 112.732C120.471 112.903 120.545 113.033 120.693 113.124C120.842 113.216 121.108 113.283 121.491 113.326L121.866 113.38C122.954 113.519 123.687 113.746 124.063 114.062C124.439 114.379 124.627 114.875 124.627 115.552C124.627 116.262 124.366 116.794 123.843 117.149C123.321 117.505 122.541 117.684 121.504 117.684C121.065 117.684 120.61 117.65 120.141 117.581C119.672 117.511 119.191 117.408 118.695 117.269V115.654C119.119 115.86 119.553 116.014 119.999 116.117C120.444 116.22 120.896 116.271 121.355 116.271C121.771 116.271 122.084 116.213 122.293 116.099C122.503 115.984 122.608 115.814 122.608 115.588C122.608 115.399 122.535 115.257 122.391 115.164C122.247 115.071 121.958 114.999 121.528 114.947L121.153 114.9C120.208 114.781 119.545 114.562 119.164 114.241C118.785 113.92 118.595 113.433 118.595 112.781C118.595 112.076 118.836 111.553 119.319 111.213C119.802 110.873 120.542 110.702 121.54 110.702C121.931 110.702 122.343 110.732 122.774 110.791C123.206 110.851 123.675 110.943 124.181 111.071Z" fill="#1781F8"/>
<path d="M97.7569 13.1442C97.551 12.9911 60.4212 -14.4773 20.0479 11.4567C20.0479 11.4567 63.9211 -7.53085 88.6907 15.5363C86.2356 17.5769 84.671 20.6537 84.671 24.0958C84.671 30.2423 89.6533 35.2233 95.7989 35.2233C101.944 35.2233 106.926 30.2423 106.926 24.0958C106.926 18.6191 102.968 14.0701 97.7569 13.1442ZM95.7989 32.5094C91.1595 32.5094 87.3851 28.7358 87.3851 24.0958C87.3851 19.4567 91.1595 15.6832 95.7989 15.6832C100.438 15.6832 104.212 19.4567 104.212 24.0958C104.212 28.7358 100.438 32.5094 95.7989 32.5094Z" fill="white"/>
<path d="M92.639 24.0961C92.639 26.0195 94.1977 27.5794 96.1223 27.5794C98.0456 27.5794 99.6056 26.0195 99.6056 24.0961C99.6056 22.1726 98.0456 20.6128 96.1223 20.6128C94.1977 20.6128 92.639 22.1726 92.639 24.0961Z" fill="#1781F8"/>
<path d="M25.8722 23.9088C25.8722 25.8681 27.4608 27.4568 29.4202 27.4568C31.3804 27.4568 32.969 25.8681 32.969 23.9088C32.969 21.9494 31.3804 20.3608 29.4202 20.3608C27.4608 20.3608 25.8722 21.9494 25.8722 23.9088Z" fill="#1781F8"/>
<path d="M81.1336 25.707C78.2654 28.7163 74.0064 29.9037 70.0038 28.7531C67.8143 28.1235 65.794 27.0333 63.6649 26.2376C61.8463 25.5583 59.9595 25.0591 58.0431 24.7531C49.8717 23.4468 41.0595 24.8178 35.2977 30.7911C33.6435 32.6045 31.6667 33.2209 29.2142 33.2209C24.3923 33.2209 20.4702 29.2986 20.4702 24.4768C20.4702 19.655 24.3923 15.7327 29.2142 15.7327C31.0328 15.7327 32.7762 16.2853 34.2546 17.3301C34.878 17.7717 35.741 17.623 36.1816 16.9996C36.6223 16.3763 36.4745 15.5133 35.8511 15.0727C33.9023 13.6956 31.6072 12.9673 29.2142 12.9673C22.8684 12.9673 17.7056 18.1301 17.7056 24.4768C17.7056 30.8226 22.8684 35.9854 29.2142 35.9854C32.4195 35.9854 35.3886 34.8567 37.5613 32.5048C43.9228 27.4696 52.3539 25.9535 60.1659 28.0195C64.3014 29.1142 68.0267 31.6934 72.3697 31.9504C76.3559 32.1856 80.3441 30.5358 83.0864 27.6593C84.312 26.3732 82.3625 24.4173 81.1336 25.707Z" fill="white"/>
<path d="M24.4599 52.2037C23.7464 52.2037 23.1493 51.9431 22.6369 51.4071C22.1167 50.8633 21.864 50.2749 21.864 49.6078C21.864 48.8725 22.1176 48.2587 22.6404 47.7298C23.1615 47.2035 23.7569 46.9473 24.4599 46.9473C25.1952 46.9473 25.8081 47.2017 26.3379 47.7245C26.8643 48.2456 27.1204 48.862 27.1204 49.6078C27.1204 50.351 26.8695 50.9551 26.3528 51.4543C25.8317 51.958 25.2127 52.2037 24.4599 52.2037Z" fill="white"/>
<path d="M7.58343 70.9869L7.21793 70.9088L6.71432 70.8223L6.12768 70.68C4.6562 70.3213 3.41379 69.6033 2.43631 68.5456C1.10997 67.1023 0.437622 65.1121 0.437622 62.6325C0.437622 60.1556 1.10822 58.1814 2.43369 56.7641C3.28352 55.8233 4.53379 55.1038 6.15828 54.6212C7.31412 54.3571 7.87983 54.3003 8.14383 54.3003H18.0857C18.1687 54.3003 18.383 54.3187 18.8787 54.4437C19.2013 54.5259 19.5397 54.7296 19.8789 55.0461C20.2654 55.457 20.4664 56.021 20.4664 56.7458C20.4664 57.4881 20.2706 58.0616 19.8684 58.4979C19.635 58.7549 19.252 58.977 18.731 59.1597C18.5587 59.2052 18.3559 59.2332 18.1504 59.2332H8.83366L8.52507 59.2577L7.97773 59.3504C7.27655 59.5112 6.70737 59.8181 6.25533 60.2719C5.62844 60.8804 5.30669 61.7215 5.30669 62.762C5.30669 63.6791 5.65467 64.4643 6.33926 65.0972C6.74232 65.4469 7.31589 65.7084 8.10711 65.9069L9.04789 65.9875L36.7821 65.9882C38.7799 65.9882 40.0826 64.9897 40.5522 63.1003L40.7856 62.163L38.5063 62.6771L37.2726 62.7724C35.1375 62.7698 33.3172 62.0153 31.7565 60.4633C30.2002 58.9132 29.4422 57.0833 29.4422 54.8695C29.4422 52.6837 30.2038 50.8564 31.7705 49.2835C33.3364 47.7115 35.1515 46.9473 37.3215 46.9473C39.1287 46.9473 40.7297 47.4972 42.0805 48.5841C43.4444 49.6795 44.4 51.1195 44.9238 52.8621L45.0864 53.5799L45.2018 55.5532L45.2647 57.2415L45.3093 59.1344L45.179 62.9787L45.0723 64.7099L44.9928 65.2415C44.9876 65.3683 44.9858 65.4452 44.9823 65.4951L44.9412 65.5554V65.7381C44.9412 65.7381 44.9403 65.7949 44.8748 65.9246L44.8459 65.9829L44.8293 66.0452C44.7655 66.3049 44.6746 66.5685 44.5583 66.8413C44.4376 67.1239 44.254 67.4761 44.0092 67.897C43.6097 68.6577 43.1261 69.2518 42.564 69.6872C42.112 70.0833 41.6722 70.3685 41.2263 70.5606L40.5976 70.7803L39.8265 70.8597L38.2676 70.9869H7.58343ZM37.1922 51.2332C36.2549 51.2332 35.4365 51.5785 34.7633 52.2614C34.091 52.9425 33.75 53.7766 33.75 54.7401C33.75 55.6651 34.07 56.4887 34.7012 57.1882C35.4671 57.9034 36.2916 58.2469 37.1922 58.2469C38.1277 58.2469 38.9513 57.8972 39.6411 57.21C39.9987 56.8507 40.2636 56.4608 40.4297 56.0524C40.5933 55.6441 40.6772 55.2026 40.6772 54.7401C40.6772 53.8229 40.3353 53.002 39.6595 52.2999C38.9775 51.5926 38.1478 51.2332 37.1922 51.2332Z" fill="white"/>
<path d="M73.0296 80.28C72.8387 80.28 72.6728 80.2695 72.5292 80.2446C72.3909 80.221 72.2696 80.1934 72.1666 80.1593C70.8276 79.8026 70.2217 79.0459 70.2217 77.7705C70.2217 76.6872 70.5253 75.9705 71.1502 75.5797C71.2459 75.5351 71.541 75.421 72.141 75.2806C72.2755 75.2734 72.3935 75.2479 72.4977 75.2006C72.8892 75.0846 73.1902 74.9193 73.4125 74.697C73.6053 74.5042 73.6728 74.3561 73.6728 72.7679L73.6945 68.6092L73.6512 59.3504L73.6302 56.7406C73.7246 55.9135 73.8728 55.458 73.9797 55.235C74.4361 54.2418 75.1751 53.7827 76.3115 53.7827C77.3974 53.7827 78.124 54.2374 78.6014 55.2149C78.6722 55.3889 78.8059 55.8409 78.9574 56.835L78.9502 66.2249H87.2669L86.5305 64.2763C86.2584 63.4597 86.1161 62.7463 86.1161 62.1788V61.3168L86.2007 60.174C86.2027 59.9362 86.2046 59.8024 86.2105 59.7246C86.2105 59.7246 86.2184 59.6608 86.2794 59.4772L86.7555 58.0066C87.1863 57.0509 87.8814 56.0997 88.7968 55.2385C89.9791 54.1893 91.5692 53.4444 93.5135 53.0361L94.2873 52.9373L95.061 52.8979C96.2696 52.8988 97.4322 53.2057 98.4853 53.8107C99.2919 54.2427 99.9961 54.8188 100.59 55.5305L101.457 56.6732L101.987 57.5161C102.279 58.0424 102.435 58.7139 102.435 59.4842C102.435 60.0647 102.324 60.5814 102.108 61.0195C101.909 61.4243 101.576 61.7338 101.093 61.9646C101.001 62.0004 100.898 62.0381 100.817 62.0634C100.726 62.0914 100.551 62.1386 100.293 62.2068L99.5797 62.2776C99.1286 62.2741 98.762 62.1045 98.4886 61.7399L98.1719 60.9443L97.6938 59.7945C97.4925 59.3084 97.2787 58.9465 97.04 58.6894C96.4079 57.9541 95.545 57.5721 94.4912 57.5721C92.9358 57.5721 91.8204 58.1202 91.1758 59.2C90.9948 59.5419 90.861 59.903 90.764 60.3008C90.6669 60.6986 90.6178 61.1419 90.6178 61.6193V61.9637C90.6178 62.978 91.0918 64.0001 92.0289 65.0011C92.3581 65.3631 92.8105 65.7338 93.4079 66.1272L93.5568 66.2249H104.532V66.2033H107.916L107.536 64.5273L107.393 63.5375L107.357 62.268C107.357 61.4304 107.522 60.4704 107.847 59.4361C108.159 58.4429 108.807 57.489 109.773 56.6007C110.841 55.6014 111.965 54.922 113.119 54.5775C114.312 54.2217 115.35 54.0416 116.206 54.0416L117.316 54.1054C117.517 54.1063 117.83 54.1482 118.373 54.3484L119.225 54.6536L120.98 55.7412C122.076 56.4625 122.955 57.6848 123.583 59.3688C123.988 60.446 124.193 61.4418 124.193 62.3301C124.193 62.6955 124.152 63.1021 124.073 63.5401L123.795 64.9312L123.672 65.3631L122.753 67.097C122.19 68.1436 121.298 69.0393 120.104 69.7547C119.519 70.1147 118.86 70.3974 118.139 70.5974L116.033 71.0636L115.187 71.1633L113.837 71.2452L82.9614 71.2446V71.2662H78.9502V75.7436C78.9502 75.8374 78.9377 75.9665 78.9135 76.1331L78.8263 76.8105C78.6532 77.7108 78.3292 78.4465 77.8728 78.958C77.4191 79.4675 76.7941 79.8406 76.0158 80.0656L74.9207 80.2446L73.0296 80.28ZM115.624 58.866C114.661 58.866 113.82 59.214 113.125 59.8995C112.427 60.5902 112.075 61.4365 112.075 62.4158C112.075 63.3968 112.429 64.244 113.124 64.9312C113.82 65.6193 114.661 65.9672 115.624 65.9672C116.569 65.9672 117.405 65.6298 118.113 64.9635C118.832 64.2877 119.196 63.4317 119.196 62.4158C119.196 61.4549 118.851 60.6147 118.173 59.9187C117.493 59.221 116.635 58.866 115.624 58.866Z" fill="white"/>
<path d="M65.0743 57.0369C64.2436 56.2063 63.3169 55.5829 62.3202 55.1851C61.3164 54.7829 60.2297 54.5801 59.0922 54.5801C57.1101 54.5801 55.3335 55.1895 53.8105 56.3925C52.2856 57.5965 51.2898 59.0986 50.8439 60.8778C50.7905 61.064 50.7442 61.2555 50.704 61.4548C50.6664 61.6463 50.6393 61.8072 50.6288 61.9104L50.5649 63.0199C50.5649 63.8592 50.697 64.7099 50.9593 65.5493C51.2242 66.3984 51.5354 67.1237 51.8834 67.7073C52.2236 68.2797 52.6895 68.8417 53.2657 69.3781C54.3298 70.3735 55.8108 71.0555 57.7816 71.4279L58.6078 71.5879L56.7752 74.7001L56.7647 74.6975C56.5426 74.9191 54.6 75.0843 54.2074 75.2011C54.1042 75.2483 53.9853 75.2732 53.8506 75.2804C53.2508 75.4214 52.9554 75.5348 52.86 75.5794C52.2358 75.9702 51.9315 76.687 51.9315 77.7702C51.9315 79.0463 52.5383 79.8024 53.876 80.1584C53.9792 80.1932 54.1007 80.2214 54.2388 80.245C54.3823 80.2693 54.5484 80.2798 54.739 80.2798L56.6301 80.245L57.7256 80.0653C58.5038 79.8411 59.1289 79.4673 59.5826 78.9578C59.8223 78.6883 60.0225 78.3545 60.1868 77.9709L60.8198 76.8437L61.8498 75.0863L66.5149 66.7473C66.808 66.2548 67.0651 65.6725 67.2802 65.0124C67.49 64.3715 67.5956 63.6791 67.5956 62.9552C67.5956 60.6277 66.7733 58.6937 65.0743 57.0369ZM61.4004 65.5222C60.6983 66.1886 59.8642 66.5256 58.9182 66.5256C57.9084 66.5256 57.0498 66.1729 56.3695 65.475C55.6911 64.7799 55.3475 63.9466 55.3475 62.9989C55.3475 62.0327 55.7007 61.1943 56.3984 60.5027C57.0926 59.8181 57.9407 59.4693 58.9182 59.4693C59.9167 59.4693 60.7682 59.8295 61.4502 60.5368C62.1261 61.2397 62.4697 62.0677 62.4697 62.9989C62.4697 63.9965 62.1095 64.8463 61.4004 65.5222Z" fill="white"/>
</g>
<defs>
<clipPath id="clip0_1_162">
<rect width="125.246" height="120" fill="white" transform="translate(0 0.321777)"/>
</clipPath>
</defs>
</svg>
