<svg width="90" height="36" viewBox="0 0 90 36" fill="none" xmlns="http://www.w3.org/2000/svg">
<path d="M80.7568 13.1444C80.5509 12.9914 43.4211 -14.477 3.04779 11.4569C3.04779 11.4569 46.921 -7.53061 71.6906 15.5365C69.2355 17.5772 67.6709 20.6539 67.6709 24.0961C67.6709 30.2426 72.6532 35.2236 78.7988 35.2236C84.9444 35.2236 89.926 30.2426 89.926 24.0961C89.926 18.6194 85.968 14.0703 80.7568 13.1444ZM78.7988 32.5097C74.1595 32.5097 70.385 28.7361 70.385 24.0961C70.385 19.4569 74.1595 15.6834 78.7988 15.6834C83.4375 15.6834 87.2119 19.4569 87.2119 24.0961C87.2119 28.7361 83.4375 32.5097 78.7988 32.5097Z" fill="white"/>
<path d="M75.639 24.0961C75.639 26.0195 77.1977 27.5794 79.1223 27.5794C81.0455 27.5794 82.6055 26.0195 82.6055 24.0961C82.6055 22.1726 81.0455 20.6128 79.1223 20.6128C77.1977 20.6128 75.639 22.1726 75.639 24.0961Z" fill="#1781F8"/>
<path d="M8.87213 23.9093C8.87213 25.8686 10.4608 27.4573 12.4201 27.4573C14.3803 27.4573 15.969 25.8686 15.969 23.9093C15.969 21.9499 14.3803 20.3613 12.4201 20.3613C10.4608 20.3613 8.87213 21.9499 8.87213 23.9093Z" fill="#1781F8"/>
<path d="M64.1335 25.707C61.2653 28.7163 57.0063 29.9037 53.0037 28.7531C50.8142 28.1235 48.7938 27.0333 46.6648 26.2376C44.8462 25.5583 42.9594 25.0591 41.0429 24.7531C32.8715 23.4468 24.0593 24.8178 18.2976 30.7911C16.6433 32.6045 14.6666 33.2209 12.2141 33.2209C7.3922 33.2209 3.47003 29.2986 3.47003 24.4768C3.47003 19.655 7.3922 15.7327 12.2141 15.7327C14.0327 15.7327 15.7761 16.2853 17.2545 17.3301C17.8779 17.7717 18.7409 17.623 19.1815 16.9996C19.6222 16.3763 19.4744 15.5133 18.851 15.0727C16.9022 13.6956 14.6071 12.9673 12.2141 12.9673C5.86826 12.9673 0.705444 18.1301 0.705444 24.4768C0.705444 30.8226 5.86826 35.9854 12.2141 35.9854C15.4193 35.9854 18.3885 34.8567 20.5612 32.5048C26.9227 27.4696 35.3538 25.9535 43.1658 28.0195C47.3013 29.1142 51.0266 31.6934 55.3696 31.9504C59.3558 32.1856 63.344 30.5358 66.0863 27.6593C67.3119 26.3732 65.3624 24.4173 64.1335 25.707Z" fill="white"/>
</svg>
