<svg width="97" height="96" viewBox="0 0 97 96" fill="none" xmlns="http://www.w3.org/2000/svg">
<path d="M65.7145 14.3402C65.7145 18.1802 62.5849 21.3098 58.7449 21.3098H47.2441C42.6745 21.3098 38.7193 23.844 36.6649 27.5688H43.4809C44.5753 26.8776 45.8619 26.4746 47.2441 26.4746H58.7449C65.4265 26.4746 70.8793 21.041 70.8793 14.3402V8.81061H65.7145V14.3402ZM48.0286 30.4454H27.3751C25.0938 30.4454 23.2444 32.2949 23.2444 34.576V75.7485C23.2444 78.0299 25.094 79.8792 27.3751 79.8792H48.0286C50.3099 79.8792 52.1593 78.0297 52.1593 75.7485V34.576C52.1593 32.2949 50.3099 30.4454 48.0286 30.4454ZM35.3785 82.7688H29.1961V93.0308C29.1959 93.0364 29.1911 93.0416 29.1911 93.0472C29.1911 93.6176 30.5781 94.0797 32.289 94.0797C34.0001 94.0797 35.3871 93.6174 35.3871 93.0472C35.3871 93.0372 35.379 93.028 35.3783 93.0182L35.3785 82.7688ZM46.2073 82.7688H40.0249V90.0712C40.0241 90.0806 40.0166 90.0894 40.0166 90.0986C40.0166 90.669 41.4036 91.1312 43.1147 91.1312C44.8256 91.1312 46.2126 90.669 46.2126 90.0986C46.2126 90.0927 46.2076 90.0871 46.2075 90.0811L46.2073 82.7688ZM72.7904 1.91992H63.6203C63.0628 1.91992 62.5877 2.37419 62.5877 2.9525V4.89746C62.5877 5.47576 63.0628 5.93003 63.6203 5.93003H72.7904C73.3482 5.93003 73.823 5.47576 73.823 4.89746V2.9525C73.823 2.37419 73.348 1.91992 72.7904 1.91992Z" fill="#1781F8"/>
<path d="M35.3784 82.7688H29.196V93.0308C29.1958 93.0364 29.191 93.0416 29.191 93.0472C29.191 93.6176 30.578 94.0797 32.289 94.0797C34.0001 94.0797 35.3871 93.6174 35.3871 93.0472C35.3871 93.0372 35.379 93.028 35.3782 93.0182L35.3784 82.7688ZM46.2072 82.7688H40.0248V90.0712C40.0241 90.0806 40.0166 90.0894 40.0166 90.0986C40.0166 90.669 41.4036 91.1312 43.1147 91.1312C44.8256 91.1312 46.2126 90.669 46.2126 90.0986C46.2126 90.0927 46.2076 90.0871 46.2074 90.0811L46.2072 82.7688ZM72.7904 1.91992H63.6203C63.0627 1.91992 62.5877 2.37419 62.5877 2.9525V4.89746C62.5877 5.47576 63.0627 5.93003 63.6203 5.93003H72.7904C73.3482 5.93003 73.823 5.47576 73.823 4.89746V2.9525C73.823 2.37419 73.348 1.91992 72.7904 1.91992Z" fill="#060B56"/>
</svg>
