<svg width="24" height="24" viewBox="0 0 24 24" fill="none" xmlns="http://www.w3.org/2000/svg">
<rect x="0.253235" y="0.155029" width="23.6899" height="23.6899" rx="3.94832" fill="#060B56"/>
<path d="M19.9401 10.8917C19.8945 10.8578 11.6789 4.77999 2.74567 10.5183C2.74567 10.5183 12.4534 6.317 17.934 11.421C17.3908 11.8725 17.0446 12.5533 17.0446 13.3149C17.0446 14.6749 18.147 15.7771 19.5068 15.7771C20.8666 15.7771 21.9689 14.6749 21.9689 13.3149C21.9689 12.1031 21.0931 11.0966 19.9401 10.8917ZM19.5068 15.1766C18.4803 15.1766 17.6452 14.3416 17.6452 13.3149C17.6452 12.2884 18.4803 11.4535 19.5068 11.4535C20.5332 11.4535 21.3684 12.2884 21.3684 13.3149C21.3684 14.3416 20.5332 15.1766 19.5068 15.1766Z" fill="white"/>
<path d="M18.8077 13.3149C18.8077 13.7405 19.1526 14.0857 19.5784 14.0857C20.004 14.0857 20.3491 13.7405 20.3491 13.3149C20.3491 12.8893 20.004 12.5442 19.5784 12.5442C19.1526 12.5442 18.8077 12.8893 18.8077 13.3149Z" fill="#1781F8"/>
<path d="M4.03424 13.2736C4.03424 13.7071 4.38576 14.0586 4.8193 14.0586C5.25302 14.0586 5.60454 13.7071 5.60454 13.2736C5.60454 12.84 5.25302 12.4885 4.8193 12.4885C4.38576 12.4885 4.03424 12.84 4.03424 13.2736Z" fill="#1781F8"/>
<path d="M16.2618 13.6714C15.6272 14.3373 14.6848 14.6 13.7991 14.3454C13.3147 14.2061 12.8677 13.9649 12.3966 13.7888C11.9942 13.6385 11.5767 13.5281 11.1526 13.4603C9.34458 13.1713 7.39473 13.4747 6.11985 14.7964C5.75382 15.1976 5.31642 15.334 4.77378 15.334C3.70685 15.334 2.83901 14.4661 2.83901 13.3992C2.83901 12.3323 3.70685 11.4644 4.77378 11.4644C5.17616 11.4644 5.56192 11.5867 5.88905 11.8179C6.02699 11.9156 6.21793 11.8827 6.31543 11.7448C6.41293 11.6068 6.38024 11.4159 6.2423 11.3184C5.81109 11.0137 5.30326 10.8525 4.77378 10.8525C3.36965 10.8525 2.22729 11.9949 2.22729 13.3992C2.22729 14.8033 3.36965 15.9457 4.77378 15.9457C5.48299 15.9457 6.13997 15.6959 6.62071 15.1755C8.0283 14.0614 9.89381 13.726 11.6223 14.1831C12.5374 14.4253 13.3617 14.996 14.3226 15.0529C15.2047 15.1049 16.0871 14.7399 16.6939 14.1034C16.9651 13.8188 16.5337 13.386 16.2618 13.6714Z" fill="white"/>
</svg>
