<svg width="97" height="96" viewBox="0 0 97 96" fill="none" xmlns="http://www.w3.org/2000/svg">
<path d="M48.4666 15C50.1235 15 51.4666 13.6569 51.4666 12C51.4666 10.3431 50.1235 9 48.4666 9C46.8098 9 45.4666 10.3431 45.4666 12C45.4666 13.6569 46.8098 15 48.4666 15Z" fill="#060B56"/>
<path d="M30.4666 19.5C32.1235 19.5 33.4666 18.1569 33.4666 16.5C33.4666 14.8431 32.1235 13.5 30.4666 13.5C28.8098 13.5 27.4666 14.8431 27.4666 16.5C27.4666 18.1569 28.8098 19.5 30.4666 19.5Z" fill="#060B56"/>
<path d="M66.4666 19.5C68.1235 19.5 69.4666 18.1569 69.4666 16.5C69.4666 14.8431 68.1235 13.5 66.4666 13.5C64.8098 13.5 63.4666 14.8431 63.4666 16.5C63.4666 18.1569 64.8098 19.5 66.4666 19.5Z" fill="#060B56"/>
<path d="M77.7016 20.88L80.2816 18.315C80.5626 18.0318 80.7203 17.649 80.7203 17.25C80.7203 16.851 80.5626 16.4682 80.2816 16.185C76.1204 11.9964 71.17 8.6745 65.7168 6.41134C60.2636 4.14818 54.4158 2.98871 48.5116 3H48.4516C42.5417 2.98025 36.6869 4.13574 31.2276 6.39928C25.7684 8.66281 20.8136 11.9892 16.6516 16.185C16.3706 16.4682 16.2129 16.851 16.2129 17.25C16.2129 17.649 16.3706 18.0318 16.6516 18.315L19.2316 20.88C13.2278 26.7007 9.09811 34.1811 7.37157 42.3632C5.64503 50.5452 6.4002 59.0564 9.54036 66.8066C12.6805 74.5568 18.0627 81.1933 24.9976 85.866C31.9325 90.5387 40.1044 93.0349 48.4666 93.0349C56.8288 93.0349 65.0007 90.5387 71.9356 85.866C78.8705 81.1933 84.2527 74.5568 87.3928 66.8066C90.533 59.0564 91.2882 50.5452 89.5616 42.3632C87.8351 34.1811 83.7054 26.7007 77.7016 20.88ZM48.4516 6H48.5116C59.1187 5.98148 69.3333 10.0104 77.0716 17.265L68.5966 25.77C63.107 20.7527 55.9336 17.9796 48.4966 18H48.4366C41.0067 17.9786 33.8392 20.746 28.3516 25.755L19.8616 17.265C27.6024 9.99534 37.8324 5.96454 48.4516 6ZM48.4666 90C40.7006 90.005 33.1102 87.6898 26.669 83.3514C20.2278 79.013 15.2295 72.8493 12.3153 65.6508C9.40112 58.4523 8.70386 50.5473 10.313 42.9499C11.9221 35.3524 15.7643 28.4089 21.3466 23.01L27.2566 28.92C27.5409 29.1989 27.9233 29.3551 28.3216 29.3551C28.7199 29.3551 29.1023 29.1989 29.3866 28.92C31.8789 26.3996 34.8486 24.401 38.122 23.0412C41.3954 21.6813 44.907 20.9874 48.4516 21H48.4966C52.0388 20.9889 55.5476 21.6836 58.8184 23.0434C62.0892 24.4032 65.0563 26.401 67.5466 28.92C67.8326 29.1963 68.2139 29.352 68.6116 29.355H68.6266C69.0243 29.352 69.4056 29.1963 69.6916 28.92L75.5866 23.01C81.1689 28.4089 85.0111 35.3524 86.6202 42.9499C88.2293 50.5473 87.5321 58.4523 84.6179 65.6508C81.7037 72.8493 76.7054 79.013 70.2642 83.3514C63.823 87.6898 56.2326 90.005 48.4666 90Z" fill="#060B56"/>
<path d="M64.9666 51C64.9666 47.7366 63.9989 44.5465 62.1858 41.8331C60.3728 39.1197 57.7958 37.0048 54.7809 35.756C51.7659 34.5071 48.4483 34.1804 45.2476 34.8171C42.0469 35.4537 39.1069 37.0252 36.7993 39.3327C34.4918 41.6403 32.9203 44.5803 32.2836 47.781C31.647 50.9817 31.9737 54.2993 33.2226 57.3143C34.4714 60.3293 36.5863 62.9062 39.2997 64.7193C42.0131 66.5323 45.2032 67.5 48.4666 67.5C52.8411 67.4948 57.0349 65.7548 60.1282 62.6616C63.2214 59.5683 64.9614 55.3745 64.9666 51ZM34.9666 51C34.9666 48.33 35.7584 45.7199 37.2417 43.4998C38.7251 41.2797 40.8336 39.5494 43.3004 38.5276C45.7672 37.5058 48.4816 37.2385 51.1003 37.7594C53.7191 38.2803 56.1245 39.5661 58.0125 41.4541C59.9005 43.3421 61.1863 45.7475 61.7072 48.3663C62.2281 50.985 61.9607 53.6994 60.939 56.1662C59.9172 58.633 58.1869 60.7414 55.9668 62.2248C53.7467 63.7082 51.1366 64.5 48.4666 64.5C44.8875 64.4956 41.4563 63.0719 38.9255 60.5411C36.3947 58.0103 34.971 54.5791 34.9666 51ZM75.4666 51C75.4583 58.1583 72.6109 65.021 67.5493 70.0827C62.4876 75.1444 55.6249 77.9917 48.4666 78V81C56.4203 80.9909 64.0456 77.8272 69.6697 72.2031C75.2938 66.579 78.4575 58.9537 78.4666 51H75.4666Z" fill="#1781F8"/>
<path d="M55.9666 51C55.9666 49.5166 55.5267 48.0666 54.7026 46.8332C53.8785 45.5999 52.7072 44.6386 51.3367 44.0709C49.9663 43.5032 48.4583 43.3547 47.0034 43.6441C45.5486 43.9335 44.2122 44.6478 43.1633 45.6967C42.1144 46.7456 41.4001 48.082 41.1107 49.5368C40.8213 50.9917 40.9699 52.4997 41.5375 53.8701C42.1052 55.2406 43.0665 56.4119 44.2998 57.236C45.5332 58.0601 46.9832 58.5 48.4666 58.5C50.455 58.4976 52.3613 57.7067 53.7673 56.3007C55.1733 54.8947 55.9642 52.9884 55.9666 51ZM43.9666 51C43.9666 50.11 44.2305 49.24 44.725 48.4999C45.2195 47.7599 45.9223 47.1831 46.7445 46.8425C47.5668 46.5019 48.4716 46.4128 49.3445 46.5865C50.2174 46.7601 51.0193 47.1887 51.6486 47.818C52.2779 48.4474 52.7065 49.2492 52.8801 50.1221C53.0538 50.995 52.9647 51.8998 52.6241 52.7221C52.2835 53.5443 51.7067 54.2471 50.9667 54.7416C50.2267 55.2361 49.3566 55.5 48.4666 55.5C47.2731 55.5 46.1285 55.0259 45.2846 54.182C44.4407 53.3381 43.9666 52.1935 43.9666 51ZM15.4666 51C15.455 55.3353 16.3033 59.6299 17.9625 63.6351C19.6216 67.6404 22.0587 71.2769 25.1326 74.334L27.2536 72.213C24.4593 69.4336 22.2439 66.1277 20.7356 62.4865C19.2274 58.8453 18.4561 54.9412 18.4666 51H15.4666ZM48.4666 28.5V25.5C41.7059 25.5075 35.2243 28.1966 30.4437 32.9771C25.6632 37.7577 22.9742 44.2393 22.9666 51H25.9666C25.9734 45.0347 28.3461 39.3157 32.5642 35.0976C36.7823 30.8794 42.5013 28.5067 48.4666 28.5Z" fill="#1781F8"/>
<path d="M49.9666 39H46.9666V42H49.9666V39Z" fill="#060B56"/>
<path d="M41.0416 41.4536L38.9203 43.575L41.0416 45.6963L43.1629 43.575L41.0416 41.4536Z" fill="#060B56"/>
<path d="M39.4666 49.5H36.4666V52.5H39.4666V49.5Z" fill="#060B56"/>
<path d="M41.0416 56.3037L38.9203 58.425L41.0416 60.5464L43.1629 58.425L41.0416 56.3037Z" fill="#060B56"/>
<path d="M49.9666 60H46.9666V63H49.9666V60Z" fill="#060B56"/>
<path d="M55.8916 56.3037L53.7703 58.425L55.8916 60.5464L58.0129 58.425L55.8916 56.3037Z" fill="#060B56"/>
<path d="M60.4666 49.5H57.4666V52.5H60.4666V49.5Z" fill="#060B56"/>
<path d="M55.8916 41.4536L53.7703 43.575L55.8916 45.6963L58.0129 43.575L55.8916 41.4536Z" fill="#060B56"/>
</svg>
