<svg width="97" height="96" viewBox="0 0 97 96" fill="none" xmlns="http://www.w3.org/2000/svg">
<path d="M49.463 34.5957C49.1131 34.5952 48.7741 34.4738 48.5034 34.2521C48.2328 34.0303 48.0472 33.7218 47.978 33.3788L46.8961 27.9825L44.1942 29.67C43.9812 29.8034 43.7384 29.8818 43.4876 29.8981C43.2368 29.9144 42.9859 29.8682 42.7574 29.7635C42.5289 29.6588 42.33 29.499 42.1786 29.2984C42.0272 29.0979 41.9279 28.8628 41.8898 28.6144L40.7067 20.8594C40.646 20.4616 40.7459 20.056 40.9843 19.7318C41.2227 19.4076 41.5801 19.1913 41.978 19.1307C42.3758 19.07 42.7814 19.1699 43.1056 19.4083C43.4298 19.6467 43.646 20.0041 43.7067 20.4019L44.5411 25.8769L47.1492 24.2438C47.357 24.1153 47.5929 24.039 47.8366 24.0214C48.0803 24.0039 48.3247 24.0457 48.5487 24.1432C48.7728 24.2406 48.9699 24.3909 49.1233 24.5812C49.2766 24.7714 49.3816 24.996 49.4292 25.2357L50.9442 32.7825C50.9833 32.9777 50.9835 33.1786 50.9449 33.3738C50.9063 33.5691 50.8297 33.7548 50.7193 33.9204C50.6089 34.086 50.4669 34.2282 50.3016 34.3389C50.1362 34.4496 49.9506 34.5267 49.7555 34.5657C49.6592 34.5852 49.5612 34.5953 49.463 34.5957ZM58.8811 34.5957C58.7803 34.5958 58.6798 34.5857 58.5811 34.5657C58.3859 34.5267 58.2004 34.4496 58.035 34.3389C57.8696 34.2282 57.7277 34.086 57.6173 33.9204C57.5069 33.7548 57.4302 33.5691 57.3916 33.3738C57.353 33.1786 57.3533 32.9777 57.3923 32.7825L58.9073 25.2357C58.9551 24.9951 59.0607 24.7697 59.215 24.579C59.3692 24.3882 59.5675 24.2379 59.7928 24.1408C60.0181 24.0438 60.2636 24.0029 60.5082 24.0219C60.7527 24.0408 60.989 24.1189 61.1967 24.2494L63.8048 25.875L64.6411 20.4C64.6711 20.2031 64.7397 20.0139 64.8428 19.8434C64.9459 19.6729 65.0816 19.5244 65.2422 19.4064C65.4027 19.2883 65.5849 19.2031 65.7784 19.1554C65.9719 19.1078 66.1729 19.0988 66.3698 19.1288C66.5668 19.1588 66.756 19.2274 66.9264 19.3305C67.0969 19.4336 67.2455 19.5694 67.3635 19.7299C67.4815 19.8904 67.5668 20.0726 67.6144 20.2661C67.6621 20.4596 67.6711 20.6606 67.6411 20.8575L66.4561 28.6125C66.4183 28.8609 66.3193 29.096 66.1681 29.2966C66.0168 29.4972 65.8181 29.657 65.5897 29.7617C65.3614 29.8664 65.1105 29.9127 64.8598 29.8964C64.6091 29.88 64.3664 29.8016 64.1536 29.6682L61.4517 27.9807L60.3661 33.375C60.2976 33.7187 60.1123 34.0281 59.8416 34.2506C59.5709 34.4731 59.2315 34.5951 58.8811 34.5957ZM42.6661 76.875C42.4176 76.8746 42.1731 76.8132 41.9539 76.6962C41.7348 76.5791 41.5477 76.41 41.4092 76.2038C41.2707 75.9975 41.185 75.7603 41.1596 75.5132C41.1342 75.266 41.1699 75.0164 41.2636 74.7863L43.6767 68.8838C43.7693 68.6563 43.9157 68.4547 44.1035 68.2964C44.2912 68.1381 44.5147 68.0278 44.7545 67.9751C44.9944 67.9223 45.2435 67.9286 45.4803 67.9935C45.7172 68.0584 45.9347 68.1799 46.1142 68.3475L47.6892 69.8138L49.0936 65.865C49.1603 65.6775 49.2633 65.505 49.3967 65.3573C49.5301 65.2096 49.6913 65.0897 49.8711 65.0043C50.0508 64.9189 50.2457 64.8697 50.4444 64.8596C50.6432 64.8495 50.842 64.8786 51.0295 64.9454C51.217 65.0121 51.3896 65.1151 51.5372 65.2485C51.6849 65.3819 51.8049 65.5431 51.8903 65.7229C51.9757 65.9026 52.0249 66.0975 52.035 66.2962C52.0451 66.495 52.0159 66.6938 51.9492 66.8813L49.7723 73.0032C49.6887 73.2402 49.5473 73.4526 49.361 73.6213C49.1746 73.79 48.9492 73.9096 48.7051 73.9693C48.461 74.029 48.2058 74.027 47.9626 73.9634C47.7195 73.8998 47.496 73.7767 47.3123 73.605L45.6548 72.0619L44.0705 75.9375C43.9558 76.2155 43.7611 76.4531 43.511 76.6201C43.2609 76.787 42.9668 76.8758 42.6661 76.875ZM66.9586 76.875C66.6582 76.8754 66.3645 76.7865 66.1148 76.6196C65.8651 76.4526 65.6706 76.2152 65.5561 75.9375L63.9736 72.0657L62.3161 73.6088C62.1323 73.7804 61.9086 73.9035 61.6654 73.9671C61.4221 74.0306 61.1668 74.0327 60.9226 73.9729C60.6783 73.9132 60.4527 73.7937 60.2662 73.625C60.0797 73.4564 59.9381 73.2439 59.8542 73.0069L57.6792 66.885C57.6125 66.6975 57.5833 66.4987 57.5934 66.3C57.6035 66.1012 57.6527 65.9064 57.7381 65.7266C57.8235 65.5468 57.9435 65.3856 58.0912 65.2522C58.2389 65.1188 58.4114 65.0158 58.5989 64.9491C58.9776 64.8143 59.3943 64.8355 59.7573 65.008C59.9371 65.0934 60.0983 65.2134 60.2317 65.3611C60.3651 65.5088 60.4681 65.6813 60.5348 65.8688L61.9373 69.8175L63.5142 68.3513C63.6937 68.1837 63.9112 68.0621 64.1481 67.9973C64.385 67.9324 64.634 67.926 64.8739 67.9788C65.1138 68.0316 65.3372 68.1419 65.5249 68.3002C65.7127 68.4585 65.8592 68.6601 65.9517 68.8875L68.3667 74.7901C68.4603 75.0204 68.4957 75.2702 68.4698 75.5175C68.444 75.7648 68.3577 76.0019 68.2185 76.208C68.0794 76.414 67.8917 76.5826 67.6719 76.699C67.4522 76.8153 67.2072 76.8758 66.9586 76.875ZM42.803 60.0563H36.7411C36.3391 60.0563 35.9536 59.8967 35.6692 59.6127C35.3847 59.3286 35.2247 58.9433 35.2242 58.5413V39.2925C35.2247 38.8906 35.3847 38.5052 35.6692 38.2212C35.9536 37.9371 36.3391 37.7775 36.7411 37.7775H42.803C43.2049 37.7775 43.5905 37.9371 43.8749 38.2212C44.1593 38.5052 44.3193 38.8906 44.3198 39.2925V58.5413C44.3193 58.9433 44.1593 59.3286 43.8749 59.6127C43.5905 59.8967 43.2049 60.0563 42.803 60.0563ZM38.2561 57.0244H41.288V40.8094H38.2561V57.0244Z" fill="#060B56"/>
<path d="M49.463 34.5957C49.1131 34.5952 48.7741 34.4738 48.5035 34.2521C48.2328 34.0303 48.0472 33.7218 47.978 33.3788L46.8961 27.9825L44.1942 29.67C43.9812 29.8034 43.7384 29.8818 43.4876 29.8981C43.2369 29.9144 42.9859 29.8682 42.7575 29.7635C42.529 29.6588 42.3301 29.499 42.1786 29.2984C42.0272 29.0979 41.928 28.8628 41.8899 28.6144L40.7067 20.8594C40.6461 20.4616 40.7459 20.056 40.9843 19.7318C41.2227 19.4076 41.5802 19.1913 41.978 19.1307C42.3758 19.07 42.7814 19.1699 43.1057 19.4083C43.4299 19.6467 43.6461 20.0041 43.7067 20.4019L44.5411 25.8769L47.1492 24.2438C47.3571 24.1153 47.5929 24.039 47.8366 24.0214C48.0804 24.0039 48.3247 24.0457 48.5488 24.1432C48.7728 24.2406 48.97 24.3909 49.1233 24.5812C49.2766 24.7714 49.3816 24.996 49.4292 25.2357L50.9442 32.7825C50.9833 32.9777 50.9836 33.1786 50.945 33.3738C50.9064 33.5691 50.8297 33.7548 50.7193 33.9204C50.6089 34.086 50.467 34.2282 50.3016 34.3389C50.1362 34.4496 49.9506 34.5267 49.7555 34.5657C49.6592 34.5852 49.5612 34.5953 49.463 34.5957ZM58.8811 34.5957C58.7804 34.5958 58.6799 34.5857 58.5811 34.5657C58.386 34.5267 58.2004 34.4496 58.035 34.3389C57.8696 34.2282 57.7277 34.086 57.6173 33.9204C57.5069 33.7548 57.4302 33.5691 57.3916 33.3738C57.353 33.1786 57.3533 32.9777 57.3924 32.7825L58.9074 25.2357C58.9552 24.9951 59.0607 24.7697 59.215 24.579C59.3692 24.3882 59.5675 24.2379 59.7928 24.1408C60.0181 24.0438 60.2636 24.0029 60.5082 24.0219C60.7528 24.0408 60.9891 24.1189 61.1967 24.2494L63.8049 25.875L64.6411 20.4C64.6712 20.2031 64.7397 20.0139 64.8428 19.8434C64.946 19.6729 65.0817 19.5244 65.2422 19.4064C65.4027 19.2883 65.5849 19.2031 65.7784 19.1554C65.9719 19.1078 66.1729 19.0988 66.3699 19.1288C66.5669 19.1588 66.756 19.2274 66.9265 19.3305C67.097 19.4336 67.2455 19.5694 67.3635 19.7299C67.4816 19.8904 67.5668 20.0726 67.6145 20.2661C67.6621 20.4596 67.6712 20.6606 67.6411 20.8575L66.4561 28.6125C66.4183 28.8609 66.3193 29.096 66.1681 29.2966C66.0169 29.4972 65.8181 29.657 65.5898 29.7617C65.3614 29.8664 65.1106 29.9127 64.8599 29.8964C64.6092 29.88 64.3665 29.8016 64.1536 29.6682L61.4517 27.9807L60.3661 33.375C60.2977 33.7187 60.1124 34.0281 59.8416 34.2506C59.5709 34.4731 59.2315 34.5951 58.8811 34.5957ZM42.6661 76.875C42.4177 76.8746 42.1731 76.8132 41.9539 76.6962C41.7348 76.5791 41.5477 76.41 41.4092 76.2038C41.2707 75.9975 41.185 75.7603 41.1596 75.5132C41.1342 75.266 41.1699 75.0164 41.2636 74.7863L43.6767 68.8838C43.7693 68.6563 43.9157 68.4547 44.1035 68.2964C44.2913 68.1381 44.5147 68.0278 44.7546 67.9751C44.9944 67.9223 45.2435 67.9286 45.4804 67.9935C45.7172 68.0584 45.9348 68.1799 46.1142 68.3475L47.6892 69.8138L49.0936 65.865C49.1603 65.6775 49.2633 65.505 49.3968 65.3573C49.5302 65.2096 49.6913 65.0897 49.8711 65.0043C50.0509 64.9189 50.2457 64.8697 50.4445 64.8596C50.6432 64.8495 50.8421 64.8786 51.0296 64.9454C51.2171 65.0121 51.3896 65.1151 51.5373 65.2485C51.685 65.3819 51.8049 65.5431 51.8903 65.7229C51.9757 65.9026 52.0249 66.0975 52.035 66.2962C52.0451 66.495 52.016 66.6938 51.9492 66.8813L49.7724 73.0032C49.6887 73.2402 49.5473 73.4526 49.361 73.6213C49.1747 73.79 48.9493 73.9096 48.7051 73.9693C48.461 74.029 48.2058 74.027 47.9626 73.9634C47.7195 73.8998 47.496 73.7767 47.3124 73.605L45.6549 72.0619L44.0705 75.9375C43.9559 76.2155 43.7611 76.4531 43.511 76.6201C43.2609 76.787 42.9668 76.8758 42.6661 76.875ZM66.9586 76.875C66.6582 76.8754 66.3645 76.7865 66.1148 76.6196C65.8651 76.4526 65.6706 76.2152 65.5561 75.9375L63.9736 72.0657L62.3161 73.6088C62.1323 73.7804 61.9087 73.9035 61.6654 73.9671C61.4221 74.0306 61.1668 74.0327 60.9226 73.9729C60.6783 73.9132 60.4528 73.7937 60.2663 73.625C60.0798 73.4564 59.9382 73.244 59.8542 73.0069L57.6792 66.885C57.6125 66.6975 57.5834 66.4987 57.5935 66.3C57.6036 66.1012 57.6527 65.9064 57.7381 65.7266C57.8235 65.5468 57.9435 65.3856 58.0912 65.2522C58.2389 65.1188 58.4114 65.0158 58.5989 64.9491C58.9776 64.8143 59.3943 64.8355 59.7574 65.008C59.9371 65.0934 60.0983 65.2134 60.2317 65.3611C60.3651 65.5088 60.4681 65.6813 60.5349 65.8688L61.9374 69.8175L63.5142 68.3513C63.6937 68.1837 63.9113 68.0622 64.1481 67.9973C64.385 67.9324 64.6341 67.926 64.8739 67.9788C65.1138 68.0316 65.3372 68.1419 65.525 68.3002C65.7127 68.4585 65.8592 68.6601 65.9517 68.8875L68.3667 74.7901C68.4603 75.0204 68.4957 75.2702 68.4699 75.5175C68.444 75.7648 68.3577 76.0019 68.2186 76.208C68.0794 76.414 67.8917 76.5826 67.672 76.699C67.4522 76.8153 67.2072 76.8758 66.9586 76.875Z" fill="#1781F8"/>
<path d="M36.7411 58.0106H28.1573C27.7554 58.0105 27.3699 57.8514 27.0848 57.5681L22.0223 52.5056C21.7383 52.2217 21.5785 51.8366 21.5779 51.435V46.3969C21.5788 45.9948 21.7385 45.6093 22.0223 45.3244L27.0848 40.2619C27.3697 39.9781 27.7552 39.8184 28.1573 39.8175H36.7411C37.1339 39.8313 37.506 39.9971 37.779 40.2799C38.052 40.5627 38.2046 40.9404 38.2046 41.3334C38.2046 41.7265 38.052 42.1042 37.779 42.387C37.506 42.6698 37.1339 42.8356 36.7411 42.8494H28.7854L24.6136 47.025V50.8125L28.7854 54.9844H36.7411C37.1429 54.9844 37.5282 55.144 37.8123 55.4281C38.0965 55.7122 38.2561 56.0976 38.2561 56.4994C38.2561 56.9012 38.0965 57.2865 37.8123 57.5706C37.5282 57.8548 37.1429 58.0144 36.7411 58.0144V58.0106Z" fill="#060B56"/>
<path d="M23.0986 50.4375H3.39232C2.99052 50.4375 2.60517 50.2779 2.32105 49.9937C2.03693 49.7096 1.87732 49.3243 1.87732 48.9225C1.87732 48.5207 2.03693 48.1353 2.32105 47.8512C2.60517 47.5671 2.99052 47.4075 3.39232 47.4075H23.0986C23.5004 47.4075 23.8857 47.5671 24.1698 47.8512C24.454 48.1353 24.6136 48.5207 24.6136 48.9225C24.6136 49.3243 24.454 49.7096 24.1698 49.9937C23.8857 50.2779 23.5004 50.4375 23.0986 50.4375ZM68.5711 60.0562H62.5092C62.1072 60.0562 61.7217 59.8967 61.4373 59.6126C61.1528 59.3285 60.9928 58.9432 60.9923 58.5412V39.2925C60.9928 38.8905 61.1528 38.5051 61.4373 38.2211C61.7217 37.937 62.1072 37.7775 62.5092 37.7775H68.5711C68.973 37.7775 69.3586 37.937 69.643 38.2211C69.9274 38.5051 70.0874 38.8905 70.0879 39.2925V58.5412C70.0874 58.9432 69.9274 59.3285 69.643 59.6126C69.3586 59.8967 68.973 60.0562 68.5711 60.0562ZM64.0242 57.0243H67.0542V40.8093H64.0242V57.0243Z" fill="#060B56"/>
<path d="M77.1548 58.0107H68.5711C68.1693 58.0107 67.7839 57.851 67.4998 57.5669C67.2157 57.2828 67.0561 56.8975 67.0561 56.4957C67.0561 56.0939 67.2157 55.7085 67.4998 55.4244C67.7839 55.1403 68.1693 54.9807 68.5711 54.9807H76.5267L80.6986 50.8125V47.025L76.5267 42.8532H68.5711C68.1783 42.8393 67.8061 42.6736 67.5331 42.3908C67.2601 42.108 67.1075 41.7303 67.1075 41.3372C67.1075 40.9442 67.2601 40.5664 67.5331 40.2837C67.8061 40.0009 68.1783 39.8351 68.5711 39.8213H77.1548C77.557 39.8222 77.9424 39.9819 78.2273 40.2657L83.2898 45.3282C83.5743 45.6126 83.7342 45.9984 83.7342 46.4007V51.4407C83.7344 51.6396 83.6952 51.8366 83.6189 52.0203C83.5426 52.2041 83.4308 52.3709 83.2898 52.5113L78.2273 57.5738C77.9413 57.855 77.5559 58.012 77.1548 58.0107Z" fill="#060B56"/>
<path d="M94.3411 50.4375H82.2136C81.8118 50.4375 81.4264 50.2779 81.1423 49.9938C80.8582 49.7096 80.6986 49.3243 80.6986 48.9225C80.6986 48.5207 80.8582 48.1353 81.1423 47.8512C81.4264 47.5671 81.8118 47.4075 82.2136 47.4075H94.3411C94.7429 47.4075 95.1282 47.5671 95.4123 47.8512C95.6964 48.1353 95.8561 48.5207 95.8561 48.9225C95.8561 49.3243 95.6964 49.7096 95.4123 49.9938C95.1282 50.2779 94.7429 50.4375 94.3411 50.4375ZM50.3817 45.885H42.8029C42.4101 45.8712 42.038 45.7054 41.765 45.4226C41.492 45.1398 41.3394 44.7621 41.3394 44.369C41.3394 43.976 41.492 43.5983 41.765 43.3155C42.038 43.0327 42.4101 42.8669 42.8029 42.8531H50.3817C50.5852 42.846 50.7882 42.8799 50.9783 42.9528C51.1685 43.0258 51.342 43.1363 51.4886 43.2778C51.6351 43.4192 51.7517 43.5888 51.8313 43.7763C51.9109 43.9638 51.9519 44.1654 51.9519 44.369C51.9519 44.5727 51.9109 44.7743 51.8313 44.9618C51.7517 45.1493 51.6351 45.3189 51.4886 45.4603C51.342 45.6018 51.1685 45.7123 50.9783 45.7853C50.7882 45.8582 50.5852 45.8921 50.3817 45.885ZM50.3817 54.9806H42.8029C42.4101 54.9668 42.038 54.801 41.765 54.5182C41.492 54.2355 41.3394 53.8577 41.3394 53.4647C41.3394 53.0716 41.492 52.6939 41.765 52.4111C42.038 52.1283 42.4101 51.9626 42.8029 51.9487H50.3817C50.5852 51.9416 50.7882 51.9755 50.9783 52.0484C51.1685 52.1214 51.342 52.2319 51.4886 52.3734C51.6351 52.5149 51.7517 52.6844 51.8313 52.8719C51.9109 53.0594 51.9519 53.261 51.9519 53.4647C51.9519 53.6684 51.9109 53.87 51.8313 54.0575C51.7517 54.2449 51.6351 54.4145 51.4886 54.556C51.342 54.6974 51.1685 54.8079 50.9783 54.8809C50.7882 54.9539 50.5852 54.9878 50.3817 54.9806Z" fill="#060B56"/>
</svg>
