<svg width="147" height="138" viewBox="0 0 147 138" fill="none" xmlns="http://www.w3.org/2000/svg">
<path d="M65.8535 16.3199H90.8135V22.0799H65.8535V16.3199ZM64.8935 23.9999H91.7735V25.9199H64.8935V23.9999ZM68.3495 27.8399H88.3175L86.3975 31.6799H70.2695L68.3495 27.8399ZM37.0535 70.0799H31.2935V43.1999H37.0535V70.0799ZM38.9735 61.4399V51.8399H43.7735V61.4399H38.9735ZM101.373 79.6799H58.6535L55.1015 74.304C54.9095 74.1119 54.6215 73.9199 54.3335 73.9199H45.6935V39.3599H54.3335C54.6215 39.3599 54.9095 39.1679 55.1015 38.9759L58.6535 33.5999H101.373V79.6799ZM103.293 76.7999V36.4799H106.173V76.7999H103.293ZM115.773 74.8799C115.773 77.5679 113.661 79.6799 110.973 79.6799H108.093V33.5999H110.973C113.661 33.5999 115.773 35.7119 115.773 38.3999V74.8799Z" fill="#1781F8"/>
<path d="M65.8535 16.3199H90.8135V22.0799H65.8535V16.3199ZM64.8935 23.9999H91.7735V25.9199H64.8935V23.9999ZM68.3495 27.8399H88.3175L86.3975 31.6799H70.2695L68.3495 27.8399ZM37.0535 70.0799H31.2935V43.1999H37.0535V70.0799ZM103.293 76.7999V36.4799H106.173V76.7999H103.293ZM115.773 74.8799C115.773 77.5679 113.661 79.6799 110.973 79.6799H108.093V33.5999H110.973C113.661 33.5999 115.773 35.7119 115.773 38.3999V74.8799Z" fill="#060B56"/>
<path d="M78.3335 37.4399C67.7735 37.4399 59.1335 46.0799 59.1335 56.6399C59.1335 67.1999 67.7735 75.8399 78.3335 75.8399C88.8935 75.8399 97.5335 67.1999 97.5335 56.6399C97.5335 46.0799 88.8935 37.4399 78.3335 37.4399ZM78.3335 73.9199C68.8295 73.9199 61.0535 66.1439 61.0535 56.6399C61.0535 47.1359 68.8295 39.3599 78.3335 39.3599C87.8375 39.3599 95.6135 47.1359 95.6135 56.6399C95.6135 66.1439 87.8375 73.9199 78.3335 73.9199Z" fill="#1781F8"/>
<path d="M88.5095 46.464C85.9175 43.872 82.2695 42.24 78.3335 42.24C74.3975 42.24 70.7495 43.872 68.1575 46.464C65.5655 49.056 63.9335 52.704 63.9335 56.64C63.9335 60.576 65.5655 64.224 68.1575 66.816C70.7495 69.408 74.3975 71.04 78.3335 71.04C82.2695 71.04 85.9175 69.408 88.5095 66.816C91.1015 64.224 92.7335 60.576 92.7335 56.64C92.7335 52.704 91.1015 49.056 88.5095 46.464ZM87.8375 64.704L81.5975 58.56C81.7895 58.272 81.8855 57.888 81.9815 57.6H90.7175C90.5255 60.288 89.4695 62.784 87.8375 64.704ZM65.9495 57.6H74.6855C74.7815 57.984 74.8775 58.272 75.0695 58.56L68.9255 64.704C67.1975 62.784 66.1415 60.288 65.9495 57.6ZM68.8295 48.576L74.9735 54.72C74.7815 55.008 74.6855 55.392 74.5895 55.68H65.8535C66.1415 52.992 67.1975 50.496 68.8295 48.576ZM78.3335 58.56C77.2775 58.56 76.4135 57.696 76.4135 56.64C76.4135 55.584 77.2775 54.72 78.3335 54.72C79.3895 54.72 80.2535 55.584 80.2535 56.64C80.2535 57.696 79.3895 58.56 78.3335 58.56ZM80.2535 53.376C79.9655 53.184 79.5815 53.088 79.2935 52.992V44.256C81.9815 44.448 84.4775 45.504 86.3975 47.232L80.2535 53.376ZM77.3735 52.896C76.9895 52.992 76.7015 53.088 76.4135 53.28L70.2695 47.136C72.1895 45.504 74.6855 44.352 77.3735 44.16V52.896ZM76.4135 59.904C76.7015 60.096 77.0855 60.192 77.3735 60.288V69.024C74.6855 68.832 72.1895 67.776 70.2695 66.048L76.4135 59.904ZM79.2935 60.384C79.6775 60.288 79.9655 60.192 80.2535 60L86.3975 66.144C84.4775 67.776 81.9815 68.928 79.2935 69.12V60.384ZM82.0775 55.68C81.9815 55.296 81.8855 55.008 81.6935 54.72L87.8375 48.576C89.4695 50.496 90.6215 52.992 90.8135 55.68H82.0775Z" fill="#1781F8"/>
<path d="M55.9033 133V124.624H61.2673V125.824H57.2593V128.152H60.8953V129.352H57.2593V131.8H61.2673V133H55.9033ZM62.9206 133V126.76H64.2286V127.792H64.2886C64.4246 127.456 64.6286 127.176 64.9006 126.952C65.1806 126.728 65.5606 126.616 66.0406 126.616C66.6806 126.616 67.1766 126.828 67.5286 127.252C67.8886 127.668 68.0686 128.264 68.0686 129.04V133H66.7606V129.208C66.7606 128.232 66.3686 127.744 65.5846 127.744C65.4166 127.744 65.2486 127.768 65.0806 127.816C64.9206 127.856 64.7766 127.92 64.6486 128.008C64.5206 128.096 64.4166 128.208 64.3366 128.344C64.2646 128.48 64.2286 128.64 64.2286 128.824V133H62.9206ZM75.3536 133.588C75.3536 134.236 75.1056 134.724 74.6096 135.052C74.1136 135.38 73.3056 135.544 72.1856 135.544C71.6736 135.544 71.2376 135.508 70.8776 135.436C70.5256 135.372 70.2336 135.276 70.0016 135.148C69.7776 135.02 69.6136 134.864 69.5096 134.68C69.4056 134.496 69.3536 134.284 69.3536 134.044C69.3536 133.7 69.4456 133.432 69.6296 133.24C69.8216 133.048 70.0856 132.916 70.4216 132.844V132.712C69.9496 132.56 69.7136 132.24 69.7136 131.752C69.7136 131.432 69.8216 131.188 70.0376 131.02C70.2536 130.844 70.5136 130.72 70.8176 130.648V130.6C70.4496 130.424 70.1656 130.18 69.9656 129.868C69.7736 129.548 69.6776 129.176 69.6776 128.752C69.6776 128.112 69.8896 127.596 70.3136 127.204C70.7456 126.812 71.3616 126.616 72.1616 126.616C72.6016 126.616 72.9776 126.68 73.2896 126.808V126.64C73.2896 126.36 73.3536 126.144 73.4816 125.992C73.6176 125.832 73.8256 125.752 74.1056 125.752H75.0656V126.808H73.7936V127.06C74.0736 127.244 74.2896 127.484 74.4416 127.78C74.5936 128.068 74.6696 128.392 74.6696 128.752C74.6696 129.384 74.4536 129.896 74.0216 130.288C73.5896 130.672 72.9736 130.864 72.1736 130.864C71.8696 130.864 71.5976 130.832 71.3576 130.768C71.1976 130.824 71.0576 130.904 70.9376 131.008C70.8176 131.104 70.7576 131.232 70.7576 131.392C70.7576 131.56 70.8336 131.68 70.9856 131.752C71.1376 131.824 71.3536 131.86 71.6336 131.86H73.1696C73.9376 131.86 74.4936 132.016 74.8376 132.328C75.1816 132.632 75.3536 133.052 75.3536 133.588ZM74.1296 133.732C74.1296 133.516 74.0456 133.344 73.8776 133.216C73.7176 133.088 73.4216 133.024 72.9896 133.024H70.8776C70.5896 133.192 70.4456 133.432 70.4456 133.744C70.4456 134 70.5456 134.204 70.7456 134.356C70.9536 134.516 71.3016 134.596 71.7896 134.596H72.6056C73.6216 134.596 74.1296 134.308 74.1296 133.732ZM72.1736 129.916C72.5576 129.916 72.8536 129.832 73.0616 129.664C73.2776 129.488 73.3856 129.22 73.3856 128.86V128.62C73.3856 128.26 73.2776 127.996 73.0616 127.828C72.8536 127.652 72.5576 127.564 72.1736 127.564C71.7896 127.564 71.4896 127.652 71.2736 127.828C71.0656 127.996 70.9616 128.26 70.9616 128.62V128.86C70.9616 129.22 71.0656 129.488 71.2736 129.664C71.4896 129.832 71.7896 129.916 72.1736 129.916ZM76.9869 125.644C76.7149 125.644 76.5149 125.58 76.3869 125.452C76.2669 125.324 76.2069 125.16 76.2069 124.96V124.756C76.2069 124.556 76.2669 124.392 76.3869 124.264C76.5149 124.136 76.7149 124.072 76.9869 124.072C77.2589 124.072 77.4549 124.136 77.5749 124.264C77.6949 124.392 77.7549 124.556 77.7549 124.756V124.96C77.7549 125.16 77.6949 125.324 77.5749 125.452C77.4549 125.58 77.2589 125.644 76.9869 125.644ZM76.3269 126.76H77.6349V133H76.3269V126.76ZM79.5027 133V126.76H80.8107V127.792H80.8707C81.0067 127.456 81.2107 127.176 81.4827 126.952C81.7627 126.728 82.1427 126.616 82.6227 126.616C83.2627 126.616 83.7587 126.828 84.1107 127.252C84.4707 127.668 84.6507 128.264 84.6507 129.04V133H83.3427V129.208C83.3427 128.232 82.9507 127.744 82.1667 127.744C81.9987 127.744 81.8307 127.768 81.6627 127.816C81.5027 127.856 81.3587 127.92 81.2307 128.008C81.1027 128.096 80.9987 128.208 80.9187 128.344C80.8467 128.48 80.8107 128.64 80.8107 128.824V133H79.5027ZM88.9116 133.144C88.4636 133.144 88.0636 133.068 87.7116 132.916C87.3596 132.764 87.0596 132.548 86.8116 132.268C86.5636 131.98 86.3716 131.636 86.2356 131.236C86.1076 130.828 86.0436 130.376 86.0436 129.88C86.0436 129.384 86.1076 128.936 86.2356 128.536C86.3716 128.128 86.5636 127.784 86.8116 127.504C87.0596 127.216 87.3596 126.996 87.7116 126.844C88.0636 126.692 88.4636 126.616 88.9116 126.616C89.3676 126.616 89.7676 126.696 90.1116 126.856C90.4636 127.016 90.7556 127.24 90.9876 127.528C91.2196 127.808 91.3916 128.136 91.5036 128.512C91.6236 128.888 91.6836 129.292 91.6836 129.724V130.216H87.3996V130.42C87.3996 130.9 87.5396 131.296 87.8196 131.608C88.1076 131.912 88.5156 132.064 89.0436 132.064C89.4276 132.064 89.7516 131.98 90.0156 131.812C90.2796 131.644 90.5036 131.416 90.6876 131.128L91.4556 131.884C91.2236 132.268 90.8876 132.576 90.4476 132.808C90.0076 133.032 89.4956 133.144 88.9116 133.144ZM88.9116 127.636C88.6876 127.636 88.4796 127.676 88.2876 127.756C88.1036 127.836 87.9436 127.948 87.8076 128.092C87.6796 128.236 87.5796 128.408 87.5076 128.608C87.4356 128.808 87.3996 129.028 87.3996 129.268V129.352H90.3036V129.232C90.3036 128.752 90.1796 128.368 89.9316 128.08C89.6836 127.784 89.3436 127.636 88.9116 127.636Z" fill="#010212"/>
</svg>
