<svg width="97" height="96" viewBox="0 0 97 96" fill="none" xmlns="http://www.w3.org/2000/svg">
<path d="M40.8535 16.3198H65.8135V22.0798H40.8535V16.3198ZM39.8935 23.9998H66.7735V25.9198H39.8935V23.9998ZM43.3495 27.8398H63.3175L61.3975 31.6798H45.2695L43.3495 27.8398ZM12.0535 70.0798H6.29349V43.1998H12.0535V70.0798ZM13.9735 61.4398V51.8398H18.7735V61.4398H13.9735ZM76.3735 79.6798H33.6535L30.1015 74.3038C29.9095 74.1118 29.6215 73.9198 29.3335 73.9198H20.6935V39.3598H29.3335C29.6215 39.3598 29.9095 39.1678 30.1015 38.9758L33.6535 33.5998H76.3735V79.6798ZM78.2935 76.7998V36.4798H81.1735V76.7998H78.2935ZM90.7735 74.8798C90.7735 77.5678 88.6615 79.6798 85.9735 79.6798H83.0935V33.5998H85.9735C88.6615 33.5998 90.7735 35.7118 90.7735 38.3998V74.8798Z" fill="#1781F8"/>
<path d="M40.8535 16.3198H65.8135V22.0798H40.8535V16.3198ZM39.8935 23.9998H66.7735V25.9198H39.8935V23.9998ZM43.3495 27.8398H63.3175L61.3975 31.6798H45.2695L43.3495 27.8398ZM12.0535 70.0798H6.29346V43.1998H12.0535V70.0798ZM78.2935 76.7998V36.4798H81.1735V76.7998H78.2935ZM90.7735 74.8798C90.7735 77.5678 88.6615 79.6798 85.9735 79.6798H83.0935V33.5998H85.9735C88.6615 33.5998 90.7735 35.7118 90.7735 38.3998V74.8798Z" fill="#060B56"/>
<path d="M53.3335 37.4399C42.7735 37.4399 34.1335 46.0799 34.1335 56.6399C34.1335 67.1999 42.7735 75.8399 53.3335 75.8399C63.8935 75.8399 72.5335 67.1999 72.5335 56.6399C72.5335 46.0799 63.8935 37.4399 53.3335 37.4399ZM53.3335 73.9199C43.8295 73.9199 36.0535 66.1439 36.0535 56.6399C36.0535 47.1359 43.8295 39.3599 53.3335 39.3599C62.8375 39.3599 70.6135 47.1359 70.6135 56.6399C70.6135 66.1439 62.8375 73.9199 53.3335 73.9199Z" fill="#1781F8"/>
<path d="M63.5095 46.4642C60.9175 43.8722 57.2695 42.2402 53.3335 42.2402C49.3975 42.2402 45.7495 43.8722 43.1575 46.4642C40.5655 49.0562 38.9335 52.7042 38.9335 56.6402C38.9335 60.5762 40.5655 64.2242 43.1575 66.8162C45.7495 69.4082 49.3975 71.0402 53.3335 71.0402C57.2695 71.0402 60.9175 69.4082 63.5095 66.8162C66.1015 64.2242 67.7335 60.5762 67.7335 56.6402C67.7335 52.7042 66.1015 49.0562 63.5095 46.4642ZM62.8375 64.7042L56.5975 58.5602C56.7895 58.2722 56.8855 57.8882 56.9815 57.6002H65.7175C65.5255 60.2882 64.4695 62.7842 62.8375 64.7042ZM40.9495 57.6002H49.6855C49.7815 57.9842 49.8775 58.2722 50.0695 58.5602L43.9255 64.7042C42.1975 62.7842 41.1415 60.2882 40.9495 57.6002ZM43.8295 48.5762L49.9735 54.7202C49.7815 55.0082 49.6855 55.3922 49.5895 55.6802H40.8535C41.1415 52.9922 42.1975 50.4962 43.8295 48.5762ZM53.3335 58.5602C52.2775 58.5602 51.4135 57.6962 51.4135 56.6402C51.4135 55.5842 52.2775 54.7202 53.3335 54.7202C54.3895 54.7202 55.2535 55.5842 55.2535 56.6402C55.2535 57.6962 54.3895 58.5602 53.3335 58.5602ZM55.2535 53.3762C54.9655 53.1842 54.5815 53.0882 54.2935 52.9922V44.2562C56.9815 44.4482 59.4775 45.5042 61.3975 47.2322L55.2535 53.3762ZM52.3735 52.8962C51.9895 52.9922 51.7015 53.0882 51.4135 53.2802L45.2695 47.1362C47.1895 45.5042 49.6855 44.3522 52.3735 44.1602V52.8962ZM51.4135 59.9042C51.7015 60.0962 52.0855 60.1922 52.3735 60.2882V69.0242C49.6855 68.8322 47.1895 67.7762 45.2695 66.0482L51.4135 59.9042ZM54.2935 60.3842C54.6775 60.2882 54.9655 60.1922 55.2535 60.0002L61.3975 66.1442C59.4775 67.7762 56.9815 68.9282 54.2935 69.1202V60.3842ZM57.0775 55.6802C56.9815 55.2962 56.8855 55.0082 56.6935 54.7202L62.8375 48.5762C64.4695 50.4962 65.6215 52.9922 65.8135 55.6802H57.0775Z" fill="#1781F8"/>
</svg>
