<svg width="51" height="94" viewBox="0 0 51 94" fill="none" xmlns="http://www.w3.org/2000/svg">
<path d="M42.7145 13.3402C42.7145 17.1802 39.5849 20.3098 35.7449 20.3098H24.2441C19.6745 20.3098 15.7193 22.844 13.6649 26.5688H20.4809C21.5753 25.8776 22.8619 25.4746 24.2441 25.4746H35.7449C42.4265 25.4746 47.8793 20.041 47.8793 13.3402V7.81061H42.7145V13.3402ZM25.0286 29.4454H4.37515C2.09381 29.4454 0.244461 31.2949 0.244461 33.576V74.7485C0.244461 77.0299 2.094 78.8792 4.37515 78.8792H25.0286C27.3099 78.8792 29.1593 77.0297 29.1593 74.7485V33.576C29.1593 31.2949 27.3099 29.4454 25.0286 29.4454ZM12.3785 81.7688H6.19608V92.0308C6.19589 92.0364 6.19109 92.0416 6.19109 92.0472C6.19109 92.6176 7.57809 93.0797 9.28901 93.0797C11.0001 93.0797 12.3871 92.6174 12.3871 92.0472C12.3871 92.0372 12.3791 92.028 12.3783 92.0182L12.3785 81.7688ZM23.2073 81.7688H17.0249V89.0712C17.0241 89.0806 17.0166 89.0894 17.0166 89.0986C17.0166 89.669 18.4036 90.1312 20.1147 90.1312C21.8256 90.1312 23.2127 89.669 23.2127 89.0986C23.2127 89.0927 23.2077 89.0871 23.2075 89.0811L23.2073 81.7688ZM49.7904 0.919922H40.6203C40.0628 0.919922 39.5878 1.37419 39.5878 1.9525V3.89746C39.5878 4.47576 40.0628 4.93003 40.6203 4.93003H49.7904C50.3482 4.93003 50.823 4.47576 50.823 3.89746V1.9525C50.823 1.37419 50.348 0.919922 49.7904 0.919922Z" fill="#1781F8"/>
</svg>
