<svg width="72" height="72" viewBox="0 0 72 72" fill="none" xmlns="http://www.w3.org/2000/svg">
<g filter="url(#filter0_d_1_682)">
<g clip-path="url(#clip0_1_682)">
<rect x="4" y="3" width="64" height="64" rx="12.8" fill="url(#paint0_linear_1_682)"/>
<g filter="url(#filter1_dd_1_682)">
<path d="M35.9494 17.0518H34.7559V24.8839H35.9494V17.0518Z" fill="url(#paint1_linear_1_682)"/>
<path d="M39.4742 29.2104H31.2313C30.6235 29.2104 30.1309 28.7177 30.1309 28.1099V25.1639C30.1309 24.5561 30.6235 24.0635 31.2313 24.0635H39.4742C40.0821 24.0635 40.5747 24.5561 40.5747 25.1639V28.1099C40.5745 28.7177 40.0819 29.2104 39.4742 29.2104Z" fill="url(#paint2_linear_1_682)"/>
<g filter="url(#filter2_dd_1_682)">
<path d="M54.0375 46.3287C54.0375 51.0868 50.1801 54.9441 45.4221 54.9441H25.282C20.5435 54.9441 16.6666 51.0673 16.6666 46.3287V41.8533C16.6666 33.4225 23.5645 26.5244 31.9955 26.5244H38.7089C47.1396 26.5244 54.0377 33.4223 54.0377 41.8533L54.0375 46.3287Z" fill="url(#paint3_linear_1_682)"/>
</g>
<path d="M48.1602 45.5134C47.6713 45.755 47.1231 45.8817 46.5662 45.8817H24.1397C23.5828 45.8817 23.0346 45.755 22.5456 45.5134C21.3445 44.9196 20.6668 43.7208 20.8363 42.4909L20.8488 42.4015C21.4235 38.2357 25.1963 35.033 29.8218 34.7923C31.7789 34.6904 33.8327 34.6378 35.9749 34.6502C37.653 34.66 39.2751 34.7092 40.837 34.7896C45.4801 35.0288 49.2807 38.2189 49.8576 42.4005C49.8617 42.4305 49.8659 42.4607 49.87 42.4907C50.0393 43.7208 49.3613 44.9196 48.1602 45.5134Z" fill="url(#paint4_linear_1_682)"/>
<path d="M29.4415 44.9637C31.7771 44.9637 33.6704 43.0704 33.6704 40.7348C33.6704 38.3993 31.7771 36.5059 29.4415 36.5059C27.106 36.5059 25.2126 38.3993 25.2126 40.7348C25.2126 43.0704 27.106 44.9637 29.4415 44.9637Z" fill="url(#paint5_radial_1_682)"/>
<path d="M29.442 43.7699C31.1184 43.7699 32.4773 42.411 32.4773 40.7346C32.4773 39.0582 31.1184 37.6992 29.442 37.6992C27.7656 37.6992 26.4066 39.0582 26.4066 40.7346C26.4066 42.411 27.7656 43.7699 29.442 43.7699Z" fill="white"/>
<path d="M29.4415 43.2843C30.8495 43.2843 31.9909 42.1429 31.9909 40.735C31.9909 39.327 30.8495 38.1857 29.4415 38.1857C28.0336 38.1857 26.8922 39.327 26.8922 40.735C26.8922 42.1429 28.0336 43.2843 29.4415 43.2843Z" fill="url(#paint6_linear_1_682)"/>
<path d="M31.0751 40.0752C31.0751 40.5968 30.6524 41.0195 30.1308 41.0195C29.6092 41.0195 29.1865 40.5965 29.1865 40.0752C29.1865 39.5538 29.6092 39.1309 30.1308 39.1309C30.6524 39.1309 31.0751 39.5538 31.0751 40.0752Z" fill="white"/>
<path d="M29.0654 43.0663C29.2735 43.0663 29.4423 42.8975 29.4423 42.6894C29.4423 42.4812 29.2735 42.3125 29.0654 42.3125C28.8572 42.3125 28.6885 42.4812 28.6885 42.6894C28.6885 42.8975 28.8572 43.0663 29.0654 43.0663Z" fill="white"/>
<path d="M28.1302 42.1255C28.1302 42.2296 28.0459 42.3138 27.9418 42.3138C27.8378 42.3138 27.7535 42.2296 27.7535 42.1255C27.7535 42.0215 27.8378 41.9372 27.9418 41.9372C28.0459 41.9372 28.1302 42.0217 28.1302 42.1255Z" fill="white"/>
<path d="M40.8657 44.9637C43.2013 44.9637 45.0946 43.0704 45.0946 40.7348C45.0946 38.3993 43.2013 36.5059 40.8657 36.5059C38.5302 36.5059 36.6368 38.3993 36.6368 40.7348C36.6368 43.0704 38.5302 44.9637 40.8657 44.9637Z" fill="url(#paint7_radial_1_682)"/>
<path d="M40.8661 43.7699C42.5424 43.7699 43.9014 42.411 43.9014 40.7346C43.9014 39.0582 42.5424 37.6992 40.8661 37.6992C39.1897 37.6992 37.8307 39.0582 37.8307 40.7346C37.8307 42.411 39.1897 43.7699 40.8661 43.7699Z" fill="white"/>
<path d="M40.8657 43.2843C42.2737 43.2843 43.415 42.1429 43.415 40.735C43.415 39.327 42.2737 38.1857 40.8657 38.1857C39.4578 38.1857 38.3164 39.327 38.3164 40.735C38.3164 42.1429 39.4578 43.2843 40.8657 43.2843Z" fill="url(#paint8_linear_1_682)"/>
<path d="M42.4993 40.0752C42.4993 40.5968 42.0764 41.0195 41.555 41.0195C41.0336 41.0195 40.6104 40.5965 40.6104 40.0752C40.6104 39.5538 41.0334 39.1309 41.555 39.1309C42.0766 39.1309 42.4993 39.5538 42.4993 40.0752Z" fill="white"/>
<path d="M40.4882 43.0663C40.6964 43.0663 40.8651 42.8975 40.8651 42.6894C40.8651 42.4812 40.6964 42.3125 40.4882 42.3125C40.2801 42.3125 40.1113 42.4812 40.1113 42.6894C40.1113 42.8975 40.2801 43.0663 40.4882 43.0663Z" fill="white"/>
<path d="M39.5543 42.1255C39.5543 42.2296 39.47 42.3138 39.366 42.3138C39.262 42.3138 39.1777 42.2296 39.1777 42.1255C39.1777 42.0215 39.262 41.9372 39.366 41.9372C39.47 41.9372 39.5543 42.0217 39.5543 42.1255Z" fill="white"/>
<path d="M36.8812 16.5292C36.8812 17.3736 36.1966 18.0585 35.3519 18.0585C34.5075 18.0585 33.8229 17.3739 33.8229 16.5292C33.8229 15.6848 34.5075 14.9999 35.3519 14.9999C36.1966 14.9999 36.8812 15.6845 36.8812 16.5292Z" fill="url(#paint9_linear_1_682)"/>
<path d="M36.4151 15.9322C36.4151 16.1897 36.2063 16.3982 35.9488 16.3982C35.6913 16.3982 35.4825 16.1895 35.4825 15.9322C35.4825 15.6747 35.6913 15.4659 35.9488 15.4659C36.2063 15.4661 36.4151 15.6747 36.4151 15.9322Z" fill="white"/>
<path d="M48.5188 31.4283C48.5391 32.1421 47.9563 32.996 47.2888 33.0689C46.6631 33.1373 46.1634 32.498 45.6482 31.8388C45.1402 31.189 44.0295 29.5197 44.4719 29.0475C45.0549 28.4251 48.4709 29.7441 48.5188 31.4283Z" fill="white"/>
<path d="M42.8029 28.7063C43.0963 28.7063 43.3342 28.4684 43.3342 28.175C43.3342 27.8815 43.0963 27.6436 42.8029 27.6436C42.5094 27.6436 42.2715 27.8815 42.2715 28.175C42.2715 28.4684 42.5094 28.7063 42.8029 28.7063Z" fill="white"/>
<path d="M48.4438 41.3301C48.2732 41.4504 47.0845 39.0288 43.8935 36.9292C42.7718 36.191 41.6646 35.665 41.7303 35.512C41.7971 35.3568 43.0442 35.6455 44.0426 36.1086C47.2239 37.5845 48.6464 41.1871 48.4438 41.3301Z" fill="white"/>
<path d="M40.2726 25.5861C40.2346 25.5915 40.2102 25.3681 40.0241 25.0229C40.0241 25.0229 39.9371 24.8613 39.8377 24.7244C39.5173 24.2835 38.4312 24.2932 38.346 24.2939C36.6545 24.3085 35.5669 24.2014 35.5674 24.2116C35.5676 24.2201 36.3609 24.204 36.9422 24.1923C38.582 24.159 39.559 24.0708 39.9778 24.51C40.1515 24.6923 40.239 24.9296 40.239 24.9296C40.3574 25.2516 40.3179 25.5796 40.2726 25.5861Z" fill="white"/>
<path d="M39.9208 47.6959C39.8794 48.101 39.5422 48.4131 39.1368 48.4521L33.5348 48.9922C33.1296 49.0312 32.7389 48.7898 32.6207 48.3999C32.5681 48.2267 32.5276 48.0481 32.5001 47.8644C32.4926 47.8138 32.506 47.7621 32.5376 47.7214C32.5693 47.681 32.6161 47.6554 32.6672 47.6503L39.7347 46.9686C39.7851 46.9638 39.835 46.9798 39.8733 47.013C39.9115 47.0461 39.9342 47.0936 39.9364 47.144C39.9449 47.3309 39.9393 47.5151 39.9208 47.6959Z" fill="white"/>
<path d="M39.9207 47.6963C39.7417 49.4329 38.361 50.8605 36.5574 51.0328C34.7785 51.205 33.1717 50.1019 32.6436 48.4683C32.7846 48.8175 33.1515 49.0302 33.5343 48.9919L39.1377 48.4525C39.5426 48.4123 39.8783 48.1012 39.9207 47.6963Z" fill="url(#paint10_linear_1_682)"/>
</g>
</g>
</g>
<defs>
<filter id="filter0_d_1_682" x="0" y="0" width="72" height="72" filterUnits="userSpaceOnUse" color-interpolation-filters="sRGB">
<feFlood flood-opacity="0" result="BackgroundImageFix"/>
<feColorMatrix in="SourceAlpha" type="matrix" values="0 0 0 0 0 0 0 0 0 0 0 0 0 0 0 0 0 0 127 0" result="hardAlpha"/>
<feOffset dy="1"/>
<feGaussianBlur stdDeviation="2"/>
<feComposite in2="hardAlpha" operator="out"/>
<feColorMatrix type="matrix" values="0 0 0 0 0.0470588 0 0 0 0 0.0470588 0 0 0 0 0.0509804 0 0 0 0.05 0"/>
<feBlend mode="normal" in2="BackgroundImageFix" result="effect1_dropShadow_1_682"/>
<feBlend mode="normal" in="SourceGraphic" in2="effect1_dropShadow_1_682" result="shape"/>
</filter>
<filter id="filter1_dd_1_682" x="-3.33337" y="15" width="77.3711" height="80" filterUnits="userSpaceOnUse" color-interpolation-filters="sRGB">
<feFlood flood-opacity="0" result="BackgroundImageFix"/>
<feColorMatrix in="SourceAlpha" type="matrix" values="0 0 0 0 0 0 0 0 0 0 0 0 0 0 0 0 0 0 127 0" result="hardAlpha"/>
<feMorphology radius="4" operator="erode" in="SourceAlpha" result="effect1_dropShadow_1_682"/>
<feOffset dy="8"/>
<feGaussianBlur stdDeviation="4"/>
<feColorMatrix type="matrix" values="0 0 0 0 0.0627451 0 0 0 0 0.0941176 0 0 0 0 0.156863 0 0 0 0.03 0"/>
<feBlend mode="normal" in2="BackgroundImageFix" result="effect1_dropShadow_1_682"/>
<feColorMatrix in="SourceAlpha" type="matrix" values="0 0 0 0 0 0 0 0 0 0 0 0 0 0 0 0 0 0 127 0" result="hardAlpha"/>
<feMorphology radius="4" operator="erode" in="SourceAlpha" result="effect2_dropShadow_1_682"/>
<feOffset dy="20"/>
<feGaussianBlur stdDeviation="12"/>
<feColorMatrix type="matrix" values="0 0 0 0 0.0627451 0 0 0 0 0.0941176 0 0 0 0 0.156863 0 0 0 0.08 0"/>
<feBlend mode="normal" in2="effect1_dropShadow_1_682" result="effect2_dropShadow_1_682"/>
<feBlend mode="normal" in="SourceGraphic" in2="effect2_dropShadow_1_682" result="shape"/>
</filter>
<filter id="filter2_dd_1_682" x="-3.33337" y="26.5244" width="77.3711" height="68.4197" filterUnits="userSpaceOnUse" color-interpolation-filters="sRGB">
<feFlood flood-opacity="0" result="BackgroundImageFix"/>
<feColorMatrix in="SourceAlpha" type="matrix" values="0 0 0 0 0 0 0 0 0 0 0 0 0 0 0 0 0 0 127 0" result="hardAlpha"/>
<feMorphology radius="4" operator="erode" in="SourceAlpha" result="effect1_dropShadow_1_682"/>
<feOffset dy="8"/>
<feGaussianBlur stdDeviation="4"/>
<feColorMatrix type="matrix" values="0 0 0 0 0.0627451 0 0 0 0 0.0941176 0 0 0 0 0.156863 0 0 0 0.03 0"/>
<feBlend mode="normal" in2="BackgroundImageFix" result="effect1_dropShadow_1_682"/>
<feColorMatrix in="SourceAlpha" type="matrix" values="0 0 0 0 0 0 0 0 0 0 0 0 0 0 0 0 0 0 127 0" result="hardAlpha"/>
<feMorphology radius="4" operator="erode" in="SourceAlpha" result="effect2_dropShadow_1_682"/>
<feOffset dy="20"/>
<feGaussianBlur stdDeviation="12"/>
<feColorMatrix type="matrix" values="0 0 0 0 0.0627451 0 0 0 0 0.0941176 0 0 0 0 0.156863 0 0 0 0.08 0"/>
<feBlend mode="normal" in2="effect1_dropShadow_1_682" result="effect2_dropShadow_1_682"/>
<feBlend mode="normal" in="SourceGraphic" in2="effect2_dropShadow_1_682" result="shape"/>
</filter>
<linearGradient id="paint0_linear_1_682" x1="35.8536" y1="66.7932" x2="39.1457" y2="9.58196" gradientUnits="userSpaceOnUse">
<stop/>
<stop offset="1" stop-color="#060B56"/>
</linearGradient>
<linearGradient id="paint1_linear_1_682" x1="32.9203" y1="21.3225" x2="36.5008" y2="20.8004" gradientUnits="userSpaceOnUse">
<stop offset="0.0397" stop-color="#1781F8"/>
<stop offset="1" stop-color="#060B56"/>
</linearGradient>
<linearGradient id="paint2_linear_1_682" x1="32.0071" y1="30.4142" x2="38.3611" y2="23.2404" gradientUnits="userSpaceOnUse">
<stop offset="0.0397" stop-color="#1781F8"/>
<stop offset="1" stop-color="#060B56"/>
</linearGradient>
<linearGradient id="paint3_linear_1_682" x1="22.8032" y1="55.2625" x2="47.9818" y2="30.0839" gradientUnits="userSpaceOnUse">
<stop offset="0.0397" stop-color="#1781F8"/>
<stop offset="1" stop-color="#060B56"/>
</linearGradient>
<linearGradient id="paint4_linear_1_682" x1="35.2866" y1="45.8454" x2="35.5104" y2="35.7754" gradientUnits="userSpaceOnUse">
<stop/>
<stop offset="1" stop-color="#060B56"/>
</linearGradient>
<radialGradient id="paint5_radial_1_682" cx="0" cy="0" r="1" gradientUnits="userSpaceOnUse" gradientTransform="translate(29.4414 40.7348) scale(4.18515 4.18514)">
<stop offset="0.1296" stop-color="#1781F8"/>
<stop offset="1"/>
</radialGradient>
<linearGradient id="paint6_linear_1_682" x1="26.892" y1="40.735" x2="31.9909" y2="40.735" gradientUnits="userSpaceOnUse">
<stop/>
<stop offset="1" stop-color="#0B2F45"/>
</linearGradient>
<radialGradient id="paint7_radial_1_682" cx="0" cy="0" r="1" gradientUnits="userSpaceOnUse" gradientTransform="translate(40.8657 40.7348) scale(4.18514)">
<stop offset="0.1296" stop-color="#1781F8"/>
<stop offset="1"/>
</radialGradient>
<linearGradient id="paint8_linear_1_682" x1="38.3162" y1="40.735" x2="43.4151" y2="40.735" gradientUnits="userSpaceOnUse">
<stop/>
<stop offset="1" stop-color="#0B2F45"/>
</linearGradient>
<linearGradient id="paint9_linear_1_682" x1="32.1331" y1="16.9985" x2="36.8715" y2="16.3075" gradientUnits="userSpaceOnUse">
<stop offset="0.0397" stop-color="#1781F8"/>
<stop offset="1" stop-color="#060B56"/>
</linearGradient>
<linearGradient id="paint10_linear_1_682" x1="35.1996" y1="49.756" x2="42.4897" y2="42.4659" gradientUnits="userSpaceOnUse">
<stop offset="0.0714" stop-color="#1781F8"/>
<stop offset="1" stop-color="#060B56"/>
</linearGradient>
<clipPath id="clip0_1_682">
<rect x="4" y="3" width="64" height="64" rx="12.8" fill="white"/>
</clipPath>
</defs>
</svg>
