<svg width="147" height="138" viewBox="0 0 147 138" fill="none" xmlns="http://www.w3.org/2000/svg">
<path d="M73.4001 6C50.2401 6 31.4001 24.84 31.4001 48C31.4001 71.16 50.2401 90 73.4001 90C96.5601 90 115.4 71.16 115.4 48C115.4 24.84 96.5601 6 73.4001 6ZM73.4001 87C51.89 87 34.4001 69.5099 34.4001 48C34.4001 26.49 51.89 9 73.4001 9C94.9101 9 112.4 26.49 112.4 48C112.4 69.5099 94.9101 87 73.4001 87Z" fill="#060B56"/>
<path d="M73.4001 23.61C59.9451 23.61 49.0101 34.545 49.0101 48C49.0101 61.455 59.9451 72.39 73.4001 72.39C86.855 72.39 97.7901 61.455 97.7901 48C97.7901 34.545 86.855 23.61 73.4001 23.61ZM73.4001 69.39C61.5951 69.39 52.0101 59.805 52.0101 48C52.0101 36.195 61.5951 26.61 73.4001 26.61C85.2051 26.61 94.7901 36.195 94.7901 48C94.7901 59.805 85.2051 69.39 73.4001 69.39ZM73.3401 10.02C69.9051 10.02 67.1001 12.81 67.1001 16.26C67.1001 19.695 69.9051 22.485 73.3401 22.485C76.7751 22.485 79.5801 19.695 79.5801 16.26C79.5801 12.81 76.7751 10.02 73.3401 10.02ZM73.3401 19.485C71.5551 19.485 70.1001 18.045 70.1001 16.26C70.1001 14.475 71.5551 13.02 73.3401 13.02C75.1251 13.02 76.5801 14.475 76.5801 16.26C76.5801 18.045 75.1251 19.485 73.3401 19.485ZM93.2151 24.2101C92.9301 24.435 92.6001 24.555 92.2701 24.555C91.8351 24.555 91.4001 24.36 91.1001 23.985C89.5251 22.05 85.5801 20.73 84.1851 20.385C83.3751 20.19 82.8801 19.38 83.0901 18.57C83.2851 17.775 84.0951 17.28 84.89 17.475C85.1451 17.535 90.8901 18.975 93.4251 22.11C93.9501 22.755 93.8601 23.685 93.2151 24.2101ZM106.265 28.95C105.425 27.51 104.09 26.475 102.47 26.055C100.865 25.62 99.1851 25.83 97.7451 26.67C96.3051 27.51 95.2701 28.845 94.8351 30.465C94.4001 32.07 94.6251 33.75 95.4651 35.19C96.2901 36.63 97.6401 37.665 99.2451 38.1C99.7851 38.235 100.325 38.31 100.865 38.31C101.96 38.31 103.025 38.025 103.985 37.47C106.955 35.76 107.975 31.935 106.265 28.95ZM103.985 32.91C103.76 33.75 103.235 34.44 102.485 34.875C100.94 35.775 98.9451 35.235 98.0601 33.69C97.6251 32.94 97.5201 32.07 97.73 31.23C97.9551 30.405 98.4951 29.7 99.2451 29.265C99.7401 28.98 100.295 28.83 100.85 28.83C101.135 28.83 101.42 28.875 101.705 28.95C102.53 29.175 103.235 29.7 103.67 30.45C104.09 31.2 104.21 32.07 103.985 32.91ZM105.56 52.11C105.335 52.7101 104.765 53.07 104.165 53.07C103.985 53.07 103.805 53.04 103.625 52.98C102.845 52.68 102.47 51.81 102.77 51.03C103.655 48.705 102.83 44.625 102.425 43.245C102.2 42.45 102.65 41.61 103.445 41.385C104.24 41.16 105.08 41.61 105.305 42.405C105.38 42.645 107 48.345 105.56 52.11ZM106.955 62.205C106.52 60.6 105.485 59.25 104.045 58.425C101.06 56.7 97.2501 57.72 95.5251 60.705C93.8001 63.675 94.8351 67.5 97.8051 69.225C98.7801 69.78 99.8601 70.05 100.91 70.05C103.07 70.05 105.17 68.94 106.325 66.93C107.165 65.49 107.375 63.81 106.955 62.205ZM103.73 65.43C102.83 66.975 100.85 67.515 99.3051 66.615C97.7601 65.73 97.2351 63.75 98.1201 62.205C98.5551 61.455 99.2451 60.915 100.085 60.69C100.925 60.465 101.795 60.5851 102.545 61.02C103.295 61.455 103.82 62.145 104.045 62.985C104.27 63.81 104.165 64.695 103.73 65.43ZM94.2201 73.725C94.0401 73.92 89.9151 78.18 85.9401 78.81C85.8651 78.825 85.7901 78.825 85.7001 78.825C84.98 78.825 84.3501 78.3 84.23 77.565C84.0951 76.74 84.6501 75.975 85.4751 75.84C87.9501 75.45 91.0551 72.69 92.0601 71.655C92.6301 71.055 93.5751 71.04 94.1751 71.61C94.7751 72.18 94.7901 73.14 94.2201 73.725ZM73.4601 73.515C70.0251 73.515 67.2201 76.305 67.2201 79.74C67.2201 83.19 70.0251 85.98 73.4601 85.98C76.8951 85.98 79.7001 83.19 79.7001 79.74C79.7001 76.305 76.8951 73.515 73.4601 73.515ZM73.4601 82.98C71.6751 82.98 70.2201 81.525 70.2201 79.74C70.2201 77.955 71.6751 76.515 73.4601 76.515C75.2451 76.515 76.7001 77.955 76.7001 79.74C76.7001 81.525 75.2451 82.98 73.4601 82.98ZM63.2451 77.16C63.0801 77.85 62.4651 78.315 61.7901 78.315C61.6701 78.315 61.5501 78.3 61.4301 78.27C61.1901 78.2101 55.4301 76.77 52.8951 73.635C52.3701 72.99 52.4751 72.045 53.1201 71.535C53.765 71.01 54.7101 71.1 55.2201 71.745C56.8101 73.7101 60.7551 75.015 62.1351 75.36C62.9451 75.555 63.4401 76.365 63.2451 77.16ZM51.3351 60.81C50.5101 59.37 49.1601 58.3351 47.5551 57.9C45.9351 57.465 44.2551 57.69 42.8151 58.53C39.8451 60.24 38.8251 64.065 40.5351 67.05C41.3751 68.49 42.7101 69.525 44.3301 69.945C44.855 70.095 45.4101 70.17 45.9501 70.17C47.0301 70.17 48.0951 69.885 49.0551 69.33C50.4951 68.49 51.5301 67.155 51.9651 65.535C52.4001 63.93 52.1751 62.25 51.3351 60.81ZM49.0701 64.77C48.8451 65.595 48.3051 66.3 47.5551 66.735C46.8051 67.17 45.9351 67.275 45.0951 67.05C44.2701 66.825 43.5651 66.3 43.1301 65.55C42.7101 64.8 42.5901 63.93 42.8151 63.09C43.0401 62.25 43.5651 61.56 44.3151 61.125C45.8601 60.225 47.8401 60.765 48.7401 62.31C49.1751 63.06 49.2801 63.93 49.0701 64.77ZM42.9501 53.01C42.8151 53.055 42.6801 53.07 42.5301 53.07C41.8851 53.07 41.2851 52.65 41.0901 51.99C41.0301 51.75 39.3951 46.05 40.8351 42.285C41.1351 41.52 42.0051 41.13 42.7701 41.43C43.5501 41.715 43.9401 42.5851 43.64 43.365C42.7401 45.705 43.5801 49.785 43.9701 51.15C44.2101 51.945 43.7451 52.785 42.9501 53.01ZM48.9951 26.775C46.0101 25.065 42.2001 26.0851 40.4751 29.07C39.6351 30.51 39.4251 32.19 39.8451 33.795C40.2801 35.4 41.3151 36.75 42.7551 37.575C43.73 38.145 44.8101 38.415 45.8601 38.415C48.0201 38.415 50.1201 37.29 51.2751 35.295C53.0001 32.325 51.9651 28.5 48.9951 26.775ZM48.6801 33.795C48.2451 34.545 47.5551 35.0851 46.7151 35.31C45.8751 35.535 45.0051 35.415 44.2551 34.98C43.5051 34.545 42.98 33.855 42.7551 33.015C42.5301 32.19 42.6351 31.305 43.0701 30.57C43.6701 29.52 44.765 28.95 45.8751 28.95C46.4301 28.95 46.9851 29.0851 47.4951 29.385C49.0401 30.27 49.5651 32.25 48.6801 33.795ZM63.1251 18.435C63.2451 19.26 62.6901 20.025 61.8651 20.16C59.4051 20.55 56.2851 23.31 55.2951 24.345C54.9951 24.645 54.605 24.81 54.2151 24.81C53.8401 24.81 53.4651 24.66 53.1651 24.39C52.5801 23.82 52.5501 22.86 53.1201 22.275C53.3001 22.08 57.4251 17.82 61.4001 17.19C62.2101 17.07 62.9901 17.625 63.1251 18.435Z" fill="#1781F8"/>
<path d="M73.4001 31.02C64.0401 31.02 56.4201 38.64 56.4201 48C56.4201 57.36 64.0401 64.98 73.4001 64.98C82.7601 64.98 90.3801 57.36 90.3801 48C90.3801 38.64 82.7601 31.02 73.4001 31.02ZM73.4001 61.98C65.6901 61.98 59.4201 55.7101 59.4201 48C59.4201 40.29 65.6901 34.02 73.4001 34.02C81.1101 34.02 87.3801 40.29 87.3801 48C87.3801 55.7101 81.1101 61.98 73.4001 61.98Z" fill="#060B56"/>
<path d="M50.2973 124.624H54.0053C54.7013 124.624 55.2453 124.82 55.6373 125.212C56.0373 125.604 56.2373 126.128 56.2373 126.784C56.2373 127.096 56.1933 127.364 56.1053 127.588C56.0173 127.804 55.9053 127.984 55.7693 128.128C55.6333 128.264 55.4773 128.368 55.3013 128.44C55.1253 128.504 54.9533 128.544 54.7853 128.56V128.632C54.9533 128.64 55.1373 128.68 55.3373 128.752C55.5453 128.824 55.7373 128.94 55.9133 129.1C56.0893 129.252 56.2373 129.452 56.3573 129.7C56.4773 129.94 56.5373 130.236 56.5373 130.588C56.5373 130.924 56.4813 131.24 56.3693 131.536C56.2653 131.832 56.1173 132.088 55.9253 132.304C55.7333 132.52 55.5053 132.692 55.2413 132.82C54.9773 132.94 54.6893 133 54.3773 133H50.2973V124.624ZM51.6533 131.836H53.9813C54.3333 131.836 54.6093 131.744 54.8093 131.56C55.0093 131.376 55.1093 131.112 55.1093 130.768V130.36C55.1093 130.016 55.0093 129.752 54.8093 129.568C54.6093 129.384 54.3333 129.292 53.9813 129.292H51.6533V131.836ZM51.6533 128.164H53.7533C54.0893 128.164 54.3493 128.08 54.5333 127.912C54.7173 127.736 54.8093 127.488 54.8093 127.168V126.784C54.8093 126.464 54.7173 126.22 54.5333 126.052C54.3493 125.876 54.0893 125.788 53.7533 125.788H51.6533V128.164ZM60.5595 133.144C60.1115 133.144 59.7115 133.068 59.3595 132.916C59.0075 132.764 58.7075 132.548 58.4595 132.268C58.2115 131.98 58.0195 131.636 57.8835 131.236C57.7555 130.828 57.6915 130.376 57.6915 129.88C57.6915 129.384 57.7555 128.936 57.8835 128.536C58.0195 128.128 58.2115 127.784 58.4595 127.504C58.7075 127.216 59.0075 126.996 59.3595 126.844C59.7115 126.692 60.1115 126.616 60.5595 126.616C61.0155 126.616 61.4155 126.696 61.7595 126.856C62.1115 127.016 62.4035 127.24 62.6355 127.528C62.8675 127.808 63.0395 128.136 63.1515 128.512C63.2715 128.888 63.3315 129.292 63.3315 129.724V130.216H59.0475V130.42C59.0475 130.9 59.1875 131.296 59.4675 131.608C59.7555 131.912 60.1635 132.064 60.6915 132.064C61.0755 132.064 61.3995 131.98 61.6635 131.812C61.9275 131.644 62.1515 131.416 62.3355 131.128L63.1035 131.884C62.8715 132.268 62.5355 132.576 62.0955 132.808C61.6555 133.032 61.1435 133.144 60.5595 133.144ZM60.5595 127.636C60.3355 127.636 60.1275 127.676 59.9355 127.756C59.7515 127.836 59.5915 127.948 59.4555 128.092C59.3275 128.236 59.2275 128.408 59.1555 128.608C59.0835 128.808 59.0475 129.028 59.0475 129.268V129.352H61.9515V129.232C61.9515 128.752 61.8275 128.368 61.5795 128.08C61.3315 127.784 60.9915 127.636 60.5595 127.636ZM69.3514 133C69.0074 133 68.7434 132.904 68.5594 132.712C68.3754 132.512 68.2634 132.26 68.2234 131.956H68.1634C68.0434 132.348 67.8234 132.644 67.5034 132.844C67.1834 133.044 66.7954 133.144 66.3394 133.144C65.6914 133.144 65.1914 132.976 64.8394 132.64C64.4954 132.304 64.3234 131.852 64.3234 131.284C64.3234 130.66 64.5474 130.192 64.9954 129.88C65.4514 129.568 66.1154 129.412 66.9874 129.412H68.1154V128.884C68.1154 128.5 68.0114 128.204 67.8034 127.996C67.5954 127.788 67.2714 127.684 66.8314 127.684C66.4634 127.684 66.1634 127.764 65.9314 127.924C65.6994 128.084 65.5034 128.288 65.3434 128.536L64.5634 127.828C64.7714 127.476 65.0634 127.188 65.4394 126.964C65.8154 126.732 66.3074 126.616 66.9154 126.616C67.7234 126.616 68.3434 126.804 68.7754 127.18C69.2074 127.556 69.4234 128.096 69.4234 128.8V131.932H70.0834V133H69.3514ZM66.7114 132.148C67.1194 132.148 67.4554 132.06 67.7194 131.884C67.9834 131.7 68.1154 131.456 68.1154 131.152V130.252H67.0114C66.1074 130.252 65.6554 130.532 65.6554 131.092V131.308C65.6554 131.588 65.7474 131.8 65.9314 131.944C66.1234 132.08 66.3834 132.148 66.7114 132.148ZM71.3654 133V126.76H72.6734V127.96H72.7334C72.8214 127.64 73.0054 127.36 73.2854 127.12C73.5654 126.88 73.9534 126.76 74.4494 126.76H74.7974V128.02H74.2814C73.7614 128.02 73.3614 128.104 73.0814 128.272C72.8094 128.44 72.6734 128.688 72.6734 129.016V133H71.3654ZM76.6191 125.644C76.3471 125.644 76.1471 125.58 76.0191 125.452C75.8991 125.324 75.8391 125.16 75.8391 124.96V124.756C75.8391 124.556 75.8991 124.392 76.0191 124.264C76.1471 124.136 76.3471 124.072 76.6191 124.072C76.8911 124.072 77.0871 124.136 77.2071 124.264C77.3271 124.392 77.3871 124.556 77.3871 124.756V124.96C77.3871 125.16 77.3271 125.324 77.2071 125.452C77.0871 125.58 76.8911 125.644 76.6191 125.644ZM75.9591 126.76H77.2671V133H75.9591V126.76ZM79.1349 133V126.76H80.4429V127.792H80.5029C80.6389 127.456 80.8429 127.176 81.1149 126.952C81.3949 126.728 81.7749 126.616 82.2549 126.616C82.8949 126.616 83.3909 126.828 83.7429 127.252C84.1029 127.668 84.2829 128.264 84.2829 129.04V133H82.9749V129.208C82.9749 128.232 82.5829 127.744 81.7989 127.744C81.6309 127.744 81.4629 127.768 81.2949 127.816C81.1349 127.856 80.9909 127.92 80.8629 128.008C80.7349 128.096 80.6309 128.208 80.5509 128.344C80.4789 128.48 80.4429 128.64 80.4429 128.824V133H79.1349ZM91.5679 133.588C91.5679 134.236 91.3199 134.724 90.8239 135.052C90.3279 135.38 89.5199 135.544 88.3999 135.544C87.8879 135.544 87.4519 135.508 87.0919 135.436C86.7399 135.372 86.4479 135.276 86.2159 135.148C85.9919 135.02 85.8279 134.864 85.7239 134.68C85.6199 134.496 85.5679 134.284 85.5679 134.044C85.5679 133.7 85.6599 133.432 85.8439 133.24C86.0359 133.048 86.2999 132.916 86.6359 132.844V132.712C86.1639 132.56 85.9279 132.24 85.9279 131.752C85.9279 131.432 86.0359 131.188 86.2519 131.02C86.4679 130.844 86.7279 130.72 87.0319 130.648V130.6C86.6639 130.424 86.3799 130.18 86.1799 129.868C85.9879 129.548 85.8919 129.176 85.8919 128.752C85.8919 128.112 86.1039 127.596 86.5279 127.204C86.9599 126.812 87.5759 126.616 88.3759 126.616C88.8159 126.616 89.1919 126.68 89.5039 126.808V126.64C89.5039 126.36 89.5679 126.144 89.6959 125.992C89.8319 125.832 90.0399 125.752 90.3199 125.752H91.2799V126.808H90.0079V127.06C90.2879 127.244 90.5039 127.484 90.6559 127.78C90.8079 128.068 90.8839 128.392 90.8839 128.752C90.8839 129.384 90.6679 129.896 90.2359 130.288C89.8039 130.672 89.1879 130.864 88.3879 130.864C88.0839 130.864 87.8119 130.832 87.5719 130.768C87.4119 130.824 87.2719 130.904 87.1519 131.008C87.0319 131.104 86.9719 131.232 86.9719 131.392C86.9719 131.56 87.0479 131.68 87.1999 131.752C87.3519 131.824 87.5679 131.86 87.8479 131.86H89.3839C90.1519 131.86 90.7079 132.016 91.0519 132.328C91.3959 132.632 91.5679 133.052 91.5679 133.588ZM90.3439 133.732C90.3439 133.516 90.2599 133.344 90.0919 133.216C89.9319 133.088 89.6359 133.024 89.2039 133.024H87.0919C86.8039 133.192 86.6599 133.432 86.6599 133.744C86.6599 134 86.7599 134.204 86.9599 134.356C87.1679 134.516 87.5159 134.596 88.0039 134.596H88.8199C89.8359 134.596 90.3439 134.308 90.3439 133.732ZM88.3879 129.916C88.7719 129.916 89.0679 129.832 89.2759 129.664C89.4919 129.488 89.5999 129.22 89.5999 128.86V128.62C89.5999 128.26 89.4919 127.996 89.2759 127.828C89.0679 127.652 88.7719 127.564 88.3879 127.564C88.0039 127.564 87.7039 127.652 87.4879 127.828C87.2799 127.996 87.1759 128.26 87.1759 128.62V128.86C87.1759 129.22 87.2799 129.488 87.4879 129.664C87.7039 129.832 88.0039 129.916 88.3879 129.916ZM94.5212 133.144C93.9292 133.144 93.4332 133.04 93.0332 132.832C92.6332 132.624 92.2852 132.336 91.9892 131.968L92.8292 131.2C93.0612 131.48 93.3172 131.7 93.5972 131.86C93.8852 132.012 94.2172 132.088 94.5932 132.088C94.9772 132.088 95.2612 132.016 95.4452 131.872C95.6372 131.72 95.7332 131.512 95.7332 131.248C95.7332 131.048 95.6652 130.88 95.5292 130.744C95.4012 130.6 95.1732 130.508 94.8452 130.468L94.2692 130.396C93.6292 130.316 93.1252 130.132 92.7572 129.844C92.3972 129.548 92.2172 129.112 92.2172 128.536C92.2172 128.232 92.2732 127.964 92.3852 127.732C92.4972 127.492 92.6532 127.292 92.8532 127.132C93.0612 126.964 93.3052 126.836 93.5852 126.748C93.8732 126.66 94.1892 126.616 94.5332 126.616C95.0932 126.616 95.5492 126.704 95.9012 126.88C96.2612 127.056 96.5812 127.3 96.8612 127.612L96.0572 128.38C95.8972 128.188 95.6852 128.024 95.4212 127.888C95.1652 127.744 94.8692 127.672 94.5332 127.672C94.1732 127.672 93.9052 127.744 93.7292 127.888C93.5612 128.032 93.4772 128.22 93.4772 128.452C93.4772 128.692 93.5532 128.872 93.7052 128.992C93.8572 129.112 94.1012 129.2 94.4372 129.256L95.0132 129.328C95.7012 129.432 96.2012 129.636 96.5132 129.94C96.8332 130.236 96.9932 130.636 96.9932 131.14C96.9932 131.444 96.9332 131.72 96.8132 131.968C96.7012 132.208 96.5372 132.416 96.3212 132.592C96.1052 132.768 95.8452 132.904 95.5412 133C95.2372 133.096 94.8972 133.144 94.5212 133.144Z" fill="#010212"/>
</svg>
