<svg width="140" height="44" viewBox="0 0 140 44" fill="none" xmlns="http://www.w3.org/2000/svg">
<rect width="140" height="44" rx="4" fill="white"/>
<path d="M135.236 0H68L94.335 44H135.236C136.489 43.9988 137.691 43.451 138.578 42.4766C139.465 41.5023 139.964 40.1809 139.967 38.8022V5.20003C139.965 3.82104 139.465 2.49925 138.579 1.52446C137.692 0.549675 136.49 0.00145451 135.236 0Z" fill="#F9FAFB"/>
<mask id="mask0_6_71" style="mask-type:alpha" maskUnits="userSpaceOnUse" x="16" y="9" width="25" height="26">
<path d="M39.0899 20.4004C40.3587 21.0986 40.3587 22.9014 39.0899 23.5996L18.7978 34.7659C17.562 35.4459 16.0415 34.5634 16.0415 33.1663L16.0415 10.8337C16.0415 9.43657 17.562 8.55415 18.7978 9.23415L39.0899 20.4004Z" fill="#C4C4C4"/>
</mask>
<g mask="url(#mask0_6_71)">
<path d="M16.6762 34.5464L29.3338 21.8177L16.8847 9.29858C16.388 9.61697 16.0415 10.1667 16.0415 10.8337V33.1662C16.0415 33.7352 16.2937 34.2189 16.6762 34.5464Z" fill="url(#paint0_linear_6_71)"/>
<path d="M39.0899 20.4005C40.3587 21.0987 40.3587 22.9015 39.0899 23.5997L33.9706 26.4167L29.3339 21.8178L33.7341 17.4534L39.0899 20.4005Z" fill="url(#paint1_linear_6_71)"/>
<path d="M33.9706 26.4166L29.3338 21.8176L16.6762 34.5464C17.2328 35.023 18.0653 35.1689 18.7978 34.7658L33.9706 26.4166Z" fill="url(#paint2_linear_6_71)"/>
<path d="M16.8847 9.29865L29.3338 21.8177L33.7341 17.4533L18.7978 9.23415C18.152 8.87878 17.4284 8.95013 16.8847 9.29865Z" fill="url(#paint3_linear_6_71)"/>
</g>
<path d="M106.1 28.9044C105.587 28.9044 105.118 28.8098 104.695 28.6206C104.271 28.4313 103.914 28.1401 103.627 27.7475H103.541C103.598 28.2075 103.627 28.6436 103.627 29.0555V32.2972H102.434V20.883H103.405L103.569 21.9612H103.627C103.934 21.5297 104.291 21.2186 104.698 21.0269C105.105 20.8351 105.573 20.7393 106.099 20.7393C107.144 20.7393 107.951 21.0965 108.518 21.8103C109.086 22.5242 109.37 23.5259 109.37 24.8146C109.37 26.1084 109.081 27.1133 108.504 27.8303C107.927 28.5465 107.125 28.9044 106.1 28.9044ZM105.927 21.7527C105.122 21.7527 104.54 21.9758 104.181 22.4212C103.821 22.8668 103.637 23.5762 103.627 24.549V24.8146C103.627 25.9217 103.811 26.7135 104.181 27.1905C104.55 27.6675 105.142 27.9054 105.956 27.9054C106.637 27.9054 107.17 27.6302 107.556 27.0791C107.941 26.5283 108.134 25.7687 108.134 24.8002C108.134 23.8184 107.941 23.0643 107.556 22.5398C107.17 22.0147 106.627 21.7527 105.927 21.7527ZM112.133 28.7605H110.94V17.5765H112.133V28.7605ZM118.992 28.7605L118.755 27.6393H118.698C118.305 28.1332 117.913 28.4676 117.522 28.6419C117.132 28.8172 116.644 28.9045 116.06 28.9045C115.279 28.9045 114.667 28.7031 114.223 28.3008C113.78 27.8984 113.559 27.3261 113.559 26.583C113.559 24.9924 114.831 24.1585 117.375 24.0816L118.713 24.0383V23.5496C118.713 22.9314 118.579 22.4747 118.313 22.1804C118.048 21.8854 117.622 21.7381 117.038 21.7381C116.381 21.7381 115.638 21.9394 114.809 22.3418L114.443 21.429C114.831 21.2181 115.256 21.053 115.719 20.9332C116.181 20.8134 116.645 20.7534 117.11 20.7534C118.049 20.7534 118.745 20.9616 119.198 21.3786C119.65 21.7955 119.877 22.464 119.877 23.3842V28.7603H118.993L118.992 28.7605ZM116.297 27.9199C117.039 27.9199 117.623 27.7162 118.047 27.3091C118.471 26.9019 118.683 26.3315 118.683 25.598V24.8865L117.49 24.9365C116.541 24.9707 115.857 25.1175 115.438 25.3793C115.019 25.6403 114.809 26.0465 114.809 26.5976C114.809 27.0286 114.939 27.3571 115.201 27.5818C115.462 27.8073 115.827 27.9199 116.297 27.9199ZM120.569 20.883H121.848L123.573 25.3754C123.952 26.401 124.187 27.1412 124.278 27.5967H124.336C124.398 27.3519 124.529 26.9342 124.727 26.3418C124.926 25.7498 125.577 23.9307 126.679 20.883H127.959L124.573 29.8533C124.238 30.7398 123.846 31.3688 123.397 31.7408C122.949 32.1118 122.399 32.2972 121.748 32.2972C121.384 32.2972 121.025 32.2565 120.67 32.1752V31.2194C120.933 31.2768 121.228 31.3057 121.554 31.3057C122.373 31.3057 122.958 30.8457 123.308 29.9255L123.746 28.8045L120.569 20.883ZM83.9973 21.615C84.376 21.9284 85.1669 22.5868 85.1669 23.8399C85.1669 25.0584 84.4747 25.6363 83.7826 26.1792C83.5684 26.3932 83.3212 26.6246 83.3212 26.9875C83.3212 27.3492 83.5682 27.5472 83.7501 27.6957L84.3435 28.1561C85.0684 28.766 85.7268 29.3266 85.7268 30.4639C85.7268 32.0126 84.2273 33.5774 81.3938 33.5774C79.0042 33.5774 77.8514 32.4408 77.8514 31.2208C77.8514 30.6279 78.1466 29.788 79.1202 29.2107C80.141 28.5845 81.526 28.503 82.2671 28.4523C82.0357 28.1561 81.7727 27.8429 81.7727 27.333C81.7727 27.0533 81.8554 26.8883 81.9375 26.6896C81.7555 26.7064 81.5745 26.7229 81.4096 26.7229C79.6636 26.7229 78.675 25.4211 78.675 24.1365C78.675 23.3784 79.0215 22.5376 79.7291 21.9287C80.6687 21.1543 81.789 21.0221 82.6796 21.0221H86.073L85.0184 21.6153H83.9973L83.9973 21.615ZM82.827 28.9312C82.6953 28.914 82.6125 28.914 82.4485 28.914C82.3003 28.914 81.4093 28.9477 80.7181 29.1789C80.3557 29.3097 79.3009 29.7051 79.3009 30.8756C79.3009 32.0449 80.4384 32.8865 82.2016 32.8865C83.7824 32.8865 84.6237 32.127 84.6237 31.1063C84.6237 30.2643 84.0798 29.8213 82.827 28.9312ZM83.3052 25.8C83.6836 25.4206 83.7161 24.8939 83.7161 24.597C83.7161 23.4109 83.008 21.5655 81.6407 21.5655C81.2118 21.5655 80.7509 21.7795 80.4872 22.1094C80.2074 22.4554 80.1243 22.8998 80.1243 23.3287C80.1243 24.4325 80.7669 26.2617 82.1846 26.2617C82.5966 26.2617 83.0405 26.064 83.3052 25.8ZM73.624 28.6675C71.0088 28.6675 69.6105 26.6275 69.6105 24.7847C69.6105 22.6294 71.3703 20.7878 73.8717 20.7878C76.2888 20.7878 77.8024 22.6789 77.8024 24.6699C77.8026 26.6103 76.3062 28.6675 73.624 28.6675ZM75.6801 27.3351C76.0755 26.8082 76.1743 26.1505 76.1743 25.5084C76.1743 24.0603 75.4833 21.2971 73.4433 21.2971C72.9006 21.2971 72.3579 21.5113 71.9632 21.8575C71.3215 22.4324 71.2058 23.1566 71.2058 23.8647C71.2058 25.4921 72.012 28.1729 74.003 28.1729C74.6444 28.1729 75.3026 27.8609 75.6801 27.3351ZM64.7077 28.6675C62.092 28.6675 60.6934 26.6275 60.6934 24.7847C60.6934 22.6294 62.4539 20.7878 64.9547 20.7878C67.3724 20.7878 68.8858 22.6789 68.8858 24.6699C68.886 26.6103 67.3894 28.6675 64.7077 28.6675ZM66.7642 27.3351C67.159 26.8082 67.2579 26.1505 67.2579 25.5084C67.2579 24.0603 66.5665 21.2971 64.5265 21.2971C63.984 21.2971 63.4409 21.5113 63.0464 21.8575C62.4047 22.4324 62.2897 23.1566 62.2897 23.8647C62.2897 25.4921 63.0954 28.1729 65.0866 28.1729C65.7283 28.1729 66.386 27.8609 66.7642 27.3351ZM59.4368 28.4095L57.0714 28.9554C56.1117 29.1045 55.252 29.2358 54.3428 29.2358C49.7774 29.2358 48.0415 25.8782 48.0415 23.2484C48.0415 20.0402 50.5054 17.064 54.7234 17.064C55.6169 17.064 56.4761 17.1959 57.2533 17.4111C58.4937 17.7585 59.0725 18.1881 59.4366 18.4365L58.0633 19.743L57.4848 19.8748L57.8981 19.213C57.3361 18.6677 56.3097 17.659 54.3588 17.659C51.7455 17.659 49.777 19.6445 49.777 22.5386C49.777 25.647 52.0267 28.5745 55.6314 28.5745C56.691 28.5745 57.2357 28.3598 57.7322 28.1609V25.4988L55.2353 25.631L56.5579 24.9191H60.0644L59.6348 25.3324C59.5181 25.4321 59.5021 25.4656 59.4691 25.5966C59.4519 25.7458 59.4364 26.2258 59.4364 26.391V28.4096H59.4368V28.4095Z" fill="#010212"/>
<path d="M89.2247 27.9333C88.6786 27.8836 88.5643 27.7849 88.5643 27.1391V17.7783C88.5677 17.7427 88.5698 17.7061 88.5732 17.6717C88.6399 17.0931 88.8051 16.9939 89.3184 16.6958H86.9525L85.7117 17.2913H86.9762V17.2988L86.9752 17.2928V27.5035C86.9752 27.8336 86.91 27.8838 86.5291 28.3794H89.4569L90.0689 28.0165C89.788 27.9823 89.5063 27.9663 89.2247 27.9333ZM95.9547 28.0854C95.7747 28.1841 95.5939 28.2996 95.4139 28.3811C94.8709 28.6274 94.3127 28.6933 93.819 28.6933C93.2947 28.6933 92.4728 28.6594 91.6343 28.0524C90.4691 27.2304 89.9598 25.818 89.9598 24.5865C89.9598 22.0411 92.0293 20.7928 93.721 20.7928C94.3124 20.7928 94.9209 20.9404 95.4136 21.2531C96.2341 21.7941 96.4476 22.5003 96.5619 22.8783L92.703 24.4392L91.4381 24.5377C91.8481 26.6237 93.2605 27.8382 94.8214 27.8382C95.6589 27.8382 96.2669 27.5431 96.8251 27.2644L95.9547 28.0854ZM94.4112 23.1901C94.7227 23.0755 94.8869 22.9766 94.8869 22.7468C94.8869 22.0903 94.1482 21.3343 93.2605 21.3343C92.6028 21.3343 91.3718 21.8438 91.3718 23.6173C91.3718 23.8965 91.4048 24.192 91.4218 24.4887L94.4112 23.1901ZM97.54 20.9052V21.9889H97.4083V20.9052H97.0496V20.7928H97.8984V20.9052H97.54ZM99.0175 21.9889V20.8952H99.0115L98.6777 21.9889H98.5747L98.2381 20.8952H98.2338V21.9889H98.1142V20.7928H98.3191L98.6237 21.7597H98.628L98.928 20.7928H99.1358V21.9889H99.0175Z" fill="#010212"/>
<path d="M51.3264 13.8436H50.5044C50.5044 13.7305 50.4265 13.4104 50.2706 12.883H49.0841C48.9232 13.4018 48.8426 13.7219 48.8426 13.8436H48.0697C48.0697 13.7768 48.2696 13.2289 48.6693 12.1999C49.069 11.1709 49.2689 10.6041 49.2689 10.4999H50.2398C50.2398 10.5974 50.4208 11.1559 50.783 12.1755C51.1452 13.1952 51.3264 13.751 51.3264 13.8436ZM50.1398 12.3924C49.847 11.509 49.7007 11.0313 49.7007 10.9593H49.6596C49.6596 11.0261 49.508 11.5037 49.2051 12.3924H50.1398ZM54.6381 13.8436H54.0038C54.0038 13.7733 53.7683 13.4027 53.2976 12.7316C52.8046 12.0244 52.5237 11.541 52.4553 11.2807H52.4142C52.457 11.6555 52.4785 11.9946 52.4785 12.2977C52.4785 12.7206 52.4905 13.2361 52.5144 13.8438H51.8825C51.9081 13.3131 51.921 12.7302 51.921 12.095C51.921 11.4701 51.9081 10.9383 51.8825 10.5001H52.6452C52.6452 10.591 52.8565 10.9532 53.2794 11.5865C53.7296 12.2592 53.9883 12.7156 54.055 12.9554H54.0935C54.0524 12.5736 54.0318 12.2312 54.0318 11.9281C54.0318 11.4643 54.0198 10.9881 53.996 10.5001H54.6381C54.6139 10.9247 54.6022 11.4564 54.6022 12.095C54.602 12.7383 54.6139 13.3212 54.6381 13.8436ZM58.3602 12.056C58.3602 12.5423 58.2044 12.9669 57.8928 13.3298C57.5811 13.693 57.1445 13.8742 56.583 13.8742C56.3295 13.8742 55.9802 13.8639 55.5351 13.8433C55.5573 13.3262 55.5686 12.7431 55.5686 12.0945C55.5686 11.4715 55.5573 10.9398 55.5351 10.4996H55.9846C56.0582 10.4996 56.1677 10.497 56.3133 10.492C56.4586 10.4869 56.5538 10.4843 56.5982 10.4843C57.2163 10.4843 57.6643 10.6385 57.9428 10.9467C58.2211 11.2549 58.3602 11.6245 58.3602 12.056ZM57.6592 12.1664C57.6592 11.8377 57.5634 11.5609 57.3716 11.3354C57.1799 11.1104 56.887 10.9978 56.4933 10.9978C56.4197 10.9978 56.3188 11.0055 56.1901 11.021C56.2071 11.3636 56.2157 11.7213 56.2157 12.0945C56.2157 12.5038 56.2243 12.9095 56.2413 13.3119C56.3511 13.334 56.4629 13.3452 56.575 13.3453C56.9432 13.3453 57.2157 13.2308 57.3929 13.0023C57.5701 12.7737 57.6592 12.4952 57.6592 12.1664ZM61.7926 13.8436H61.0324C60.8337 13.2375 60.6814 12.8634 60.5753 12.7213C60.4691 12.5791 60.298 12.5081 60.0618 12.5081C59.9623 12.5081 59.8674 12.509 59.7768 12.5107C59.7768 12.9509 59.7844 13.3951 59.8 13.8436H59.0861C59.1083 13.3264 59.1196 12.7433 59.1196 12.0947C59.1196 11.4717 59.1083 10.94 59.0861 10.4999H59.5303C59.5817 10.4999 59.689 10.4972 59.8526 10.4922C60.0161 10.4872 60.1672 10.4845 60.3059 10.4845C61.0917 10.4845 61.4847 10.7533 61.4847 11.291C61.4847 11.7172 61.2605 12.0142 60.812 12.1822V12.2207C60.9848 12.2685 61.1364 12.4036 61.2665 12.625C61.3963 12.8466 61.5717 13.2528 61.7926 13.8436ZM60.8297 11.4808C60.8297 11.1401 60.6104 10.9696 60.1722 10.9696C60.0113 10.9696 59.869 10.9816 59.7459 11.0055C59.7648 11.2709 59.7741 11.6168 59.7741 12.0431C59.8683 12.0467 59.948 12.0481 60.013 12.0481C60.5573 12.0483 60.8297 11.8592 60.8297 11.4808ZM65.4739 12.11C65.4739 12.6355 65.313 13.0713 64.991 13.4173C64.669 13.763 64.2709 13.9361 63.7968 13.9361C63.3447 13.9361 62.9663 13.7773 62.6617 13.4596C62.3569 13.1421 62.2046 12.7383 62.2046 12.2489C62.2046 11.7234 62.3655 11.2876 62.6875 10.9416C63.0093 10.5959 63.4074 10.4229 63.8817 10.4229C64.3338 10.4229 64.712 10.5811 65.0168 10.8979C65.3216 11.2147 65.4739 11.6185 65.4739 12.11ZM64.7653 12.1844C64.7653 11.8265 64.6737 11.5362 64.4906 11.3137C64.3072 11.0911 64.0813 10.9799 63.8126 10.9799C63.5625 10.9799 63.3502 11.092 63.1757 11.3163C63.0012 11.5406 62.9134 11.8239 62.9134 12.1665C62.9134 12.5224 63.0055 12.8122 63.1895 13.0358C63.3736 13.2593 63.5991 13.3709 63.8664 13.3709C64.1162 13.3709 64.3288 13.2583 64.5033 13.0331C64.6778 12.8081 64.7653 12.525 64.7653 12.1844ZM66.9261 13.8436H66.1993C66.2215 13.3128 66.2328 12.73 66.2328 12.0947C66.2328 11.4698 66.2215 10.9381 66.1993 10.4999H66.9261C66.9038 10.9314 66.8926 11.4629 66.8926 12.0947C66.8926 12.74 66.9038 13.3231 66.9261 13.8436ZM70.6485 12.056C70.6485 12.5423 70.4926 12.9669 70.1811 13.3298C69.8694 13.693 69.4328 13.8742 68.8712 13.8742C68.6178 13.8742 68.2685 13.8639 67.8233 13.8433C67.8456 13.3262 67.8568 12.7431 67.8568 12.0945C67.8568 11.4715 67.8456 10.9398 67.8233 10.4996H68.2728C68.3464 10.4996 68.4559 10.497 68.6015 10.492C68.7469 10.4869 68.842 10.4843 68.8865 10.4843C69.5045 10.4843 69.9526 10.6385 70.2311 10.9467C70.5093 11.2549 70.6485 11.6245 70.6485 12.056ZM69.9475 12.1664C69.9475 11.8377 69.8517 11.5609 69.6599 11.3354C69.4682 11.1104 69.1753 10.9978 68.7815 10.9978C68.7079 10.9978 68.607 11.0055 68.4784 11.021C68.4954 11.3636 68.5039 11.7213 68.5039 12.0945C68.5039 12.5038 68.5126 12.9095 68.5295 13.3119C68.6394 13.334 68.7512 13.3452 68.8633 13.3453C69.2314 13.3453 69.504 13.2308 69.6812 13.0023C69.8583 12.7737 69.9475 12.4952 69.9475 12.1664ZM75.5868 13.8436H74.7649C74.7649 13.7305 74.687 13.4104 74.5308 12.883H73.3443C73.1834 13.4018 73.1028 13.7219 73.1028 13.8436H72.3301C72.3301 13.7768 72.53 13.2289 72.9298 12.1999C73.3295 11.1709 73.5294 10.6041 73.5294 10.4999H74.5002C74.5002 10.5974 74.6815 11.1559 75.0434 12.1755C75.4054 13.1952 75.5868 13.751 75.5868 13.8436ZM74.4003 12.3924C74.1074 11.509 73.9609 11.0313 73.9609 10.9593H73.9197C73.9197 11.0261 73.7684 11.5037 73.4655 12.3924H74.4003ZM78.5825 11.3753C78.5825 11.7846 78.4304 12.0868 78.1265 12.2819C77.8227 12.477 77.4499 12.5748 77.0081 12.5748C76.9276 12.5748 76.8704 12.5731 76.836 12.5698C76.836 12.8918 76.8453 13.3162 76.8642 13.8436H76.1424C76.1646 13.3489 76.1759 12.7658 76.1759 12.0947C76.1759 11.4784 76.1647 10.9467 76.1424 10.4999H76.5892C76.6526 10.4999 76.774 10.4972 76.9538 10.4922C77.1336 10.4872 77.2893 10.4845 77.4212 10.4845C77.7464 10.4845 78.0213 10.5582 78.2456 10.7054C78.4698 10.8527 78.5825 11.0758 78.5825 11.3753ZM77.92 11.5166C77.92 11.1504 77.6768 10.967 77.1906 10.967C77.0689 10.967 76.9405 10.9799 76.8054 11.0055C76.8243 11.3292 76.8336 11.6955 76.8336 12.1048C76.8764 12.1084 76.9261 12.1098 76.9826 12.1098C77.6075 12.11 77.92 11.9123 77.92 11.5166ZM81.6627 11.3753C81.6627 11.7846 81.5107 12.0868 81.207 12.2819C80.9032 12.477 80.5302 12.5748 80.0884 12.5748C80.0078 12.5748 79.9507 12.5731 79.9163 12.5698C79.9163 12.8918 79.9256 13.3162 79.9445 13.8436H79.2227C79.2449 13.3489 79.2562 12.7658 79.2562 12.0947C79.2562 11.4784 79.245 10.9467 79.2227 10.4999H79.6695C79.7329 10.4999 79.8543 10.4972 80.0341 10.4922C80.2139 10.4872 80.3695 10.4845 80.5015 10.4845C80.8266 10.4845 81.1016 10.5582 81.3259 10.7054C81.5501 10.8527 81.6627 11.0758 81.6627 11.3753ZM81.0002 11.5166C81.0002 11.1504 80.7571 10.967 80.2708 10.967C80.1491 10.967 80.0207 10.9799 79.8857 11.0055C79.9045 11.3292 79.9139 11.6955 79.9139 12.1048C79.9567 12.1084 80.0064 12.1098 80.0628 12.1098C80.6878 12.11 81.0002 11.9123 81.0002 11.5166ZM86.6988 12.11C86.6988 12.6355 86.5379 13.0713 86.2159 13.4173C85.8939 13.7632 85.4958 13.9361 85.0217 13.9361C84.5696 13.9361 84.1912 13.7773 83.8866 13.4596C83.582 13.1421 83.4295 12.7383 83.4295 12.2489C83.4295 11.7234 83.5904 11.2876 83.9124 10.9416C84.2344 10.5957 84.6325 10.4229 85.1066 10.4229C85.5587 10.4229 85.9371 10.5811 86.2417 10.8979C86.5463 11.2147 86.6988 11.6185 86.6988 12.11ZM85.99 12.1844C85.99 11.8265 85.8984 11.5362 85.7153 11.3137C85.5322 11.0911 85.306 10.9799 85.0373 10.9799C84.7872 10.9799 84.5749 11.092 84.4004 11.3163C84.2258 11.5406 84.1383 11.8239 84.1383 12.1665C84.1383 12.5224 84.2304 12.8122 84.4145 13.0358C84.5985 13.2593 84.824 13.3709 85.0911 13.3709C85.3411 13.3709 85.5534 13.2583 85.7279 13.0331C85.9027 12.8081 85.99 12.525 85.99 12.1844ZM90.1798 13.8436H89.5455C89.5455 13.7733 89.3102 13.4027 88.8393 12.7316C88.3463 12.0244 88.0654 11.541 87.997 11.2807H87.9559C87.9987 11.6555 88.0202 11.9946 88.0202 12.2977C88.0202 12.7206 88.0322 13.2361 88.0561 13.8438H87.4242C87.4498 13.3131 87.4627 12.7302 87.4627 12.095C87.4627 11.4701 87.4498 10.9383 87.4242 10.5001H88.1869C88.1869 10.591 88.3984 10.9532 88.8211 11.5865C89.2715 12.2592 89.53 12.7156 89.5967 12.9554H89.6352C89.5941 12.5736 89.5735 12.2312 89.5735 11.9281C89.5735 11.4643 89.5616 10.9881 89.5376 10.5001H90.1798C90.1557 10.9247 90.1439 11.4564 90.1439 12.095C90.1439 12.7383 90.1559 13.3212 90.1798 13.8436Z" fill="#010212"/>
<defs>
<linearGradient id="paint0_linear_6_71" x1="24.7184" y1="16.8737" x2="16.1126" y2="25.5504" gradientUnits="userSpaceOnUse">
<stop stop-color="#00C3FF"/>
<stop offset="1" stop-color="#1BE2FA"/>
</linearGradient>
<linearGradient id="paint1_linear_6_71" x1="29.3339" y1="21.8178" x2="40.78" y2="21.8178" gradientUnits="userSpaceOnUse">
<stop stop-color="#FFCE00"/>
<stop offset="1" stop-color="#FFEA00"/>
</linearGradient>
<linearGradient id="paint2_linear_6_71" x1="16.4108" y1="36.1002" x2="31.6364" y2="23.8934" gradientUnits="userSpaceOnUse">
<stop stop-color="#DE2453"/>
<stop offset="1" stop-color="#FE3944"/>
</linearGradient>
<linearGradient id="paint3_linear_6_71" x1="17.1492" y1="7.90137" x2="31.639" y2="19.7365" gradientUnits="userSpaceOnUse">
<stop stop-color="#11D574"/>
<stop offset="1" stop-color="#01F176"/>
</linearGradient>
</defs>
</svg>
