<svg width="16" height="16" viewBox="0 0 16 16" fill="none" xmlns="http://www.w3.org/2000/svg">
<g clip-path="url(#clip0_1_640)">
<path d="M16 15.646V9.73001C16 6.56001 14.308 5.08502 12.052 5.08502C10.2315 5.08502 9.4155 6.08652 8.961 6.78952V5.32752H5.531C5.5765 6.29602 5.531 15.646 5.531 15.646H8.961V9.88352C8.961 9.57602 8.983 9.26752 9.074 9.04751C9.3215 8.43102 9.886 7.79302 10.833 7.79302C12.0745 7.79302 12.5705 8.73902 12.5705 10.126V15.6465L16 15.646ZM1.9175 3.91902C3.113 3.91902 3.8585 3.12602 3.8585 2.13552C3.8365 1.12352 3.1135 0.353516 1.9405 0.353516C0.7675 0.353516 0 1.12302 0 2.13552C0 3.12602 0.7445 3.91902 1.896 3.91902H1.9175ZM3.6325 15.646V5.32752H0.203V15.646H3.6325Z" fill="white"/>
</g>
<defs>
<clipPath id="clip0_1_640">
<rect width="16" height="16" fill="white"/>
</clipPath>
</defs>
</svg>
