<svg width="16" height="16" viewBox="0 0 16 16" fill="none" xmlns="http://www.w3.org/2000/svg">
<path d="M7.99999 1.44146C10.1359 1.44146 10.3888 1.44945 11.2326 1.48793C11.7399 1.49414 12.2424 1.58729 12.7182 1.76334C13.0633 1.89642 13.3767 2.10028 13.6382 2.36179C13.8997 2.62331 14.1036 2.93668 14.2366 3.28175C14.4127 3.75758 14.5059 4.26008 14.5121 4.76739C14.5502 5.61116 14.5585 5.8641 14.5585 8C14.5585 10.1359 14.5505 10.3888 14.5121 11.2326C14.5059 11.7399 14.4127 12.2424 14.2366 12.7183C14.1036 13.0633 13.8997 13.3767 13.6382 13.6382C13.3767 13.8997 13.0633 14.1036 12.7182 14.2367C12.2424 14.4127 11.7399 14.5059 11.2326 14.5121C10.3892 14.5502 10.1363 14.5585 7.99999 14.5585C5.86371 14.5585 5.61077 14.5505 4.76738 14.5121C4.26006 14.5059 3.75757 14.4127 3.28173 14.2367C2.93667 14.1036 2.62329 13.8997 2.36178 13.6382C2.10026 13.3767 1.89641 13.0633 1.76333 12.7183C1.58728 12.2424 1.49412 11.7399 1.48791 11.2326C1.44982 10.3888 1.44144 10.1359 1.44144 8C1.44144 5.8641 1.44944 5.61116 1.48791 4.76739C1.49412 4.26008 1.58728 3.75758 1.76333 3.28175C1.89641 2.93668 2.10026 2.62331 2.36178 2.36179C2.62329 2.10028 2.93667 1.89642 3.28173 1.76334C3.75757 1.58729 4.26006 1.49414 4.76738 1.48793C5.61115 1.44984 5.86409 1.44146 7.99999 1.44146ZM7.99999 0C5.82866 0 5.55515 0.0091424 4.70186 0.0479977C4.03791 0.0612039 3.381 0.186917 2.75909 0.41979C2.22559 0.620796 1.74238 0.93579 1.34316 1.34279C0.935788 1.74215 0.620525 2.22565 0.419394 2.75949C0.186521 3.3814 0.0608083 4.0383 0.0476021 4.70225C0.00950866 5.55478 0.000366211 5.82829 0.000366211 7.99962C0.000366211 10.1709 0.00950861 10.4445 0.0483639 11.2977C0.0615701 11.9617 0.187283 12.6186 0.420156 13.2405C0.621064 13.7743 0.936063 14.2578 1.34316 14.6572C1.7426 15.0643 2.22608 15.3793 2.75985 15.5802C3.38177 15.8131 4.03867 15.9388 4.70262 15.952C5.55591 15.9901 5.82828 16 8.00075 16C10.1732 16 10.4456 15.9909 11.2989 15.952C11.9628 15.9388 12.6197 15.8131 13.2416 15.5802C13.7729 15.3743 14.2553 15.0598 14.658 14.6568C15.0608 14.2537 15.375 13.7711 15.5806 13.2398C15.8135 12.6178 15.9392 11.9609 15.9524 11.297C15.9905 10.4445 15.9996 10.1709 15.9996 7.99962C15.9996 5.82829 15.9905 5.55478 15.9516 4.70149C15.9384 4.03754 15.8127 3.38064 15.5798 2.75873C15.3789 2.22495 15.0639 1.74147 14.6568 1.34203C14.2574 0.934935 13.7739 0.619935 13.2401 0.419028C12.6182 0.186155 11.9613 0.0604421 11.2974 0.0472359C10.4448 0.00914245 10.1713 0 7.99999 0Z" fill="white"/>
<path d="M8.00161 3.89355C7.18913 3.89355 6.39489 4.13448 5.71933 4.58588C5.04378 5.03727 4.51724 5.67885 4.20632 6.42949C3.8954 7.18013 3.81404 8.00611 3.97255 8.80298C4.13106 9.59985 4.52231 10.3318 5.09682 10.9063C5.67134 11.4809 6.40331 11.8721 7.20018 12.0306C7.99706 12.1891 8.82304 12.1078 9.57367 11.7968C10.3243 11.4859 10.9659 10.9594 11.4173 10.2838C11.8687 9.60827 12.1096 8.81403 12.1096 8.00155C12.1096 6.91204 11.6768 5.86716 10.9064 5.09676C10.136 4.32636 9.09112 3.89355 8.00161 3.89355ZM8.00161 10.6681C7.47422 10.6681 6.95867 10.5117 6.52016 10.2187C6.08165 9.92569 5.73988 9.50924 5.53805 9.02199C5.33623 8.53474 5.28342 7.99859 5.38631 7.48133C5.4892 6.96408 5.74316 6.48894 6.11608 6.11602C6.48901 5.7431 6.96414 5.48914 7.4814 5.38625C7.99865 5.28336 8.53481 5.33616 9.02205 5.53799C9.5093 5.73981 9.92576 6.08159 10.2188 6.5201C10.5118 6.95861 10.6682 7.47416 10.6682 8.00155C10.6682 8.70876 10.3872 9.387 9.88714 9.88708C9.38707 10.3872 8.70882 10.6681 8.00161 10.6681Z" fill="white"/>
<path d="M12.2711 4.69042C12.8013 4.69042 13.2311 4.26063 13.2311 3.73046C13.2311 3.20029 12.8013 2.77051 12.2711 2.77051C11.7409 2.77051 11.3112 3.20029 11.3112 3.73046C11.3112 4.26063 11.7409 4.69042 12.2711 4.69042Z" fill="white"/>
</svg>
