<svg width="96" height="96" viewBox="0 0 96 96" fill="none" xmlns="http://www.w3.org/2000/svg">
<path d="M92.064 79.1295C90.9601 76.9212 89.3496 75.0054 87.3639 73.5385C85.3782 72.0716 83.0736 71.0952 80.6385 70.689L72.963 69.411C72.3625 69.3064 71.7681 69.1692 71.1825 69H12L10.209 69.717C8.4572 70.4188 6.90805 71.5464 5.7017 72.9976C4.49536 74.4488 3.66989 76.178 3.29999 78.0285C2.90798 79.9901 2.90798 82.0099 3.29999 83.9715L3.91799 87.0585C4.08357 87.887 4.5308 88.6327 5.18375 89.1689C5.83669 89.705 6.6551 89.9987 7.49999 90H13.5345C12.6874 88.8883 12.1677 87.5619 12.0343 86.1706C11.9008 84.7793 12.1587 83.3784 12.779 82.1259C13.3993 80.8734 14.3573 79.8191 15.5448 79.082C16.7324 78.3449 18.1023 77.9544 19.5 77.9544C20.8977 77.9544 22.2676 78.3449 23.4551 79.082C24.6427 79.8191 25.6006 80.8734 26.2209 82.1259C26.8412 83.3784 27.0992 84.7793 26.9657 86.1706C26.8322 87.5619 26.3126 88.8883 25.4655 90H69.0345C68.1874 88.8883 67.6677 87.5619 67.5343 86.1706C67.4008 84.7793 67.6587 83.3784 68.279 82.1259C68.8993 80.8734 69.8573 79.8191 71.0448 79.082C72.2324 78.3449 73.6023 77.9544 75 77.9544C76.3977 77.9544 77.7676 78.3449 78.9551 79.082C80.1427 79.8191 81.1006 80.8734 81.7209 82.1259C82.3412 83.3784 82.5992 84.7793 82.4657 86.1706C82.3322 87.5619 81.8126 88.8883 80.9655 90H87C87.9228 90.0002 88.8313 89.7724 89.6448 89.337C90.4584 88.9016 91.1518 88.2719 91.6635 87.504C92.5352 86.1973 93.0002 84.6617 93 83.091C92.9998 81.7157 92.6793 80.3594 92.064 79.1295ZM52.5 34.5C54.8869 34.5 57.1761 33.5518 58.8639 31.864C60.5518 30.1761 61.5 27.8869 61.5 25.5V21L55.5 27L49.5 25.5L48 19.5L54 13.5H49.5C47.113 13.5 44.8238 14.4482 43.136 16.136C41.4482 17.8239 40.5 20.1131 40.5 22.5C40.5001 24.4021 40.1255 26.2856 39.3976 28.0429C38.6698 29.8002 37.6029 31.397 36.258 32.742L28.308 40.692C29.9375 43.031 31.969 45.0625 34.308 46.692L42.258 38.742C43.603 37.3971 45.1998 36.3302 46.9571 35.6024C48.7144 34.8745 50.5979 34.4999 52.5 34.5Z" fill="#D0E6FF"/>
<path d="M92.958 88.3364C93.9954 86.7823 94.5477 84.955 94.545 83.0864C94.5429 81.4783 94.1686 79.8924 93.4515 78.4529C92.2383 76.0354 90.4722 73.938 88.2965 72.331C86.1208 70.724 83.5969 69.6527 80.9295 69.2039L78.7725 68.8439L91.0605 56.5544C91.3417 56.2732 91.4997 55.8917 91.4997 55.4939C91.4997 55.0962 91.3417 54.7147 91.0605 54.4334L89.1225 52.4999C88.1462 51.5696 86.8493 51.0507 85.5008 51.0507C84.1522 51.0507 82.8553 51.5696 81.879 52.4999L68.25 66.1274C68.043 66.0089 67.8285 65.9024 67.626 65.7749L55.65 58.1504C52.9297 56.4172 49.7706 55.4976 46.545 55.4999H33.045C29.9936 55.4913 26.9709 56.0881 24.1518 57.2558C21.3326 58.4235 18.7731 60.1388 16.6215 62.3024L11.202 67.7204L9.70201 68.3204C7.71566 69.1113 5.95885 70.3868 4.59173 72.0306C3.22461 73.6744 2.29066 75.6342 1.87502 77.7314C1.44303 79.887 1.44303 82.1069 1.87502 84.2624L2.49152 87.3494C2.72737 88.5173 3.35893 89.5679 4.2796 90.3241C5.20027 91.0802 6.35364 91.4956 7.54502 91.4999H12.8565C13.6969 92.4434 14.7273 93.1985 15.8802 93.7155C17.0331 94.2325 18.2823 94.4998 19.5458 94.4998C20.8093 94.4998 22.0585 94.2325 23.2113 93.7155C24.3642 93.1985 25.3946 92.4434 26.235 91.4999H68.3565C69.1969 92.4434 70.2273 93.1985 71.3802 93.7155C72.5331 94.2325 73.7823 94.4998 75.0458 94.4998C76.3092 94.4998 77.5584 94.2325 78.7113 93.7155C79.8642 93.1985 80.8946 92.4434 81.735 91.4999H87.045C88.2151 91.5013 89.3673 91.2132 90.399 90.6612C91.4308 90.1093 92.3099 89.3106 92.958 88.3364ZM89.208 77.3864C89.7346 78.0477 90.2005 78.755 90.6 79.4999H90.045C89.1764 79.4997 88.3263 79.248 87.5976 78.7753C86.8688 78.3026 86.2924 77.629 85.938 76.8359L89.208 77.3864ZM84 54.6209C84.4039 54.2348 84.9412 54.0192 85.5 54.0192C86.0588 54.0192 86.5961 54.2348 87 54.6209L87.879 55.4999L75.129 68.2499L73.2495 67.9364C72.5517 67.8168 71.8631 67.6489 71.1885 67.4339L84 54.6209ZM54.036 60.6809L64.752 67.4999H42V58.4999H46.545C49.1987 58.4988 51.7976 59.2555 54.036 60.6809ZM36 58.4999H39V67.4999H36V58.4999ZM18.75 64.4234C20.6179 62.546 22.8384 61.0562 25.2839 60.0396C27.7294 59.0231 30.3517 58.4998 33 58.4999V67.4999H15.666L18.75 64.4234ZM7.54502 74.9999V76.4999C7.54502 76.8978 7.38698 77.2793 7.10568 77.5606C6.82437 77.8419 6.44284 77.9999 6.04502 77.9999H4.89602C5.14187 76.9381 5.56207 75.9244 6.13952 74.9999H7.54502ZM19.545 91.4999C18.3583 91.4999 17.1983 91.1481 16.2116 90.4888C15.2249 89.8295 14.4559 88.8924 14.0017 87.7961C13.5476 86.6997 13.4288 85.4933 13.6603 84.3294C13.8918 83.1655 14.4633 82.0964 15.3024 81.2573C16.1415 80.4182 17.2106 79.8467 18.3745 79.6152C19.5384 79.3837 20.7448 79.5025 21.8411 79.9567C22.9375 80.4108 23.8745 81.1798 24.5338 82.1665C25.1931 83.1532 25.545 84.3133 25.545 85.4999C25.545 86.2879 25.3898 87.0681 25.0883 87.7961C24.7868 88.524 24.3448 89.1854 23.7877 89.7426C23.2305 90.2997 22.5691 90.7417 21.8411 91.0432C21.1132 91.3448 20.3329 91.4999 19.545 91.4999ZM75.045 91.4999C73.8583 91.4999 72.6983 91.1481 71.7116 90.4888C70.7249 89.8295 69.9559 88.8924 69.5017 87.7961C69.0476 86.6997 68.9288 85.4933 69.1603 84.3294C69.3918 83.1655 69.9633 82.0964 70.8024 81.2573C71.6415 80.4182 72.7106 79.8467 73.8745 79.6152C75.0384 79.3837 76.2448 79.5025 77.3411 79.9567C78.4375 80.4108 79.3745 81.1798 80.0338 82.1665C80.6931 83.1532 81.045 84.3133 81.045 85.4999C81.045 87.0912 80.4129 88.6174 79.2877 89.7426C78.1624 90.8678 76.6363 91.4999 75.045 91.4999ZM87.045 88.4999H83.52C84.0055 87.1417 84.1573 85.6866 83.9628 84.2574C83.7683 82.8281 83.2331 81.4666 82.4023 80.2874C81.5716 79.1083 80.4695 78.1461 79.1891 77.4819C77.9087 76.8177 76.4874 76.471 75.045 76.471C73.6026 76.471 72.1813 76.8177 70.9009 77.4819C69.6205 78.1461 68.5185 79.1083 67.6877 80.2874C66.8569 81.4666 66.3217 82.8281 66.1272 84.2574C65.9327 85.6866 66.0846 87.1417 66.57 88.4999H28.02C28.5055 87.1417 28.6573 85.6866 28.4628 84.2574C28.2683 82.8281 27.7331 81.4666 26.9023 80.2874C26.0716 79.1083 24.9695 78.1461 23.6891 77.4819C22.4087 76.8177 20.9874 76.471 19.545 76.471C18.1026 76.471 16.6813 76.8177 15.4009 77.4819C14.1205 78.1461 13.0185 79.1083 12.1877 80.2874C11.3569 81.4666 10.8217 82.8281 10.6272 84.2574C10.4327 85.6866 10.5846 87.1417 11.07 88.4999H7.54502C7.04619 88.4986 6.5631 88.3252 6.17726 88.009C5.79142 87.6928 5.52643 87.2533 5.42702 86.7644L4.81052 83.6759C4.63431 82.7948 4.54538 81.8985 4.54502 80.9999H6.04502C7.23849 80.9999 8.38308 80.5258 9.227 79.6819C10.0709 78.838 10.545 77.6934 10.545 76.4999V73.4999C10.5423 73.1146 10.3913 72.7452 10.1235 72.4681C9.85568 72.1911 9.49152 72.0277 9.10652 72.0119C9.64416 71.6577 10.2148 71.3563 10.8105 71.1119L12.3345 70.4999H71.022C71.595 70.6499 72.174 70.7909 72.762 70.8899L80.436 72.1679C81.8791 72.4156 83.2746 72.8878 84.5715 73.5674L84.2925 73.5209C84.0776 73.485 83.8575 73.4963 83.6474 73.5541C83.4373 73.6118 83.2423 73.7147 83.076 73.8554C82.9097 73.9962 82.776 74.1715 82.6843 74.3691C82.5926 74.5668 82.5451 74.7821 82.545 74.9999C82.5474 76.9883 83.3383 78.8946 84.7443 80.3006C86.1504 81.7066 88.0566 82.4976 90.045 82.4999H91.5105C91.527 82.6964 91.545 82.8944 91.545 83.0999C91.5437 83.4011 91.5217 83.7018 91.479 83.9999H87.045V86.9999H90.1785C89.7989 87.4652 89.3211 87.841 88.7795 88.1003C88.2378 88.3596 87.6455 88.496 87.045 88.4999Z" fill="#1781F8"/>
<path d="M19.545 81C18.655 81 17.7849 81.2639 17.0449 81.7584C16.3049 82.2529 15.7281 82.9557 15.3875 83.7779C15.0469 84.6002 14.9578 85.505 15.1315 86.3779C15.3051 87.2508 15.7337 88.0526 16.363 88.682C16.9923 89.3113 17.7942 89.7399 18.6671 89.9135C19.54 90.0872 20.4448 89.9981 21.2671 89.6575C22.0893 89.3169 22.7921 88.7401 23.2866 88.0001C23.7811 87.26 24.045 86.39 24.045 85.5C24.045 84.9091 23.9286 84.3239 23.7024 83.7779C23.4763 83.232 23.1448 82.7359 22.727 82.318C22.3091 81.9002 21.813 81.5687 21.2671 81.3425C20.7211 81.1164 20.1359 81 19.545 81ZM19.545 87C19.2483 87 18.9583 86.912 18.7116 86.7472C18.465 86.5824 18.2727 86.3481 18.1592 86.074C18.0456 85.7999 18.0159 85.4983 18.0738 85.2074C18.1317 84.9164 18.2745 84.6491 18.4843 84.4393C18.6941 84.2296 18.9614 84.0867 19.2523 84.0288C19.5433 83.9709 19.8449 84.0007 20.119 84.1142C20.3931 84.2277 20.6274 84.42 20.7922 84.6666C20.957 84.9133 21.045 85.2033 21.045 85.5C21.045 85.8978 20.8869 86.2794 20.6056 86.5607C20.3243 86.842 19.9428 87 19.545 87ZM75.045 81C74.155 81 73.2849 81.2639 72.5449 81.7584C71.8049 82.2529 71.2281 82.9557 70.8875 83.7779C70.5469 84.6002 70.4578 85.505 70.6314 86.3779C70.8051 87.2508 71.2337 88.0526 71.863 88.682C72.4923 89.3113 73.2942 89.7399 74.1671 89.9135C75.04 90.0872 75.9448 89.9981 76.7671 89.6575C77.5893 89.3169 78.2921 88.7401 78.7866 88.0001C79.2811 87.26 79.545 86.39 79.545 85.5C79.545 84.3065 79.0709 83.1619 78.227 82.318C77.3831 81.4741 76.2385 81 75.045 81ZM75.045 87C74.7483 87 74.4583 86.912 74.2116 86.7472C73.965 86.5824 73.7727 86.3481 73.6592 86.074C73.5456 85.7999 73.5159 85.4983 73.5738 85.2074C73.6317 84.9164 73.7745 84.6491 73.9843 84.4393C74.1941 84.2296 74.4614 84.0867 74.7523 84.0288C75.0433 83.9709 75.3449 84.0007 75.619 84.1142C75.8931 84.2277 76.1274 84.42 76.2922 84.6666C76.457 84.9133 76.545 85.2033 76.545 85.5C76.545 85.8978 76.3869 86.2794 76.1056 86.5607C75.8243 86.842 75.4428 87 75.045 87Z" fill="#1781F8"/>
<path d="M48 73.5H42V76.5H48V73.5Z" fill="#1781F8"/>
<path d="M73.5 27C73.5 21.9566 72.0045 17.0264 69.2025 12.833C66.4005 8.63952 62.418 5.37112 57.7584 3.44108C53.0989 1.51105 47.9717 1.00606 43.0252 1.98999C38.0787 2.97391 33.535 5.40255 29.9688 8.96879C26.4025 12.535 23.9739 17.0787 22.99 22.0252C22.0061 26.9717 22.511 32.0989 24.4411 36.7584C26.3711 41.418 29.6395 45.4005 33.833 48.2025C38.0264 51.0045 42.9566 52.5 48 52.5C54.7607 52.4925 61.2424 49.8034 66.0229 45.0229C70.8034 40.2424 73.4925 33.7607 73.5 27ZM48 4.50001C51.4587 4.49168 54.8728 5.28083 57.977 6.80617C61.0812 8.33151 63.792 10.552 65.8987 13.295C68.0054 16.0381 69.4514 19.2299 70.1243 22.6226C70.7972 26.0152 70.6789 29.5173 69.7786 32.8568C68.8783 36.1963 67.2202 39.2833 64.9331 41.8779C62.6461 44.4725 59.7916 46.505 56.5916 47.8173C53.3915 49.1297 49.9319 49.6867 46.4817 49.4449C43.0314 49.2032 39.6833 48.1693 36.6975 46.4235L43.317 39.804C44.5201 38.5942 45.9511 37.635 47.5274 36.982C49.1037 36.3291 50.7938 35.9953 52.5 36C55.2838 35.9968 57.9527 34.8896 59.9211 32.9211C61.8896 30.9527 62.9968 28.2838 63 25.5V21C62.9999 20.7034 62.9119 20.4134 62.7471 20.1668C62.5823 19.9202 62.348 19.728 62.074 19.6145C61.7999 19.501 61.4984 19.4713 61.2075 19.5291C60.9165 19.587 60.6493 19.7298 60.4395 19.9395L55.0395 25.3395L50.7375 24.2625L49.6605 19.9605L55.0605 14.5605C55.2702 14.3507 55.413 14.0835 55.4709 13.7926C55.5287 13.5016 55.499 13.2001 55.3855 12.926C55.272 12.652 55.0798 12.4177 54.8332 12.2529C54.5866 12.0881 54.2966 12.0001 54 12H49.5C46.7162 12.0032 44.0473 13.1105 42.0789 15.0789C40.1105 17.0473 39.0032 19.7162 39 22.5C39.0047 24.2062 38.6709 25.8963 38.018 27.4726C37.365 29.0489 36.4058 30.48 35.196 31.683L28.5765 38.3025C26.5771 34.8875 25.5157 31.0048 25.4996 27.0476C25.4835 23.0904 26.5134 19.1993 28.485 15.7682C30.4566 12.337 33.2998 9.48784 36.7268 7.50907C40.1538 5.5303 44.0428 4.49224 48 4.50001ZM30.291 40.8315L37.317 33.804C38.8066 32.3233 39.9875 30.5617 40.7914 28.6213C41.5952 26.6809 42.006 24.6003 42 22.5C42.0024 20.5116 42.7933 18.6053 44.1993 17.1993C45.6053 15.7933 47.5116 15.0024 49.5 15H50.379L46.9395 18.4395C46.7563 18.6227 46.6236 18.8503 46.5545 19.1C46.4853 19.3498 46.4821 19.6131 46.545 19.8645L48.045 25.8645C48.111 26.128 48.2473 26.3686 48.4394 26.5606C48.6314 26.7527 48.872 26.889 49.1355 26.955L55.1355 28.455C55.3869 28.5179 55.6503 28.5147 55.9 28.4455C56.1497 28.3764 56.3773 28.2438 56.5605 28.0605L60 24.621V25.5C59.9976 27.4884 59.2067 29.3947 57.8007 30.8007C56.3947 32.2067 54.4884 32.9976 52.5 33C50.3997 32.994 48.3191 33.4048 46.3787 34.2087C44.4383 35.0125 42.6767 36.1934 41.196 37.683L34.1685 44.709C32.7233 43.5788 31.4212 42.2767 30.291 40.8315Z" fill="#1781F8"/>
</svg>
