<svg width="40" height="41" viewBox="0 0 40 41" fill="none" xmlns="http://www.w3.org/2000/svg">
<rect y="0.5" width="40" height="40" rx="8" fill="#3C2674"/>
<path d="M16.5704 23.77L23.1104 17.23" stroke="white" stroke-width="1.5" stroke-linecap="round" stroke-linejoin="round"/>
<path d="M16.9801 18.8699C17.6594 18.8699 18.2101 18.3192 18.2101 17.6399C18.2101 16.9606 17.6594 16.4099 16.9801 16.4099C16.3008 16.4099 15.7501 16.9606 15.7501 17.6399C15.7501 18.3192 16.3008 18.8699 16.9801 18.8699Z" stroke="white" stroke-width="1.5" stroke-linecap="round" stroke-linejoin="round"/>
<path d="M23.5203 24.5901C24.1996 24.5901 24.7503 24.0394 24.7503 23.3601C24.7503 22.6808 24.1996 22.1301 23.5203 22.1301C22.841 22.1301 22.2903 22.6808 22.2903 23.3601C22.2903 24.0394 22.841 24.5901 23.5203 24.5901Z" stroke="white" stroke-width="1.5" stroke-linecap="round" stroke-linejoin="round"/>
<path d="M20.0003 30.5C25.5232 30.5 30.0003 26.0228 30.0003 20.5C30.0003 14.9772 25.5232 10.5 20.0003 10.5C14.4775 10.5 10.0003 14.9772 10.0003 20.5C10.0003 26.0228 14.4775 30.5 20.0003 30.5Z" stroke="white" stroke-width="1.5" stroke-linecap="round" stroke-linejoin="round"/>
</svg>
