<svg width="40" height="41" viewBox="0 0 40 41" fill="none" xmlns="http://www.w3.org/2000/svg">
<rect y="0.5" width="40" height="40" rx="8" fill="#417B78"/>
<path d="M22.4998 12.1667V20.5001C22.4998 21.4167 21.7498 22.1667 20.8332 22.1667H11.6665V16.8501C12.2748 17.5751 13.2082 18.0251 14.2415 18.0001C15.0832 17.9834 15.8415 17.6584 16.4082 17.1167C16.6665 16.9001 16.8832 16.6251 17.0499 16.3251C17.3499 15.8167 17.5165 15.2167 17.4998 14.5917C17.4748 13.6167 17.0415 12.7584 16.3665 12.1667H22.4998Z" stroke="white" stroke-width="1.25" stroke-linecap="round" stroke-linejoin="round"/>
<path d="M28.3332 22.1667V24.6667C28.3332 26.0501 27.2165 27.1667 25.8332 27.1667H24.9998C24.9998 26.2501 24.2498 25.5001 23.3332 25.5001C22.4165 25.5001 21.6665 26.2501 21.6665 27.1667H18.3332C18.3332 26.2501 17.5832 25.5001 16.6665 25.5001C15.7498 25.5001 14.9998 26.2501 14.9998 27.1667H14.1665C12.7832 27.1667 11.6665 26.0501 11.6665 24.6667V22.1667H20.8332C21.7498 22.1667 22.4998 21.4167 22.4998 20.5001V14.6667H24.0332C24.6332 14.6667 25.1832 14.9918 25.4832 15.5084L26.9082 18.0001H25.8332C25.3748 18.0001 24.9998 18.3751 24.9998 18.8334V21.3334C24.9998 21.7917 25.3748 22.1667 25.8332 22.1667H28.3332Z" stroke="white" stroke-width="1.25" stroke-linecap="round" stroke-linejoin="round"/>
<path d="M16.6665 28.8333C17.587 28.8333 18.3332 28.0871 18.3332 27.1667C18.3332 26.2462 17.587 25.5 16.6665 25.5C15.746 25.5 14.9998 26.2462 14.9998 27.1667C14.9998 28.0871 15.746 28.8333 16.6665 28.8333Z" stroke="white" stroke-width="1.25" stroke-linecap="round" stroke-linejoin="round"/>
<path d="M23.3332 28.8333C24.2536 28.8333 24.9998 28.0871 24.9998 27.1667C24.9998 26.2462 24.2536 25.5 23.3332 25.5C22.4127 25.5 21.6665 26.2462 21.6665 27.1667C21.6665 28.0871 22.4127 28.8333 23.3332 28.8333Z" stroke="white" stroke-width="1.25" stroke-linecap="round" stroke-linejoin="round"/>
<path d="M28.3332 20.5V22.1667H25.8332C25.3748 22.1667 24.9998 21.7917 24.9998 21.3333V18.8333C24.9998 18.375 25.3748 18 25.8332 18H26.9082L28.3332 20.5Z" stroke="white" stroke-width="1.25" stroke-linecap="round" stroke-linejoin="round"/>
<path d="M17.5 14.5917C17.5167 15.2167 17.35 15.8167 17.05 16.325C16.8833 16.625 16.6667 16.9001 16.4083 17.1167C15.8417 17.6584 15.0833 17.9834 14.2417 18.0001C13.2083 18.0251 12.275 17.5751 11.6667 16.8501C11.55 16.7251 11.45 16.5834 11.3583 16.4417C11.0333 15.9501 10.85 15.3667 10.8333 14.7417C10.8083 13.6917 11.275 12.7334 12.025 12.1084C12.5917 11.6417 13.3083 11.3501 14.0916 11.3334C14.9666 11.3167 15.7667 11.6334 16.3667 12.1667C17.0417 12.7584 17.475 13.6167 17.5 14.5917Z" stroke="white" stroke-width="1.25" stroke-miterlimit="10" stroke-linecap="round" stroke-linejoin="round"/>
<path d="M12.8667 14.6917L13.7084 15.4917L15.45 13.8083" stroke="white" stroke-width="1.25" stroke-linecap="round" stroke-linejoin="round"/>
</svg>
