<svg width="40" height="41" viewBox="0 0 40 41" fill="none" xmlns="http://www.w3.org/2000/svg">
<rect y="0.5" width="40" height="40" rx="8" fill="#C68A9E"/>
<path d="M20 20.5001C22.3012 20.5001 24.1667 18.6346 24.1667 16.3334C24.1667 14.0322 22.3012 12.1667 20 12.1667C17.6988 12.1667 15.8333 14.0322 15.8333 16.3334C15.8333 18.6346 17.6988 20.5001 20 20.5001Z" stroke="white" stroke-width="1.25" stroke-linecap="round" stroke-linejoin="round"/>
<path d="M12.8418 28.8333C12.8418 25.6083 16.0501 23 20.0001 23C20.8001 23 21.5751 23.1083 22.3001 23.3083" stroke="white" stroke-width="1.25" stroke-linecap="round" stroke-linejoin="round"/>
<path d="M28.3333 25.5001C28.3333 26.1251 28.1583 26.7167 27.85 27.2167C27.675 27.5167 27.45 27.7834 27.1917 28.0001C26.6083 28.5251 25.8417 28.8334 25 28.8334C23.7833 28.8334 22.725 28.1834 22.15 27.2167C21.8417 26.7167 21.6667 26.1251 21.6667 25.5001C21.6667 24.4501 22.15 23.5084 22.9167 22.9001C23.4917 22.4418 24.2167 22.1667 25 22.1667C26.8417 22.1667 28.3333 23.6584 28.3333 25.5001Z" stroke="white" stroke-width="1.25" stroke-miterlimit="10" stroke-linecap="round" stroke-linejoin="round"/>
<path d="M23.7004 25.5002L24.5254 26.3252L26.3004 24.6836" stroke="white" stroke-width="1.25" stroke-linecap="round" stroke-linejoin="round"/>
</svg>
