<svg width="64" height="64" viewBox="0 0 64 64" fill="none" xmlns="http://www.w3.org/2000/svg">
<rect width="64" height="64" rx="6.4" fill="#F2F4F7"/>
<path d="M38.8 18.3045C41.472 20.3525 43.2 23.5685 43.2 27.2005C43.2 29.5205 42.512 31.6485 41.328 33.4245C39.6 35.9845 36.864 37.7925 33.68 38.2565C33.136 38.3525 32.576 38.4005 32 38.4005C31.424 38.4005 30.864 38.3525 30.32 38.2565C27.136 37.7925 24.4 35.9845 22.672 33.4245C21.488 31.6485 20.8 29.5205 20.8 27.2005C20.8 21.0085 25.808 16.0005 32 16.0005" stroke="#1781F8" stroke-width="2.4" stroke-linecap="round" stroke-linejoin="round"/>
<path d="M46.8001 42.3524L44.1601 42.9764C43.5681 43.1204 43.1041 43.5684 42.9761 44.1604L42.4161 46.5125C42.1121 47.7925 40.4801 48.1765 39.6321 47.1685L32.0001 38.4004L24.3681 47.1844C23.5201 48.1924 21.8881 47.8084 21.5841 46.5284L21.0241 44.1764C20.8801 43.5844 20.4161 43.1204 19.8401 42.9924L17.2001 42.3685C15.9841 42.0805 15.5521 40.5604 16.4321 39.6804L22.6721 33.4404C24.4001 36.0004 27.1361 37.8085 30.3201 38.2725C30.8641 38.3685 31.4241 38.4165 32.0001 38.4165C32.5761 38.4165 33.1361 38.3685 33.6801 38.2725C36.8641 37.8085 39.6001 36.0004 41.3281 33.4404L47.5681 39.6804C48.4481 40.5444 48.0161 42.0644 46.8001 42.3524Z" stroke="#1781F8" stroke-width="2.4" stroke-linecap="round" stroke-linejoin="round"/>
<path d="M32.9281 22.3686L33.8721 24.2566C34.0001 24.5126 34.3361 24.7686 34.6401 24.8166L36.3521 25.1046C37.4401 25.2806 37.6961 26.0806 36.9121 26.8646L35.5841 28.1926C35.3601 28.4166 35.2321 28.8486 35.3121 29.1686L35.6961 30.8166C36.0001 32.1126 35.3121 32.6246 34.1601 31.9366L32.5601 30.9926C32.2721 30.8166 31.7921 30.8166 31.5041 30.9926L29.9041 31.9366C28.7521 32.6086 28.0641 32.1126 28.3681 30.8166L28.7521 29.1686C28.8161 28.8646 28.7041 28.4166 28.4801 28.1926L27.1521 26.8646C26.3681 26.0806 26.6241 25.2966 27.7121 25.1046L29.4241 24.8166C29.7121 24.7686 30.0481 24.5126 30.1761 24.2566L31.1201 22.3686C31.5841 21.3446 32.4161 21.3446 32.9281 22.3686Z" stroke="#1781F8" stroke-width="2.4" stroke-linecap="round" stroke-linejoin="round"/>
</svg>
