<svg width="24" height="24" viewBox="0 0 24 24" fill="none" xmlns="http://www.w3.org/2000/svg">
<path d="M12 0C5.373 0 0 5.373 0 12C0 18.627 5.373 24 12 24C18.627 24 24 18.627 24 12C24 5.373 18.627 0 12 0ZM18.0195 11.781C17.9265 13.32 17.232 15.624 14.4525 17.8665C14.3265 17.9688 14.1693 18.0249 14.007 18.0255C13.895 18.0253 13.7846 17.9987 13.6848 17.9479C13.585 17.897 13.4986 17.8234 13.4325 17.733C13.3139 17.5737 13.2611 17.3749 13.2851 17.1777C13.3091 16.9805 13.4081 16.8002 13.5615 16.674C15.825 14.8485 16.4445 13.0605 16.554 11.8335C16.2345 12.0195 15.873 12.1335 15.4815 12.1335C14.2605 12.1335 13.272 11.106 13.272 9.8385C13.272 8.571 14.2605 7.5435 15.4815 7.5435C15.7575 7.5435 16.011 7.6155 16.2525 7.713L16.2435 7.695C16.2435 7.695 16.35 7.734 16.4985 7.8165C16.506 7.821 16.5135 7.8225 16.521 7.8255L16.533 7.8345C16.635 7.893 16.752 7.971 16.8825 8.082C16.938 8.13 16.9845 8.1855 17.0355 8.238C17.58 8.7795 18.177 9.813 18.0195 11.781ZM8.208 12.1335C6.987 12.1335 5.9985 11.106 5.9985 9.8385C5.9985 8.571 6.9885 7.5435 8.208 7.5435C8.484 7.5435 8.7375 7.6155 8.979 7.713L8.9715 7.695C8.9715 7.695 9.078 7.734 9.2265 7.8165C9.234 7.821 9.2415 7.8225 9.249 7.8255L9.261 7.8345C9.363 7.893 9.48 7.971 9.6105 8.082C9.666 8.13 9.7125 8.1855 9.7635 8.238C10.308 8.7795 10.9065 9.813 10.7475 11.7825C10.6545 13.3215 9.96 15.6255 7.1805 17.868C7.0545 17.9703 6.89729 18.0264 6.735 18.027C6.623 18.0268 6.51263 18.0002 6.41282 17.9494C6.31301 17.8985 6.22657 17.8249 6.1605 17.7345C6.04188 17.5752 5.98911 17.3764 6.01312 17.1792C6.03714 16.982 6.1361 16.8017 6.2895 16.6755C8.553 14.85 9.1725 13.062 9.282 11.835C8.961 12.018 8.5995 12.1335 8.208 12.1335Z" fill="#1781F8"/>
</svg>
