<svg width="97" height="96" viewBox="0 0 97 96" fill="none" xmlns="http://www.w3.org/2000/svg">
<g clip-path="url(#clip0_1_323)">
<path fill-rule="evenodd" clip-rule="evenodd" d="M22.6303 77.151L29.6403 78.737C30.4483 78.92 31.2523 78.413 31.4343 77.605C31.6173 76.798 31.1103 75.994 30.3033 75.811L23.2933 74.225C22.4853 74.042 21.6813 74.549 21.4983 75.357C21.3163 76.164 21.8233 76.968 22.6303 77.151ZM10.2593 74.351L17.6603 76.026C18.4673 76.209 19.2713 75.701 19.4543 74.894C19.6363 74.087 19.1293 73.283 18.3223 73.1L10.9213 71.425C10.1143 71.242 9.31034 71.749 9.12734 72.557C8.94434 73.364 9.45134 74.168 10.2593 74.351ZM17.0593 67.551L35.2923 71.678C36.1003 71.86 36.9033 71.353 37.0863 70.546C37.2693 69.738 36.7623 68.934 35.9543 68.752L17.7213 64.625C16.9133 64.442 16.1093 64.95 15.9273 65.757C15.7443 66.564 16.2513 67.368 17.0593 67.551Z" fill="#1781F8"/>
<path fill-rule="evenodd" clip-rule="evenodd" d="M58.5214 34.719L46.9464 46.295C46.3614 46.88 46.3614 47.831 46.9464 48.416C47.5313 49.001 48.4823 49.001 49.0673 48.416L60.6423 36.841C61.2283 36.255 61.2283 35.305 60.6423 34.719C60.0574 34.134 59.1063 34.134 58.5214 34.719ZM36.5223 52.874L49.0134 65.365C49.5984 65.951 50.5494 65.951 51.1343 65.365C51.7203 64.78 51.7203 63.829 51.1343 63.244L38.6433 50.753C38.0583 50.167 37.1073 50.167 36.5223 50.753C35.9363 51.338 35.9363 52.289 36.5223 52.874ZM29.9973 46.349L32.7083 49.061C33.2943 49.646 34.2443 49.646 34.8303 49.061C35.4153 48.475 35.4153 47.525 34.8303 46.939L32.1183 44.228C31.5333 43.642 30.5823 43.642 29.9973 44.228C29.4113 44.813 29.4113 45.764 29.9973 46.349ZM75.9373 13.154L85.8923 23.109C86.4783 23.695 87.4284 23.695 88.0144 23.109C88.5993 22.524 88.5993 21.573 88.0144 20.988L78.0583 11.033C77.4734 10.447 76.5223 10.447 75.9373 11.033C75.3523 11.618 75.3523 12.569 75.9373 13.154ZM66.1924 15.529L79.8324 29.169C80.4184 29.755 81.3684 29.755 81.9544 29.169C82.5394 28.584 82.5394 27.633 81.9544 27.048L68.3143 13.408C67.7283 12.823 66.7784 12.823 66.1924 13.408C65.6074 13.993 65.6074 14.944 66.1924 15.529ZM88.6354 8.84799L94.4223 3.06099C95.0083 2.47499 95.0083 1.52499 94.4223 0.938994C93.8373 0.353994 92.8873 0.353994 92.3013 0.938994L86.5144 6.72699C85.9284 7.31199 85.9284 8.26299 86.5144 8.84799C87.0993 9.43399 88.0504 9.43399 88.6354 8.84799ZM15.4713 77.769L11.8923 81.348C11.3073 81.934 11.3073 82.884 11.8923 83.47C12.4783 84.055 13.4283 84.055 14.0143 83.47L17.5933 79.891C18.1783 79.305 18.1783 78.355 17.5933 77.769C17.0073 77.184 16.0573 77.184 15.4713 77.769Z" fill="#1781F8"/>
<path fill-rule="evenodd" clip-rule="evenodd" d="M20.5823 60.7749L11.6743 69.6819C10.8243 70.5319 10.3463 71.6859 10.3463 72.8879C10.3463 74.0899 10.8243 75.2439 11.6743 76.0939C13.8253 78.2439 17.1173 81.5369 19.2683 83.6869C20.1183 84.5379 21.2713 85.0149 22.4743 85.0149C23.6763 85.0149 24.8293 84.5379 25.6803 83.6869L38.4733 70.8939C39.0593 70.3079 39.0593 69.358 38.4733 68.773C37.8883 68.187 36.9373 68.187 36.3523 68.773L23.5583 81.566C23.2713 81.854 22.8813 82.0149 22.4743 82.0149C22.0673 82.0149 21.6773 81.854 21.3893 81.566L13.7963 73.9719C13.5083 73.6849 13.3463 73.2949 13.3463 72.8879C13.3463 72.4809 13.5083 72.0909 13.7963 71.8039C13.7963 71.8029 22.7033 62.8959 22.7033 62.8959C23.2893 62.3099 23.2893 61.3599 22.7033 60.7749C22.1183 60.1889 21.1673 60.1889 20.5823 60.7749Z" fill="#060B56"/>
<path fill-rule="evenodd" clip-rule="evenodd" d="M58.5753 57.924C59.1613 57.338 59.1613 56.389 58.5753 55.803L39.5594 36.786C38.9734 36.201 38.0244 36.201 37.4384 36.786C37.4384 36.786 27.5214 46.703 23.0474 51.177C21.2764 52.948 21.2764 55.818 23.0474 57.589C26.7064 61.248 34.1144 68.656 37.7734 72.315C39.5444 74.085 42.4144 74.085 44.1854 72.315L58.5753 57.924ZM55.3933 56.863L42.0634 70.194C41.4644 70.792 40.4934 70.792 39.8944 70.194C36.2353 66.534 28.8284 59.127 25.1684 55.467C24.5694 54.869 24.5694 53.898 25.1684 53.299L38.4984 39.968L55.3933 56.863ZM67.4623 43.661L93.3103 17.813C94.1603 16.963 94.6384 15.81 94.6384 14.608C94.6384 13.405 94.1603 12.252 93.3103 11.402C90.7553 8.847 86.5144 4.606 83.9604 2.052C83.1104 1.202 81.9573 0.723999 80.7543 0.723999C79.5523 0.723999 78.3993 1.202 77.5483 2.052L51.7014 27.899C51.1164 28.485 51.1164 29.435 51.7014 30.021C52.2864 30.606 53.2374 30.606 53.8223 30.021L79.6703 4.173C79.9573 3.886 80.3484 3.724 80.7543 3.724C81.1614 3.724 81.5513 3.886 81.8393 4.173L91.1883 13.523C91.4763 13.811 91.6384 14.201 91.6384 14.608C91.6384 15.014 91.4763 15.404 91.1883 15.692L65.3413 41.539C64.7563 42.125 64.7563 43.075 65.3413 43.661C65.9263 44.246 66.8773 44.246 67.4623 43.661Z" fill="#060B56"/>
<path fill-rule="evenodd" clip-rule="evenodd" d="M72.1374 52.626C73.9084 50.855 73.9084 47.985 72.1374 46.214C67.0394 41.116 54.2454 28.322 49.1484 23.225C47.3774 21.454 44.5064 21.454 42.7364 23.225C40.6594 25.301 37.5284 28.433 35.4514 30.509C33.6814 32.28 33.6814 35.151 35.4514 36.921C40.5494 42.019 53.3434 54.813 58.4414 59.911C60.2114 61.681 63.0824 61.681 64.8524 59.911C66.9294 57.834 70.0604 54.703 72.1374 52.626ZM70.0164 50.505C67.9394 52.581 64.8084 55.713 62.7314 57.789C62.1324 58.388 61.1614 58.388 60.5624 57.789L37.5724 34.8C36.9734 34.201 36.9734 33.23 37.5724 32.631C39.6494 30.554 42.7804 27.423 44.8574 25.346C45.4564 24.747 46.4274 24.747 47.0264 25.346L70.0164 48.336C70.6154 48.935 70.6154 49.906 70.0164 50.505Z" fill="#060B56"/>
<path fill-rule="evenodd" clip-rule="evenodd" d="M12.4833 68.873C12.4833 68.873 8.52435 72.8329 7.11335 74.2429C4.48235 76.8739 3.00435 80.443 3.00435 84.163C3.00435 86.296 3.49035 88.379 4.40035 90.263C5.07735 91.667 5.99035 92.961 7.11335 94.084C7.45935 94.429 7.78735 94.7569 8.09035 95.0609C8.67635 95.6459 9.62635 95.6459 10.2123 95.0609C10.7973 94.4749 10.7973 93.525 10.2123 92.939C9.90835 92.636 9.58035 92.308 9.23535 91.962C8.35235 91.08 7.63435 90.062 7.10135 88.959C6.38635 87.477 6.00435 85.84 6.00435 84.163C6.00435 81.238 7.16635 78.433 9.23535 76.365C10.6453 74.954 14.6053 70.994 14.6053 70.994C15.1903 70.409 15.1903 69.458 14.6053 68.873C14.0193 68.288 13.0693 68.288 12.4833 68.873Z" fill="#060B56"/>
</g>
<defs>
<clipPath id="clip0_1_323">
<rect width="96" height="96" fill="white" transform="translate(0.93335)"/>
</clipPath>
</defs>
</svg>
