<svg width="40" height="40" viewBox="0 0 40 40" fill="none" xmlns="http://www.w3.org/2000/svg">
<path d="M22.5896 10.9902L17.3003 24.2135H14.6556L9.36634 28.1805V24.2135C8.2644 24.4339 6.06052 24.2135 6.06052 21.5688V11.6514C10.6887 11.431 20.4739 10.9902 22.5896 10.9902Z" fill="#EAECF0"/>
<path d="M21.9283 13.6343L33.8293 14.2954V26.1964L29.8623 26.8575V30.8245L24.573 26.8575H16.639L21.9283 13.6343Z" fill="#1781F8"/>
<path d="M15.1515 29.8888H14.9091C14.5455 29.7675 14.4243 29.4039 14.5455 29.0403L23.5153 8.434C23.6365 8.07036 24.0001 7.94914 24.3638 8.07036C24.7274 8.19157 24.8486 8.55521 24.7274 8.91885L15.7576 29.5251C15.6364 29.7675 15.394 29.8888 15.1515 29.8888Z" fill="#060B56"/>
<path d="M30.3029 31.0998C30.1817 31.0998 30.0605 31.0998 29.9393 30.9786L25.2119 27.4634H16.9694C16.727 27.4634 16.3634 27.4634 16.1209 27.3422C15.7573 27.221 15.6361 26.9786 15.7573 26.615C15.8785 26.2513 16.1209 26.1301 16.4846 26.2513C16.6058 26.2513 16.8482 26.3725 16.9694 26.3725H25.4544C25.5756 26.3725 25.6968 26.3725 25.818 26.4937L29.6968 29.4029V26.9786C29.6968 26.615 29.9393 26.3725 30.3029 26.3725H31.515C32.4847 26.3725 33.3332 25.524 33.3332 24.5543V16.0694C33.3332 15.0997 32.4847 14.2512 31.515 14.2512H22.0604C21.6968 14.2512 21.4543 14.0088 21.4543 13.6451C21.4543 13.2815 21.6968 13.0391 22.0604 13.0391H31.515C33.212 13.0391 34.5454 14.3724 34.5454 16.0694V24.5543C34.5454 26.2513 33.212 27.5847 31.515 27.5847H30.909V30.4938C30.909 30.7362 30.7878 30.9786 30.5453 30.9786C30.4241 31.0998 30.4241 31.0998 30.3029 31.0998Z" fill="#060B56"/>
<path d="M9.69696 28.6761C9.57575 28.6761 9.45454 28.6761 9.45454 28.5549C9.21211 28.4337 9.0909 28.1913 9.0909 28.0701V25.0397H8.48483C6.78784 25.0397 5.4545 23.7064 5.4545 22.0094V13.5245C5.4545 11.8275 6.78784 10.4941 8.48483 10.4941H23.0304C23.3941 10.4941 23.6365 10.7366 23.6365 11.1002C23.6365 11.4638 23.3941 11.7063 23.0304 11.7063H8.48483C7.51512 11.7063 6.66663 12.5548 6.66663 13.5245V22.0094C6.66663 22.9791 7.51512 23.8276 8.48483 23.8276H9.69696C10.0606 23.8276 10.303 24.07 10.303 24.4337V26.8579L14.1819 23.9488C14.3031 23.8276 14.4243 23.8276 14.5455 23.8276H16.9698C17.3334 23.8276 17.5758 24.07 17.5758 24.4337C17.5758 24.7973 17.3334 25.0397 16.9698 25.0397H14.7879L10.0606 28.5549C9.93939 28.6761 9.81818 28.6761 9.69696 28.6761Z" fill="#060B56"/>
<path d="M13.4908 20.908C12.812 20.908 12.2843 20.7499 11.9077 20.4338C11.5357 20.1176 11.3497 19.6712 11.3497 19.0947C11.3497 18.7274 11.4543 18.3973 11.6636 18.1044C11.8774 17.8114 12.2169 17.5534 12.6818 17.3302V17.2953C12.3935 17.1187 12.182 16.9234 12.0471 16.7095C11.917 16.491 11.8519 16.2445 11.8519 15.9702C11.8519 15.7563 11.8891 15.5494 11.9635 15.3495C12.0378 15.1449 12.1448 14.9659 12.2843 14.8125C12.4284 14.6544 12.6004 14.5289 12.8004 14.4359C13.0049 14.3429 13.2351 14.2964 13.4908 14.2964C13.8349 14.2964 14.1278 14.3754 14.3696 14.5335C14.6114 14.6916 14.8066 14.8985 14.9554 15.1542L14.2092 15.8168C14.1069 15.6541 13.9883 15.5355 13.8535 15.4611C13.7187 15.3821 13.5513 15.3425 13.3513 15.3425C13.1003 15.3425 12.9027 15.396 12.7585 15.5029C12.619 15.6099 12.5493 15.768 12.5493 15.9772C12.5493 16.4049 12.8957 16.6188 13.5885 16.6188C13.7187 16.6188 13.8581 16.6119 14.0069 16.5979C14.1557 16.584 14.3208 16.5607 14.5021 16.5282L15.06 16.4305L15.2205 17.393L14.3068 17.5464C13.5489 17.6719 12.9957 17.844 12.6469 18.0625C12.2982 18.281 12.1239 18.567 12.1239 18.9203V19.004C12.1239 19.297 12.2448 19.5132 12.4865 19.6526C12.7283 19.7921 13.0631 19.8619 13.4908 19.8619C13.8256 19.8619 14.1557 19.8014 14.4812 19.6805C14.8113 19.5643 15.0949 19.3969 15.332 19.1784L15.8551 20.0014C15.5622 20.285 15.2088 20.5058 14.795 20.6639C14.3812 20.8267 13.9465 20.908 13.4908 20.908Z" fill="#010212"/>
<path d="M27.8637 23.5526L27.3901 21.9802H25.183L24.7094 23.5526H23.2507L25.4293 16.9409H27.2101L29.3603 23.5526H27.8637ZM26.3008 18.2481H26.2534L25.524 20.7582H27.0396L26.3008 18.2481Z" fill="white"/>
</svg>
