<svg width="97" height="96" viewBox="0 0 97 96" fill="none" xmlns="http://www.w3.org/2000/svg">
<path d="M48.4001 6C25.2401 6 6.40009 24.84 6.40009 48C6.40009 71.16 25.2401 90 48.4001 90C71.5601 90 90.4001 71.16 90.4001 48C90.4001 24.84 71.5601 6 48.4001 6ZM48.4001 87C26.89 87 9.40009 69.5099 9.40009 48C9.40009 26.49 26.89 9 48.4001 9C69.9101 9 87.4001 26.49 87.4001 48C87.4001 69.5099 69.9101 87 48.4001 87Z" fill="#060B56"/>
<path d="M48.4001 23.61C34.9451 23.61 24.0101 34.545 24.0101 48C24.0101 61.455 34.9451 72.39 48.4001 72.39C61.855 72.39 72.7901 61.455 72.7901 48C72.7901 34.545 61.855 23.61 48.4001 23.61ZM48.4001 69.39C36.5951 69.39 27.0101 59.805 27.0101 48C27.0101 36.195 36.5951 26.61 48.4001 26.61C60.2051 26.61 69.7901 36.195 69.7901 48C69.7901 59.805 60.2051 69.39 48.4001 69.39ZM48.3401 10.02C44.9051 10.02 42.1001 12.81 42.1001 16.26C42.1001 19.695 44.9051 22.485 48.3401 22.485C51.7751 22.485 54.5801 19.695 54.5801 16.26C54.5801 12.81 51.7751 10.02 48.3401 10.02ZM48.3401 19.485C46.5551 19.485 45.1001 18.045 45.1001 16.26C45.1001 14.475 46.5551 13.02 48.3401 13.02C50.1251 13.02 51.5801 14.475 51.5801 16.26C51.5801 18.045 50.1251 19.485 48.3401 19.485ZM68.2151 24.2101C67.9301 24.435 67.6001 24.555 67.2701 24.555C66.8351 24.555 66.4001 24.36 66.1001 23.985C64.5251 22.05 60.5801 20.73 59.1851 20.385C58.3751 20.19 57.8801 19.38 58.0901 18.57C58.2851 17.775 59.0951 17.28 59.89 17.475C60.1451 17.535 65.8901 18.975 68.4251 22.11C68.9501 22.755 68.8601 23.685 68.2151 24.2101ZM81.2651 28.95C80.4251 27.51 79.0901 26.475 77.4701 26.055C75.8651 25.62 74.1851 25.83 72.7451 26.67C71.3051 27.51 70.2701 28.845 69.8351 30.465C69.4001 32.07 69.6251 33.75 70.4651 35.19C71.2901 36.63 72.6401 37.665 74.2451 38.1C74.7851 38.235 75.3251 38.31 75.8651 38.31C76.9601 38.31 78.0251 38.025 78.9851 37.47C81.9551 35.76 82.9751 31.935 81.2651 28.95ZM78.9851 32.91C78.7601 33.75 78.2351 34.44 77.4851 34.875C75.9401 35.775 73.9451 35.235 73.0601 33.69C72.6251 32.94 72.5201 32.07 72.73 31.23C72.9551 30.405 73.4951 29.7 74.2451 29.265C74.7401 28.98 75.2951 28.83 75.8501 28.83C76.1351 28.83 76.4201 28.875 76.7051 28.95C77.5301 29.175 78.2351 29.7 78.6701 30.45C79.0901 31.2 79.2101 32.07 78.9851 32.91ZM80.5601 52.11C80.3351 52.7101 79.7651 53.07 79.1651 53.07C78.9851 53.07 78.8051 53.04 78.6251 52.98C77.8451 52.68 77.4701 51.81 77.7701 51.03C78.6551 48.705 77.8301 44.625 77.4251 43.245C77.2001 42.45 77.6501 41.61 78.4451 41.385C79.2401 41.16 80.0801 41.61 80.3051 42.405C80.3801 42.645 82.0001 48.345 80.5601 52.11ZM81.9551 62.205C81.5201 60.6 80.4851 59.25 79.0451 58.425C76.0601 56.7 72.2501 57.72 70.5251 60.705C68.8001 63.675 69.8351 67.5 72.8051 69.225C73.7801 69.78 74.8601 70.05 75.9101 70.05C78.0701 70.05 80.1701 68.94 81.3251 66.93C82.1651 65.49 82.3751 63.81 81.9551 62.205ZM78.73 65.43C77.8301 66.975 75.8501 67.515 74.3051 66.615C72.7601 65.73 72.2351 63.75 73.1201 62.205C73.5551 61.455 74.2451 60.915 75.0851 60.69C75.9251 60.465 76.7951 60.5851 77.5451 61.02C78.2951 61.455 78.8201 62.145 79.0451 62.985C79.2701 63.81 79.1651 64.695 78.73 65.43ZM69.2201 73.725C69.0401 73.92 64.9151 78.18 60.9401 78.81C60.8651 78.825 60.7901 78.825 60.7001 78.825C59.98 78.825 59.3501 78.3 59.23 77.565C59.0951 76.74 59.6501 75.975 60.4751 75.84C62.9501 75.45 66.0551 72.69 67.0601 71.655C67.6301 71.055 68.5751 71.04 69.1751 71.61C69.7751 72.18 69.7901 73.14 69.2201 73.725ZM48.4601 73.515C45.0251 73.515 42.2201 76.305 42.2201 79.74C42.2201 83.19 45.0251 85.98 48.4601 85.98C51.8951 85.98 54.7001 83.19 54.7001 79.74C54.7001 76.305 51.8951 73.515 48.4601 73.515ZM48.4601 82.98C46.6751 82.98 45.2201 81.525 45.2201 79.74C45.2201 77.955 46.6751 76.515 48.4601 76.515C50.2451 76.515 51.7001 77.955 51.7001 79.74C51.7001 81.525 50.2451 82.98 48.4601 82.98ZM38.2451 77.16C38.0801 77.85 37.4651 78.315 36.7901 78.315C36.6701 78.315 36.5501 78.3 36.4301 78.27C36.1901 78.2101 30.4301 76.77 27.8951 73.635C27.3701 72.99 27.4751 72.045 28.1201 71.535C28.765 71.01 29.7101 71.1 30.2201 71.745C31.8101 73.7101 35.7551 75.015 37.1351 75.36C37.9451 75.555 38.4401 76.365 38.2451 77.16ZM26.3351 60.81C25.5101 59.37 24.1601 58.3351 22.5551 57.9C20.9351 57.465 19.2551 57.69 17.8151 58.53C14.8451 60.24 13.8251 64.065 15.5351 67.05C16.3751 68.49 17.7101 69.525 19.3301 69.945C19.855 70.095 20.4101 70.17 20.9501 70.17C22.0301 70.17 23.0951 69.885 24.0551 69.33C25.4951 68.49 26.5301 67.155 26.9651 65.535C27.4001 63.93 27.1751 62.25 26.3351 60.81ZM24.0701 64.77C23.8451 65.595 23.3051 66.3 22.5551 66.735C21.8051 67.17 20.9351 67.275 20.0951 67.05C19.2701 66.825 18.5651 66.3 18.1301 65.55C17.7101 64.8 17.5901 63.93 17.8151 63.09C18.0401 62.25 18.5651 61.56 19.3151 61.125C20.8601 60.225 22.8401 60.765 23.7401 62.31C24.1751 63.06 24.2801 63.93 24.0701 64.77ZM17.9501 53.01C17.8151 53.055 17.6801 53.07 17.5301 53.07C16.8851 53.07 16.2851 52.65 16.0901 51.99C16.0301 51.75 14.3951 46.05 15.8351 42.285C16.1351 41.52 17.0051 41.13 17.7701 41.43C18.5501 41.715 18.9401 42.5851 18.64 43.365C17.7401 45.705 18.5801 49.785 18.9701 51.15C19.2101 51.945 18.7451 52.785 17.9501 53.01ZM23.9951 26.775C21.0101 25.065 17.2001 26.0851 15.4751 29.07C14.6351 30.51 14.4251 32.19 14.8451 33.795C15.2801 35.4 16.3151 36.75 17.7551 37.575C18.73 38.145 19.8101 38.415 20.8601 38.415C23.0201 38.415 25.1201 37.29 26.2751 35.295C28.0001 32.325 26.9651 28.5 23.9951 26.775ZM23.6801 33.795C23.2451 34.545 22.5551 35.0851 21.7151 35.31C20.8751 35.535 20.0051 35.415 19.2551 34.98C18.5051 34.545 17.98 33.855 17.7551 33.015C17.5301 32.19 17.6351 31.305 18.0701 30.57C18.6701 29.52 19.765 28.95 20.8751 28.95C21.4301 28.95 21.9851 29.0851 22.4951 29.385C24.0401 30.27 24.5651 32.25 23.6801 33.795ZM38.1251 18.435C38.2451 19.26 37.6901 20.025 36.8651 20.16C34.4051 20.55 31.2851 23.31 30.2951 24.345C29.9951 24.645 29.605 24.81 29.2151 24.81C28.8401 24.81 28.4651 24.66 28.1651 24.39C27.5801 23.82 27.5501 22.86 28.1201 22.275C28.3001 22.08 32.4251 17.82 36.4001 17.19C37.2101 17.07 37.9901 17.625 38.1251 18.435Z" fill="#1781F8"/>
<path d="M48.4001 31.02C39.0401 31.02 31.42 38.64 31.42 48C31.42 57.36 39.0401 64.98 48.4001 64.98C57.76 64.98 65.3801 57.36 65.3801 48C65.3801 38.64 57.76 31.02 48.4001 31.02ZM48.4001 61.98C40.69 61.98 34.42 55.7101 34.42 48C34.42 40.29 40.69 34.02 48.4001 34.02C56.1101 34.02 62.3801 40.29 62.3801 48C62.3801 55.7101 56.1101 61.98 48.4001 61.98Z" fill="#060B56"/>
</svg>
