<svg width="96" height="96" viewBox="0 0 96 96" fill="none" xmlns="http://www.w3.org/2000/svg">
<path d="M81.75 7.6875H76.125V2.0625C76.125 1.02694 75.2854 0.1875 74.25 0.1875C73.2146 0.1875 72.375 1.02694 72.375 2.0625V7.6875H66.75C65.7146 7.6875 64.875 8.52694 64.875 9.5625V22.6875C64.875 25.7481 66.3495 28.4704 68.625 30.1824V42.4123C63.4852 38.2856 56.964 35.8125 49.875 35.8125C42.786 35.8125 36.2647 38.2856 31.125 42.4123V30.7935C35.5551 28.6832 38.625 24.1626 38.625 18.9375V9.5625C38.625 8.52694 37.7856 7.6875 36.75 7.6875H33V2.0625C33 1.02694 32.1606 0.1875 31.125 0.1875C30.0894 0.1875 29.25 1.02694 29.25 2.0625V7.6875H21.75V2.0625C21.75 1.02694 20.9104 0.1875 19.875 0.1875C18.8396 0.1875 18 1.02694 18 2.0625V7.6875H14.25C13.2146 7.6875 12.375 8.52694 12.375 9.5625V18.9375C12.375 24.1626 15.4449 28.6832 19.875 30.7935V65.8125C19.875 82.3545 33.3328 95.8125 49.875 95.8125C67.5819 95.8125 79.875 80.5371 79.875 67.6875V30.1824C82.1505 28.4704 83.625 25.7481 83.625 22.6875V9.5625C83.625 8.52694 82.7854 7.6875 81.75 7.6875ZM16.125 18.9375V11.4375H34.875V18.9375C34.875 24.1069 30.6694 28.3125 25.5 28.3125C20.3306 28.3125 16.125 24.1069 16.125 18.9375ZM23.625 31.9264C24.8861 32.1075 26.112 32.1079 27.375 31.9264V45.9926C25.9427 47.6168 24.6831 49.3965 23.625 51.303V31.9264ZM49.875 88.3125C37.4685 88.3125 27.375 78.219 27.375 65.8125C27.375 53.406 37.4685 43.3125 49.875 43.3125C62.2815 43.3125 72.375 53.406 72.375 65.8125C72.375 78.219 62.2815 88.3125 49.875 88.3125ZM76.125 51.3032C75.0669 49.3965 73.8073 47.6169 72.375 45.9928V31.8739C73.566 32.1167 74.8479 32.1341 76.125 31.8739V51.3032ZM79.875 22.6875C79.875 25.7891 77.3516 28.3125 74.25 28.3125C71.1484 28.3125 68.625 25.7891 68.625 22.6875V11.4375H79.875V22.6875Z" fill="#1781F8"/>
</svg>
